<svg width="1440" height="579" viewBox="0 0 1440 579" fill="none" xmlns="http://www.w3.org/2000/svg">
<rect width="32.5709" height="307.962" transform="matrix(0 1 1 0 -158 109.045)" fill="#242424"/>
<rect width="32.5709" height="307.962" transform="matrix(0 1 1 0 -158 109.045)" fill="#FAFAFA"/>
<rect width="32.5709" height="154.707" transform="matrix(0 1 1 0 -43.9395 320.364)" fill="#242424"/>
<rect width="32.5709" height="154.707" transform="matrix(0 1 1 0 -43.9395 320.364)" fill="#FAFAFA"/>
<rect width="32.5709" height="366.634" transform="matrix(0 1 1 0 110.759 287.791)" fill="#242424"/>
<rect width="32.5709" height="366.634" transform="matrix(0 1 1 0 110.759 287.791)" fill="#FAFAFA"/>
<rect width="32.5709" height="394.959" transform="matrix(0 1 1 0 478.052 320.364)" fill="#242424"/>
<rect width="32.5709" height="394.959" transform="matrix(0 1 1 0 478.052 320.364)" fill="#FAFAFA"/>
<rect width="32.5709" height="190.733" transform="matrix(0 1 1 0 1382.23 546.255)" fill="#242424"/>
<rect width="32.5709" height="190.733" transform="matrix(0 1 1 0 1382.23 546.255)" fill="#FAFAFA"/>
<rect width="32.5709" height="190.733" transform="matrix(0 1 1 0 1191.5 513.683)" fill="#242424"/>
<rect width="32.5709" height="190.733" transform="matrix(0 1 1 0 1191.5 513.683)" fill="#FAFAFA"/>
<rect width="32.5709" height="420.284" transform="matrix(0 1 1 0 771.793 546.255)" fill="#242424"/>
<rect width="32.5709" height="420.284" transform="matrix(0 1 1 0 771.793 546.255)" fill="#FAFAFA"/>
<rect width="32.5709" height="336.575" transform="matrix(0 1 1 0 435.204 513.683)" fill="#242424"/>
<rect width="32.5709" height="336.575" transform="matrix(0 1 1 0 435.204 513.683)" fill="#FAFAFA"/>
<rect width="32.5709" height="336.575" transform="matrix(0 1 1 0 1135.92 397)" fill="#242424"/>
<rect width="32.5709" height="336.575" transform="matrix(0 1 1 0 1135.92 397)" fill="#FAFAFA"/>
<rect width="32.5709" height="336.575" transform="matrix(0 1 1 0 1118.58 0)" fill="#242424"/>
<rect width="32.5709" height="336.575" transform="matrix(0 1 1 0 1118.58 0)" fill="#FAFAFA"/>
<rect width="32.5709" height="362.11" transform="matrix(0 1 1 0 666.299 109.045)" fill="#242424"/>
<rect width="32.5709" height="362.11" transform="matrix(0 1 1 0 666.299 109.045)" fill="#FAFAFA"/>
<rect width="32.5709" height="516.329" transform="matrix(0 1 1 0 149.965 141.618)" fill="#242424"/>
<rect width="32.5709" height="516.329" transform="matrix(0 1 1 0 149.965 141.618)" fill="#FAFAFA"/>
</svg>
