<svg width="1080" height="1080" viewBox="0 0 1080 1080" fill="none" xmlns="http://www.w3.org/2000/svg">
<rect x="302.723" y="144" width="475.556" height="157.722" fill="#242424"/>
<rect x="302.723" y="144" width="475.556" height="157.722" fill="url(#paint0_linear_1359_11009)"/>
<rect x="302.723" y="777.278" width="475.556" height="157.722" fill="#242424"/>
<rect x="302.723" y="777.278" width="475.556" height="157.722" fill="url(#paint1_linear_1359_11009)"/>
<rect x="524.965" y="540.695" width="411.033" height="157.722" fill="#242424"/>
<rect x="524.965" y="540.695" width="411.033" height="157.722" fill="url(#paint2_linear_1359_11009)"/>
<rect x="145" y="777.278" width="475.556" height="157.722" transform="rotate(-90 145 777.278)" fill="#242424"/>
<rect x="145" y="777.278" width="475.556" height="157.722" transform="rotate(-90 145 777.278)" fill="url(#paint3_linear_1359_11009)"/>
<rect x="778.277" y="777.278" width="78.861" height="157.722" transform="rotate(-90 778.277 777.278)" fill="#242424"/>
<rect x="778.277" y="777.278" width="78.861" height="157.722" transform="rotate(-90 778.277 777.278)" fill="url(#paint4_linear_1359_11009)"/>
<defs>
<linearGradient id="paint0_linear_1359_11009" x1="540.501" y1="144" x2="540.501" y2="301.722" gradientUnits="userSpaceOnUse">
<stop stop-color="#FAFAFA"/>
<stop offset="1" stop-color="#6D6C6C"/>
</linearGradient>
<linearGradient id="paint1_linear_1359_11009" x1="540.501" y1="777.278" x2="540.501" y2="935" gradientUnits="userSpaceOnUse">
<stop stop-color="#FAFAFA"/>
<stop offset="1" stop-color="#6D6C6C"/>
</linearGradient>
<linearGradient id="paint2_linear_1359_11009" x1="730.481" y1="540.695" x2="730.481" y2="698.417" gradientUnits="userSpaceOnUse">
<stop stop-color="#FAFAFA"/>
<stop offset="1" stop-color="#6D6C6C"/>
</linearGradient>
<linearGradient id="paint3_linear_1359_11009" x1="382.778" y1="777.278" x2="382.778" y2="935" gradientUnits="userSpaceOnUse">
<stop stop-color="#FAFAFA"/>
<stop offset="1" stop-color="#6D6C6C"/>
</linearGradient>
<linearGradient id="paint4_linear_1359_11009" x1="817.708" y1="777.278" x2="817.708" y2="935" gradientUnits="userSpaceOnUse">
<stop stop-color="#FAFAFA"/>
<stop offset="1" stop-color="#6D6C6C"/>
</linearGradient>
</defs>
</svg>
