<svg width="1080" height="1080" viewBox="0 0 1080 1080" fill="none" xmlns="http://www.w3.org/2000/svg">
<path d="M342.268 126.415C344.939 126.415 347.601 126.483 350.253 126.618H989.997V538.725H361.605V264.925H345.605V823.097H361.605V554.725H989.997V619.546H989.998V951.374H635.439V619.546H589.716C566.78 808.739 464.711 951.374 342.268 951.374C202.944 951.374 90.0001 766.7 90 538.895C90 311.089 202.944 126.415 342.268 126.415Z" fill="#242424"/>
<path d="M342.268 126.415C344.939 126.415 347.601 126.483 350.253 126.618H989.997V538.725H361.605V264.925H345.605V823.097H361.605V554.725H989.997V619.546H989.998V951.374H635.439V619.546H589.716C566.78 808.739 464.711 951.374 342.268 951.374C202.944 951.374 90.0001 766.7 90 538.895C90 311.089 202.944 126.415 342.268 126.415Z" fill="url(#paint0_linear_1359_11016)"/>
<path d="M342.268 126.415C344.939 126.415 347.601 126.483 350.253 126.618H989.997V538.725H361.605V264.925H345.605V823.097H361.605V554.725H989.997V619.546H989.998V951.374H635.439V619.546H589.716C566.78 808.739 464.711 951.374 342.268 951.374C202.944 951.374 90.0001 766.7 90 538.895C90 311.089 202.944 126.415 342.268 126.415Z" fill="url(#paint1_radial_1359_11016)"/>
<defs>
<linearGradient id="paint0_linear_1359_11016" x1="246.069" y1="191.526" x2="1253.05" y2="1753.24" gradientUnits="userSpaceOnUse">
<stop offset="0.201923" stop-color="#21772B"/>
<stop offset="0.682692" stop-color="#A6FF57"/>
<stop offset="1" stop-color="#B8B5FF"/>
</linearGradient>
<radialGradient id="paint1_radial_1359_11016" cx="0" cy="0" r="1" gradientTransform="matrix(529.277 504.236 -527.044 511.511 539.999 564.107)" gradientUnits="userSpaceOnUse">
<stop stop-color="#7AC834"/>
<stop offset="1" stop-color="#21772B"/>
</radialGradient>
</defs>
</svg>
