<svg width="1080" height="1080" viewBox="0 0 1080 1080" fill="none" xmlns="http://www.w3.org/2000/svg">
<path d="M174.537 260.586H194.339V736.143H174.537V996.69H154.023V736.143H134.219V260.586H154.023V83.667H174.537V260.586ZM258.169 260.586H277.974V736.143H258.169V996.69H237.655V736.143H217.854V260.586H237.655V83.667H258.169V260.586ZM341.806 260.586H361.608V736.143H341.806V756.143H361.608V912.997H341.806V996.69H321.292V912.997H301.488V756.143H321.292V736.143H301.488V260.586H321.292V83.667H341.806V260.586ZM447.269 240.165H427.439V756.143H447.243V912.997H427.439V996.69H406.926V912.997H387.123V756.143H406.926V240.165H387.148V83.3096H447.269V240.165ZM530.903 240.165H511.07V756.143H530.878V912.997H511.07V996.69H490.557V912.997H470.758V756.143H490.557V240.165H470.783V83.3096H530.903V240.165ZM614.538 240.165H594.703V756.143H614.513V912.997H594.703V996.69H574.189V912.997H554.393V756.143H574.189V240.165H554.418V83.3096H614.538V240.165ZM698.173 240.165H678.336V472.502H698.874V629.357H678.336V756.143H698.147V912.997H678.336V996.69H657.822V912.997H638.027V756.143H657.822V629.357H638.754V472.502H657.822V240.165H638.053V83.3096H698.173V240.165ZM781.808 240.165H761.969V472.502H782.509V629.357H761.969V756.143H781.782V912.997H761.969V996.69H741.455V912.997H721.662V756.143H741.455V629.357H722.389V472.502H741.455V240.165H721.688V83.3096H781.808V240.165ZM843.601 472.502H864.144V629.357H843.601V648.605H864.144V756.143H843.601V996.69H823.087V756.143H804.023V648.605H823.087V629.357H804.023V472.502H823.087V83.667H843.601V472.502ZM927.233 472.502H947.778V629.357H927.233V648.605H947.778V756.143H927.233V996.69H906.72V756.143H887.658V648.605H906.72V629.357H887.658V472.502H906.72V83.667H927.233V472.502Z" fill="#242424"/>
<path d="M174.537 260.586H194.339V736.143H174.537V996.69H154.023V736.143H134.219V260.586H154.023V83.667H174.537V260.586ZM258.169 260.586H277.974V736.143H258.169V996.69H237.655V736.143H217.854V260.586H237.655V83.667H258.169V260.586ZM341.806 260.586H361.608V736.143H341.806V756.143H361.608V912.997H341.806V996.69H321.292V912.997H301.488V756.143H321.292V736.143H301.488V260.586H321.292V83.667H341.806V260.586ZM447.269 240.165H427.439V756.143H447.243V912.997H427.439V996.69H406.926V912.997H387.123V756.143H406.926V240.165H387.148V83.3096H447.269V240.165ZM530.903 240.165H511.07V756.143H530.878V912.997H511.07V996.69H490.557V912.997H470.758V756.143H490.557V240.165H470.783V83.3096H530.903V240.165ZM614.538 240.165H594.703V756.143H614.513V912.997H594.703V996.69H574.189V912.997H554.393V756.143H574.189V240.165H554.418V83.3096H614.538V240.165ZM698.173 240.165H678.336V472.502H698.874V629.357H678.336V756.143H698.147V912.997H678.336V996.69H657.822V912.997H638.027V756.143H657.822V629.357H638.754V472.502H657.822V240.165H638.053V83.3096H698.173V240.165ZM781.808 240.165H761.969V472.502H782.509V629.357H761.969V756.143H781.782V912.997H761.969V996.69H741.455V912.997H721.662V756.143H741.455V629.357H722.389V472.502H741.455V240.165H721.688V83.3096H781.808V240.165ZM843.601 472.502H864.144V629.357H843.601V648.605H864.144V756.143H843.601V996.69H823.087V756.143H804.023V648.605H823.087V629.357H804.023V472.502H823.087V83.667H843.601V472.502ZM927.233 472.502H947.778V629.357H927.233V648.605H947.778V756.143H927.233V996.69H906.72V756.143H887.658V648.605H906.72V629.357H887.658V472.502H906.72V83.667H927.233V472.502Z" fill="url(#paint0_linear_1359_11024)"/>
<defs>
<linearGradient id="paint0_linear_1359_11024" x1="539.998" y1="83.3096" x2="539.998" y2="996.69" gradientUnits="userSpaceOnUse">
<stop stop-color="#4039D0"/>
<stop offset="1" stop-color="#9A298E"/>
</linearGradient>
</defs>
</svg>
