<svg width="1080" height="1080" viewBox="0 0 1080 1080" fill="none" xmlns="http://www.w3.org/2000/svg">
<path d="M564.221 1004.8H502.41V738.375H564.221V1004.8ZM793.448 932.832L739.919 962.749L602.303 732.015L655.832 702.098L793.448 932.832ZM466.19 725.541L328.575 956.274L275.046 926.357L412.661 695.624L466.19 725.541ZM954.719 759.439L923.813 811.256L685.456 678.042L716.361 626.225L954.719 759.439ZM387.88 666.982L149.523 800.197L118.618 748.379L356.976 615.166L387.88 666.982ZM1004.88 591.127H526.253V531.293H1004.88V591.127ZM350.352 578.338H75.1211V518.504H350.353L350.352 578.338ZM961.362 361.316L723.005 494.531L692.1 442.713L930.457 309.5L961.362 361.316ZM394.541 431.558L363.636 483.375L125.279 350.161L156.185 298.343L394.541 431.558ZM804.952 183.243L667.336 413.976L613.807 384.059L751.423 153.326L804.952 183.243ZM477.715 377.681L424.186 407.597L286.569 176.864L340.099 146.948L477.715 377.681ZM577.577 371.232H515.767V104.804H577.577V371.232Z" fill="#D9D9D9"/>
<path d="M564.221 1004.8H502.41V738.375H564.221V1004.8ZM793.448 932.832L739.919 962.749L602.303 732.015L655.832 702.098L793.448 932.832ZM466.19 725.541L328.575 956.274L275.046 926.357L412.661 695.624L466.19 725.541ZM954.719 759.439L923.813 811.256L685.456 678.042L716.361 626.225L954.719 759.439ZM387.88 666.982L149.523 800.197L118.618 748.379L356.976 615.166L387.88 666.982ZM1004.88 591.127H526.253V531.293H1004.88V591.127ZM350.352 578.338H75.1211V518.504H350.353L350.352 578.338ZM961.362 361.316L723.005 494.531L692.1 442.713L930.457 309.5L961.362 361.316ZM394.541 431.558L363.636 483.375L125.279 350.161L156.185 298.343L394.541 431.558ZM804.952 183.243L667.336 413.976L613.807 384.059L751.423 153.326L804.952 183.243ZM477.715 377.681L424.186 407.597L286.569 176.864L340.099 146.948L477.715 377.681ZM577.577 371.232H515.767V104.804H577.577V371.232Z" fill="#E8F8A1"/>
<path d="M564.221 1004.8H502.41V738.375H564.221V1004.8ZM793.448 932.832L739.919 962.749L602.303 732.015L655.832 702.098L793.448 932.832ZM466.19 725.541L328.575 956.274L275.046 926.357L412.661 695.624L466.19 725.541ZM954.719 759.439L923.813 811.256L685.456 678.042L716.361 626.225L954.719 759.439ZM387.88 666.982L149.523 800.197L118.618 748.379L356.976 615.166L387.88 666.982ZM1004.88 591.127H526.253V531.293H1004.88V591.127ZM350.352 578.338H75.1211V518.504H350.353L350.352 578.338ZM961.362 361.316L723.005 494.531L692.1 442.713L930.457 309.5L961.362 361.316ZM394.541 431.558L363.636 483.375L125.279 350.161L156.185 298.343L394.541 431.558ZM804.952 183.243L667.336 413.976L613.807 384.059L751.423 153.326L804.952 183.243ZM477.715 377.681L424.186 407.597L286.569 176.864L340.099 146.948L477.715 377.681ZM577.577 371.232H515.767V104.804H577.577V371.232Z" fill="url(#paint0_radial_1359_11061)"/>
<path d="M564.221 1004.8H502.41V738.375H564.221V1004.8ZM793.448 932.832L739.919 962.749L602.303 732.015L655.832 702.098L793.448 932.832ZM466.19 725.541L328.575 956.274L275.046 926.357L412.661 695.624L466.19 725.541ZM954.719 759.439L923.813 811.256L685.456 678.042L716.361 626.225L954.719 759.439ZM387.88 666.982L149.523 800.197L118.618 748.379L356.976 615.166L387.88 666.982ZM1004.88 591.127H526.253V531.293H1004.88V591.127ZM350.352 578.338H75.1211V518.504H350.353L350.352 578.338ZM961.362 361.316L723.005 494.531L692.1 442.713L930.457 309.5L961.362 361.316ZM394.541 431.558L363.636 483.375L125.279 350.161L156.185 298.343L394.541 431.558ZM804.952 183.243L667.336 413.976L613.807 384.059L751.423 153.326L804.952 183.243ZM477.715 377.681L424.186 407.597L286.569 176.864L340.099 146.948L477.715 377.681ZM577.577 371.232H515.767V104.804H577.577V371.232Z" fill="#E3FE79"/>
<path d="M564.221 1004.8H502.41V738.375H564.221V1004.8ZM793.448 932.832L739.919 962.749L602.303 732.015L655.832 702.098L793.448 932.832ZM466.19 725.541L328.575 956.274L275.046 926.357L412.661 695.624L466.19 725.541ZM954.719 759.439L923.813 811.256L685.456 678.042L716.361 626.225L954.719 759.439ZM387.88 666.982L149.523 800.197L118.618 748.379L356.976 615.166L387.88 666.982ZM1004.88 591.127H526.253V531.293H1004.88V591.127ZM350.352 578.338H75.1211V518.504H350.353L350.352 578.338ZM961.362 361.316L723.005 494.531L692.1 442.713L930.457 309.5L961.362 361.316ZM394.541 431.558L363.636 483.375L125.279 350.161L156.185 298.343L394.541 431.558ZM804.952 183.243L667.336 413.976L613.807 384.059L751.423 153.326L804.952 183.243ZM477.715 377.681L424.186 407.597L286.569 176.864L340.099 146.948L477.715 377.681ZM577.577 371.232H515.767V104.804H577.577V371.232Z" fill="url(#paint1_linear_1359_11061)"/>
<defs>
<radialGradient id="paint0_radial_1359_11061" cx="0" cy="0" r="1" gradientTransform="matrix(-404.821 513.778 -530.765 -391.865 543.392 558.088)" gradientUnits="userSpaceOnUse">
<stop stop-color="#F6FFD2"/>
<stop offset="0.274038" stop-color="#E3FE79"/>
<stop offset="0.528846" stop-color="#30AFAA"/>
<stop offset="0.783654" stop-color="#60A2E3"/>
<stop offset="1" stop-color="#1D54C0"/>
</radialGradient>
<linearGradient id="paint1_linear_1359_11061" x1="520.597" y1="463.652" x2="1054.85" y2="1056.62" gradientUnits="userSpaceOnUse">
<stop stop-color="#9A298E"/>
<stop offset="1" stop-color="#C78B2D"/>
</linearGradient>
</defs>
</svg>
