<svg width="1080" height="1080" viewBox="0 0 1080 1080" fill="none" xmlns="http://www.w3.org/2000/svg">
<path d="M363.909 237.364H238.471L363.909 111.922V237.364ZM815.036 237.364H363.912V111.922H815.036V237.364Z" fill="#FAFAFA"/>
<path d="M363.909 237.364H238.471L363.909 111.922V237.364ZM815.036 237.364H363.912V111.922H815.036V237.364Z" fill="#FAFAFA"/>
<path d="M238.473 362.801V237.364L113.031 362.801H238.473ZM238.473 723.361L238.473 362.805H113.031L113.031 723.361H238.473ZM238.473 848.802L238.473 723.364H113.031L238.473 848.802Z" fill="#FAFAFA"/>
<path d="M238.473 362.801V237.364L113.031 362.801H238.473ZM238.473 723.361L238.473 362.805H113.031L113.031 723.361H238.473ZM238.473 848.802L238.473 723.364H113.031L238.473 848.802Z" fill="#FAFAFA"/>
<path d="M238.473 362.801V237.364L113.031 362.801H238.473ZM238.473 723.361L238.473 362.805H113.031L113.031 723.361H238.473ZM238.473 848.802L238.473 723.364H113.031L238.473 848.802Z" fill="url(#paint0_linear_1359_11077)"/>
<path d="M363.909 237.364H238.471L363.909 111.922V237.364ZM815.036 237.364H363.912V111.922H815.036V237.364Z" fill="#FAFAFA"/>
<path d="M363.909 237.364H238.471L363.909 111.922V237.364ZM815.036 237.364H363.912V111.922H815.036V237.364Z" fill="#FAFAFA"/>
<path d="M363.909 237.364H238.471L363.909 111.922V237.364ZM815.036 237.364H363.912V111.922H815.036V237.364Z" fill="url(#paint1_linear_1359_11077)"/>
<path d="M670.232 717.303L670.232 540.099L758.833 628.701L758.932 628.602L919.366 789.036L919.364 789.038L1008.06 877.736L830.668 877.734L830.666 877.736L670.232 717.303Z" fill="#FAFAFA"/>
<path d="M670.232 717.303L670.232 540.099L758.833 628.701L758.932 628.602L919.366 789.036L919.364 789.038L1008.06 877.736L830.668 877.734L830.666 877.736L670.232 717.303Z" fill="#FAFAFA"/>
<path d="M670.232 717.303L670.232 540.099L758.833 628.701L758.932 628.602L919.366 789.036L919.364 789.038L1008.06 877.736L830.668 877.734L830.666 877.736L670.232 717.303Z" fill="url(#paint2_linear_1359_11077)"/>
<path d="M363.072 973.221V973.24H714.07V847.799H363.072V847.803H237.65L363.072 973.221Z" fill="#FAFAFA"/>
<path d="M363.072 973.221V973.24H714.07V847.799H363.072V847.803H237.65L363.072 973.221Z" fill="#FAFAFA"/>
<path d="M363.072 973.221V973.24H714.07V847.799H363.072V847.803H237.65L363.072 973.221Z" fill="url(#paint3_linear_1359_11077)"/>
<path d="M267.605 572.998V817.268H420.195V572.998H267.605Z" fill="#FAFAFA"/>
<path d="M267.605 572.998V817.268H420.195V572.998H267.605Z" fill="#FAFAFA"/>
<path d="M267.605 572.998V817.268H420.195V572.998H267.605Z" fill="url(#paint4_linear_1359_11077)"/>
<path d="M267.605 572.997H420.195V420.412L267.605 572.997Z" fill="#FAFAFA"/>
<path d="M267.605 572.997H420.195V420.412L267.605 572.997Z" fill="#FAFAFA"/>
<path d="M267.605 572.997H420.195V420.412L267.605 572.997Z" fill="url(#paint5_linear_1359_11077)"/>
<path d="M572.781 267.822H817.051V420.412H572.781V267.822Z" fill="#FAFAFA"/>
<path d="M572.781 267.822H817.051V420.412H572.781V267.822Z" fill="#FAFAFA"/>
<path d="M572.781 267.822H817.051V420.412H572.781V267.822Z" fill="url(#paint6_linear_1359_11077)"/>
<path d="M572.781 267.822V420.412H420.195L572.781 267.822Z" fill="#FAFAFA"/>
<path d="M572.781 267.822V420.412H420.195L572.781 267.822Z" fill="#FAFAFA"/>
<path d="M572.781 267.822V420.412H420.195L572.781 267.822Z" fill="url(#paint7_linear_1359_11077)"/>
<defs>
<linearGradient id="paint0_linear_1359_11077" x1="113.031" y1="543.083" x2="238.473" y2="543.083" gradientUnits="userSpaceOnUse">
<stop stop-color="#D58C1A"/>
<stop offset="1" stop-color="#CD1616"/>
</linearGradient>
<linearGradient id="paint1_linear_1359_11077" x1="526.753" y1="111.922" x2="526.753" y2="237.364" gradientUnits="userSpaceOnUse">
<stop stop-color="#D58C1A"/>
<stop offset="1" stop-color="#CD1616"/>
</linearGradient>
<linearGradient id="paint2_linear_1359_11077" x1="750.497" y1="797.567" x2="839.197" y2="708.867" gradientUnits="userSpaceOnUse">
<stop stop-color="#D58C1A"/>
<stop offset="1" stop-color="#CD1616"/>
</linearGradient>
<linearGradient id="paint3_linear_1359_11077" x1="237.65" y1="910.52" x2="714.07" y2="910.52" gradientUnits="userSpaceOnUse">
<stop stop-color="#D58C1A"/>
<stop offset="1" stop-color="#CD1616"/>
</linearGradient>
<linearGradient id="paint4_linear_1359_11077" x1="267.605" y1="695.133" x2="420.195" y2="695.133" gradientUnits="userSpaceOnUse">
<stop stop-color="#D58C1A"/>
<stop offset="1" stop-color="#CD1616"/>
</linearGradient>
<linearGradient id="paint5_linear_1359_11077" x1="267.605" y1="496.704" x2="420.195" y2="496.704" gradientUnits="userSpaceOnUse">
<stop stop-color="#D58C1A"/>
<stop offset="1" stop-color="#CD1616"/>
</linearGradient>
<linearGradient id="paint6_linear_1359_11077" x1="694.916" y1="267.822" x2="694.916" y2="420.412" gradientUnits="userSpaceOnUse">
<stop stop-color="#D58C1A"/>
<stop offset="1" stop-color="#CD1616"/>
</linearGradient>
<linearGradient id="paint7_linear_1359_11077" x1="496.488" y1="267.822" x2="496.488" y2="420.412" gradientUnits="userSpaceOnUse">
<stop stop-color="#D58C1A"/>
<stop offset="1" stop-color="#CD1616"/>
</linearGradient>
</defs>
</svg>
