<svg xmlns="http://www.w3.org/2000/svg" style="display: none;">
  <symbol id="icon-gonka-logo" viewBox="0 0 44 44" fill="none">
    <path d="M22.0779 0.000895182C22.2017 6.07859 22.4682 12.1564 22.8218 18.234C23.2874 26.2385 26.7009 34.2436 29.0827 42.2481C29.1354 42.4251 29.185 42.6029 29.2367 42.7799C26.9701 43.5691 24.5355 44 22 44C19.4649 44 17.0305 43.5698 14.7642 42.7808C14.816 42.6034 14.8663 42.4255 14.9191 42.2481C17.3009 34.2436 20.7144 26.2385 21.18 18.234C21.5336 12.1564 21.7992 6.07859 21.923 0.000895182C21.9487 0.000807303 21.9743 0 22 0C22.026 0 22.0519 0.000805247 22.0779 0.000895182Z" fill="currentColor"/>
    <path d="M20.7262 21.2364C19.4639 28.1647 15.6505 35.0935 12.8718 42.0216C12.0526 41.6475 11.2603 41.2248 10.4987 40.7568C14.3095 34.2502 19.1923 27.7431 20.7262 21.2364Z" fill="currentColor"/>
    <path d="M23.2747 21.2364C24.8085 27.7426 29.6898 34.2498 33.5004 40.7559C32.739 41.2237 31.9472 41.6467 31.1282 42.0208C28.3495 35.093 24.5369 28.1642 23.2747 21.2364Z" fill="currentColor"/>
    <path d="M20.6062 0.0447591C20.5973 6.14511 20.5901 12.2455 20.5641 18.3459C20.5354 25.059 13.5075 31.7743 7.43628 38.4875C2.87637 34.4566 0 28.5647 0 22C0 10.3179 9.10536 0.763813 20.6062 0.0447591Z" fill="currentColor"/>
    <path d="M23.3938 0.0447591C34.8946 0.763813 44 10.3179 44 22C44 28.5649 41.123 34.4565 36.5628 38.4875C30.4919 31.7747 23.4655 25.0585 23.4368 18.3459C23.4108 12.2455 23.4027 6.14511 23.3938 0.0447591Z" fill="currentColor"/>
  </symbol>

  <symbol id="icon-discord" viewBox="0 0 24 24" fill="none">
    <path d="M18.9308 5.64149C17.6561 5.05658 16.2892 4.62565 14.8599 4.37884C14.8339 4.37408 14.8079 4.38598 14.7945 4.40979C14.6187 4.72247 14.4239 5.13039 14.2876 5.45101C12.7503 5.22087 11.221 5.22087 9.71527 5.45101C9.57887 5.12326 9.37707 4.72247 9.20048 4.40979C9.18707 4.38678 9.16107 4.37487 9.13504 4.37884C7.70659 4.62487 6.33963 5.0558 5.06411 5.64149C5.05307 5.64625 5.04361 5.65419 5.03732 5.6645C2.44449 9.53813 1.73421 13.3166 2.08265 17.0481C2.08423 17.0664 2.09447 17.0839 2.10867 17.095C3.81934 18.3512 5.47642 19.1139 7.10273 19.6194C7.12876 19.6274 7.15634 19.6179 7.1729 19.5964C7.55761 19.0711 7.90054 18.5171 8.19456 17.9346C8.21192 17.9005 8.19535 17.86 8.15989 17.8465C7.61594 17.6402 7.098 17.3886 6.59977 17.1029C6.56037 17.0799 6.55721 17.0235 6.59347 16.9965C6.69831 16.918 6.80318 16.8362 6.9033 16.7537C6.92141 16.7386 6.94665 16.7354 6.96794 16.745C10.2411 18.2393 13.7846 18.2393 17.0191 16.745C17.0404 16.7346 17.0657 16.7378 17.0846 16.7529C17.1847 16.8354 17.2895 16.918 17.3952 16.9965C17.4314 17.0235 17.4291 17.0799 17.3897 17.1029C16.8914 17.3941 16.3735 17.6402 15.8288 17.8457C15.7933 17.8592 15.7775 17.9005 15.7949 17.9346C16.0952 18.5163 16.4381 19.0702 16.8157 19.5956C16.8315 19.6179 16.8599 19.6274 16.8859 19.6194C18.5201 19.1139 20.1772 18.3512 21.8879 17.095C21.9028 17.0839 21.9123 17.0672 21.9139 17.0489C22.3309 12.7348 21.2154 8.98737 18.9568 5.66529C18.9513 5.65419 18.9419 5.64625 18.9308 5.64149ZM8.68335 14.776C7.69792 14.776 6.88594 13.8713 6.88594 12.7602C6.88594 11.6491 7.68217 10.7444 8.68335 10.7444C9.69239 10.7444 10.4965 11.6571 10.4807 12.7602C10.4807 13.8713 9.68451 14.776 8.68335 14.776ZM15.329 14.776C14.3435 14.776 13.5316 13.8713 13.5316 12.7602C13.5316 11.6491 14.3278 10.7444 15.329 10.7444C16.338 10.7444 17.1421 11.6571 17.1264 12.7602C17.1264 13.8713 16.338 14.776 15.329 14.776Z" fill="currentColor"/>
  </symbol>

  <symbol id="icon-twitter" viewBox="0 0 24 24" fill="none">
    <path d="M17.1761 3.8468H19.9362L13.9061 10.6242L21 19.8468H15.4456L11.0951 14.2534L6.11723 19.8468H3.35544L9.80517 12.5976L3 3.8468H8.69545L12.6279 8.95942L17.1761 3.8468ZM16.2073 18.2222H17.7368L7.86441 5.38608H6.2232L16.2073 18.2222Z" fill="currentColor"/>
  </symbol>

  <symbol id="icon-arrow" viewBox="0 0 16 17" fill="none">
    <path d="M3.5 13.5L10.5 6.5" stroke="currentColor" stroke-width="1.5"/>
    <path d="M3.83398 6.5H10.5007V13.1667" stroke="currentColor" stroke-width="1.5"/>
  </symbol>

  <symbol id="icon-menu" viewBox="0 0 24 24" fill="none">
    <path d="M3 12H21" stroke="currentColor" stroke-width="2" stroke-linecap="round"/>
    <path d="M3 6H21" stroke="currentColor" stroke-width="2" stroke-linecap="round"/>
    <path d="M3 18H21" stroke="currentColor" stroke-width="2" stroke-linecap="round"/>
  </symbol>

  <symbol id="icon-gonka-logo-footer" viewBox="0 0 42 41" fill="none">
    <g clip-path="url(#clip)">
      <mask id="mask" style="mask-type:alpha" maskUnits="userSpaceOnUse" x="0" y="0" width="42" height="41">
        <rect x="1.197" y="40.5882" width="40.1665" height="40.1665" rx="20.0833" transform="rotate(-90 1.197 40.5882)" fill="black" stroke="#242424" stroke-width="0.405723"/>
      </mask>
      <g mask="url(#mask)">
        <path d="M22.5127 0.235351C33.1434 0.871461 41.5684 9.6919 41.5684 20.4824C41.5684 26.5888 38.8696 32.0642 34.6006 35.7832C29.1348 29.6874 22.5788 23.5899 22.5527 17.4941C22.5282 11.7412 22.5213 5.98824 22.5127 0.235351ZM0.996093 20.4824C0.996093 9.69289 9.41951 0.872902 20.0488 0.235351C20.0402 5.98824 20.0343 11.7412 20.0098 17.4941C19.9837 23.5898 13.4276 29.6866 7.96191 35.7822C3.69384 32.0632 0.996093 26.5881 0.996093 20.4824Z" fill="#242424"/>
        <path d="M22.4092 20.0498C23.8706 26.2451 28.7674 32.4406 32.2178 38.6357C32.6559 39.4224 33.0707 40.2094 33.4521 40.9961L30.3291 40.9961C30.054 40.2094 29.7565 39.4224 29.4434 38.6357C26.9774 32.4405 23.5387 26.2451 22.4092 20.0498ZM9.11035 40.9961C9.49184 40.2094 9.9066 39.4224 10.3447 38.6357C13.7951 32.4406 18.6919 26.2451 20.1533 20.0498C19.0238 26.2451 15.5851 32.4405 13.1191 38.6357C12.806 39.4224 12.5085 40.2094 12.2334 40.9961L9.11035 40.9961Z" fill="#242424"/>
        <path d="M21.2812 -6.20605C21.2813 -5.87748 21.2813 -5.5489 21.2813 -5.22032C21.2813 -4.7622 21.2823 -4.30408 21.2844 -3.84595C21.3168 3.23436 21.5955 10.3147 22.0077 17.395C22.4199 24.4753 25.4417 31.5556 27.5501 38.6359C27.7844 39.4226 28.0074 40.2093 28.2143 40.996C23.5923 40.996 18.9702 40.996 14.3482 40.996C14.5551 40.2093 14.7781 39.4226 15.0124 38.6359C17.1208 31.5556 20.1426 24.4753 20.5548 17.395C20.967 10.3147 21.2457 3.23436 21.2781 -3.84595C21.2802 -4.30408 21.2813 -4.7622 21.2813 -5.22032C21.2813 -5.5489 21.2813 -5.87748 21.2812 -6.20605Z" fill="#242424"/>
      </g>
    </g>
    <defs>
      <clipPath id="clip">
        <rect width="41" height="41" fill="white" transform="translate(0.876953)"/>
      </clipPath>
    </defs>
  </symbol>

  <symbol id="icon-email" viewBox="0 0 24 24" fill="none">
    <path fill-rule="evenodd" clip-rule="evenodd" d="M4 4.25C2.48122 4.25 1.25 5.48122 1.25 7V17C1.25 18.5188 2.48122 19.75 4 19.75H20C21.5188 19.75 22.75 18.5188 22.75 17V7C22.75 5.48122 21.5188 4.25 20 4.25H4ZM7.4301 8.38558C7.09076 8.14804 6.62311 8.23057 6.38558 8.5699C6.14804 8.90924 6.23057 9.37689 6.5699 9.61442L11.5699 13.1144C11.8281 13.2952 12.1719 13.2952 12.4301 13.1144L17.4301 9.61442C17.7694 9.37689 17.852 8.90924 17.6144 8.5699C17.3769 8.23057 16.9092 8.14804 16.5699 8.38558L12 11.5845L7.4301 8.38558Z" fill="currentColor"/>
  </symbol>

  <symbol id="icon-github" viewBox="0 0 24 24" fill="none">
    <path fill-rule="evenodd" clip-rule="evenodd" d="M12.0083 2.16663C6.47396 2.16663 2 6.67357 2 12.2493C2 16.7062 4.86662 20.4789 8.84338 21.8142C9.34058 21.9146 9.5227 21.5973 9.5227 21.3303C9.5227 21.0966 9.50631 20.2954 9.50631 19.4606C6.72225 20.0616 6.14249 18.2587 6.14249 18.2587C5.69508 17.0901 5.03215 16.7898 5.03215 16.7898C4.12092 16.1721 5.09852 16.1721 5.09852 16.1721C6.1093 16.2389 6.63969 17.2071 6.63969 17.2071C7.53432 18.7427 8.97592 18.3088 9.55588 18.0417C9.63865 17.3907 9.90394 16.94 10.1856 16.6896C7.96514 16.4559 5.62891 15.5879 5.62891 11.715C5.62891 10.6132 6.02634 9.71186 6.65608 9.01082C6.55672 8.76048 6.20866 7.72532 6.75564 6.33985C6.75564 6.33985 7.60069 6.07271 9.5061 7.3748C10.3219 7.1541 11.1632 7.04183 12.0083 7.04088C12.8533 7.04088 13.7148 7.15786 14.5102 7.3748C16.4159 6.07271 17.2609 6.33985 17.2609 6.33985C17.8079 7.72532 17.4596 8.76048 17.3603 9.01082C18.0066 9.71186 18.3876 10.6132 18.3876 11.715C18.3876 15.5879 16.0514 16.4391 13.8143 16.6896C14.179 17.0067 14.4936 17.6076 14.4936 18.5592C14.4936 19.9113 14.4773 20.9964 14.4773 21.3301C14.4773 21.5973 14.6596 21.9146 15.1566 21.8144C19.1333 20.4787 22 16.7062 22 12.2493C22.0163 6.67357 17.526 2.16663 12.0083 2.16663Z" fill="currentColor"/>
  </symbol>

  <symbol id="icon-arrows" viewBox="0 0 29 31" fill="none" xmlns="http://www.w3.org/2000/svg">
    <path d="M14.2936 19.1088L11.4463 16.2617L-4.3203e-06 27.7074L2.84738 30.5546L14.2936 19.1088Z" fill="currentColor"/>
    <path d="M0.00128003 4.84718L2.84858 2.00001L14.2949 13.4457L11.4475 16.293L0.00128003 4.84718Z" fill="currentColor"/>
    <path d="M28.5886 19.1088L25.7413 16.2616L14.2949 27.7073L17.1423 30.5546L28.5886 19.1088Z" fill="currentColor"/>
    <path d="M14.2962 4.84718L17.1435 2.00001L28.5898 13.4457L25.7425 16.293L14.2962 4.84718Z" fill="currentColor"/>
  </symbol>
</svg>

</svg>
