<svg width="794" height="92" viewBox="0 0 794 92" fill="none" xmlns="http://www.w3.org/2000/svg">
<path d="M0.835449 92V21.6175H15.0798V28.153H15.5885C16.6738 26.7454 17.9965 25.4047 19.5566 24.1311C23.2194 21.4499 27.3231 20.1093 31.8677 20.1093C38.6507 20.1093 44.3146 22.623 48.8592 27.6503C53.4716 32.6106 55.7779 39.1461 55.7779 47.2568C55.7779 55.3676 53.4716 61.9366 48.8592 66.9639C44.3146 71.9242 38.6507 74.4044 31.8677 74.4044C27.3231 74.4044 23.2194 73.0637 19.5566 70.3825C17.9965 69.1089 16.6738 67.7683 15.5885 66.3606H15.0798V92H0.835449ZM18.7426 36.1967C16.3007 38.8109 15.0798 42.4976 15.0798 47.2568C15.0798 52.016 16.3007 55.7362 18.7426 58.4175C21.1845 61.0317 24.3725 62.3388 28.3067 62.3388C32.0373 62.3388 35.0897 60.9982 37.4637 58.3169C39.8378 55.6357 41.0248 51.949 41.0248 47.2568C41.0248 42.5647 39.8378 38.878 37.4637 36.1967C35.0897 33.5155 32.0373 32.1749 28.3067 32.1749C24.3725 32.1749 21.1845 33.5155 18.7426 36.1967Z" fill="black"/>
<path d="M63.4087 72.8962V21.6175H77.6531V29.1585H78.1618C78.7723 27.5497 79.688 26.1421 80.9089 24.9355C83.69 22.0532 87.1832 20.612 91.3887 20.612H97.498V34.1858H89.8625C85.9962 34.1858 82.9777 35.2248 80.8072 37.3027C78.7044 39.3137 77.6531 42.129 77.6531 45.7486V72.8962H63.4087Z" fill="black"/>
<path d="M107.7 66.5617C102.274 61.2663 99.5607 54.8313 99.5607 47.2568C99.5607 39.6823 102.274 33.2809 107.7 28.0525C113.127 22.757 119.91 20.1093 128.049 20.1093C136.121 20.1093 142.87 22.757 148.297 28.0525C153.791 33.2809 156.538 39.6823 156.538 47.2568C156.538 54.8313 153.791 61.2663 148.297 66.5617C142.87 71.7902 136.121 74.4044 128.049 74.4044C119.91 74.4044 113.127 71.7902 107.7 66.5617ZM118.282 36.3978C115.636 39.2131 114.314 42.8328 114.314 47.2568C114.314 51.6809 115.636 55.3005 118.282 58.1158C120.927 60.9311 124.183 62.3388 128.049 62.3388C131.916 62.3388 135.172 60.9311 137.817 58.1158C140.462 55.3005 141.785 51.6809 141.785 47.2568C141.785 42.8328 140.462 39.2131 137.817 36.3978C135.172 33.5825 131.916 32.1749 128.049 32.1749C124.183 32.1749 120.927 33.5825 118.282 36.3978Z" fill="black"/>
<path d="M167.969 66.9639C163.425 61.9366 161.152 55.3676 161.152 47.2568C161.152 39.1461 163.425 32.6106 167.969 27.6503C172.582 22.623 178.279 20.1093 185.062 20.1093C189.607 20.1093 193.711 21.4499 197.374 24.1311C198.934 25.4047 200.256 26.7454 201.342 28.153H201.85V0H216.095V72.8962H201.85V66.3606H201.342C200.256 67.7683 198.934 69.1089 197.374 70.3825C193.711 73.0637 189.607 74.4044 185.062 74.4044C178.279 74.4044 172.582 71.9242 167.969 66.9639ZM179.466 36.1967C177.092 38.878 175.905 42.5647 175.905 47.2568C175.905 51.949 177.092 55.6357 179.466 58.3169C181.84 60.9982 184.893 62.3388 188.624 62.3388C192.558 62.3388 195.746 61.0317 198.188 58.4175C200.629 55.7362 201.85 52.016 201.85 47.2568C201.85 42.4976 200.629 38.8109 198.188 36.1967C195.746 33.5155 192.558 32.1749 188.624 32.1749C184.893 32.1749 181.84 33.5155 179.466 36.1967Z" fill="black"/>
<path d="M226.269 52.7869V21.6175H240.514V50.776C240.514 54.5297 241.429 57.412 243.261 59.4229C245.16 61.3668 247.805 62.3388 251.197 62.3388C254.588 62.3388 257.471 61.0652 259.845 58.518C262.219 55.9709 263.406 52.7199 263.406 48.765V21.6175H277.651V72.8962H263.406V65.8579H262.897C262.084 67.3996 260.829 68.8408 259.133 70.1814C255.47 72.9967 251.299 74.4044 246.618 74.4044C240.174 74.4044 235.155 72.561 231.56 68.8743C228.033 65.1876 226.269 59.8251 226.269 52.7869Z" fill="black"/>
<path d="M292.834 66.5617C287.476 61.2663 284.797 54.8313 284.797 47.2568C284.797 39.6823 287.476 33.2809 292.834 28.0525C298.261 22.757 304.908 20.1093 312.776 20.1093C322.205 20.1093 329.395 23.4608 334.346 30.1639C336.585 33.0463 338.213 36.3978 339.23 40.2186H324.477C323.867 38.7439 323.053 37.4033 322.035 36.1967C319.458 33.5155 316.371 32.1749 312.776 32.1749C309.181 32.1749 306.061 33.5825 303.416 36.3978C300.838 39.2131 299.55 42.8328 299.55 47.2568C299.55 51.6809 300.838 55.3005 303.416 58.1158C306.061 60.9311 309.181 62.3388 312.776 62.3388C316.371 62.3388 319.458 60.9982 322.035 58.3169C323.053 57.1104 323.867 55.7698 324.477 54.2951H339.23C338.281 58.1829 336.721 61.5344 334.55 64.3497C329.598 71.0528 322.341 74.4044 312.776 74.4044C304.908 74.4044 298.261 71.7902 292.834 66.5617Z" fill="black"/>
<path d="M342.279 35.6831V21.6175H348.892V0H363.136V21.6175H419.101V35.6831H363.136V58.8306H419.101V72.8962H348.892V35.6831H342.279Z" fill="black"/>
<path d="M422.614 56.306H437.367C437.842 57.5126 438.588 58.6186 439.606 59.624C441.776 61.769 444.761 62.8415 448.559 62.8415C454.325 62.8415 457.208 61.1658 457.208 57.8142C457.208 57.278 457.072 56.8087 456.801 56.4066C456.529 55.9373 456.054 55.5352 455.376 55.2C454.698 54.7978 454.053 54.4627 453.443 54.1945C452.833 53.9264 451.917 53.6583 450.696 53.3902C449.543 53.055 448.593 52.8204 447.847 52.6863C447.169 52.5523 446.05 52.3177 444.489 51.9825C442.997 51.6474 441.912 51.4127 441.234 51.2787C430.516 48.9996 425.158 43.8047 425.158 35.694C425.158 31.404 427.091 27.7508 430.957 24.7344C434.891 21.651 440.25 20.1093 447.033 20.1093C456.122 20.1093 462.939 22.8911 467.484 28.4546C469.451 30.8678 470.774 33.616 471.452 36.6995H457.208C456.733 35.694 456.122 34.8561 455.376 34.1858C453.273 32.51 450.492 31.6721 447.033 31.6721C444.591 31.6721 442.794 32.0743 441.641 32.8787C440.487 33.616 439.911 34.5545 439.911 35.694C439.911 36.0962 439.979 36.4984 440.114 36.9006C440.318 37.2357 440.623 37.5709 441.03 37.906C441.437 38.1741 441.844 38.4423 442.251 38.7104C442.658 38.9115 443.235 39.1461 443.981 39.4142C444.727 39.6153 445.371 39.8164 445.914 40.0175C446.524 40.2186 447.304 40.4197 448.254 40.6208C449.204 40.8219 450.018 40.9894 450.696 41.1235C451.374 41.2576 452.256 41.4586 453.341 41.7268C454.427 41.9279 455.308 42.0954 455.987 42.2295C466.636 44.5756 471.961 49.7705 471.961 57.8142C471.961 62.3053 469.858 66.1931 465.652 69.4776C461.447 72.7621 455.749 74.4044 448.559 74.4044C438.927 74.4044 431.805 71.388 427.193 65.3552C425.09 62.6069 423.564 59.5905 422.614 56.306Z" fill="black"/>
<path d="M484.096 66.5617C478.738 61.2663 476.058 54.8313 476.058 47.2568C476.058 39.6823 478.738 33.2809 484.096 28.0525C489.523 22.757 496.17 20.1093 504.038 20.1093C513.467 20.1093 520.657 23.4608 525.608 30.1639C527.847 33.0463 529.474 36.3978 530.492 40.2186H515.739C515.128 38.7439 514.314 37.4033 513.297 36.1967C510.719 33.5155 507.633 32.1749 504.038 32.1749C500.443 32.1749 497.323 33.5825 494.678 36.3978C492.1 39.2131 490.811 42.8328 490.811 47.2568C490.811 51.6809 492.1 55.3005 494.678 58.1158C497.323 60.9311 500.443 62.3388 504.038 62.3388C507.633 62.3388 510.719 60.9982 513.297 58.3169C514.314 57.1104 515.128 55.7698 515.739 54.2951H530.492C529.542 58.1829 527.982 61.5344 525.812 64.3497C520.86 71.0528 513.602 74.4044 504.038 74.4044C496.17 74.4044 489.523 71.7902 484.096 66.5617Z" fill="black"/>
<path d="M538.933 12.8699C537.373 11.3282 536.593 9.55191 536.593 7.54098C536.593 5.53005 537.373 3.78725 538.933 2.31257C540.561 0.770855 542.494 0 544.732 0C546.971 0 548.87 0.770855 550.43 2.31257C552.058 3.78725 552.872 5.53005 552.872 7.54098C552.872 9.55191 552.058 11.3282 550.43 12.8699C548.87 14.3446 546.971 15.082 544.732 15.082C542.494 15.082 540.561 14.3446 538.933 12.8699ZM537.61 72.8962V21.6175H551.854V72.8962H537.61Z" fill="black"/>
<path d="M567.014 66.5617C561.656 61.2663 558.977 54.8313 558.977 47.2568C558.977 39.6823 561.656 33.2809 567.014 28.0525C572.441 22.757 579.088 20.1093 586.957 20.1093C594.961 20.1093 601.54 22.7235 606.695 27.9519C611.85 33.1803 614.428 39.6153 614.428 47.2568V50.2732H573.73C574.272 53.6248 575.798 56.4736 578.308 58.8197C580.818 61.1658 583.701 62.3388 586.957 62.3388C590.552 62.3388 593.638 61.3333 596.215 59.3224C597.233 58.451 598.047 57.4455 598.657 56.306H613.919C612.766 59.7246 611.07 62.741 608.832 65.3552C603.405 71.388 596.114 74.4044 586.957 74.4044C579.088 74.4044 572.441 71.7902 567.014 66.5617ZM574.238 41.7268H599.166C598.623 39.0455 597.233 36.8 594.994 34.9902C592.824 33.1133 590.145 32.1749 586.957 32.1749C583.769 32.1749 581.055 33.0798 578.817 34.8896C576.579 36.6995 575.052 38.9785 574.238 41.7268Z" fill="black"/>
<path d="M622.019 72.8962V21.6175H636.263V28.6557H636.772C637.654 27.114 638.909 25.7064 640.537 24.4328C644.267 21.5505 648.439 20.1093 653.051 20.1093C659.495 20.1093 664.481 21.9526 668.008 25.6393C671.603 29.326 673.4 34.6885 673.4 41.7268V72.8962H659.156V43.7377C659.156 39.984 658.206 37.1352 656.307 35.1913C654.476 33.1803 651.864 32.1749 648.473 32.1749C645.081 32.1749 642.198 33.4485 639.824 35.9956C637.45 38.5428 636.263 41.7938 636.263 45.7486V72.8962H622.019Z" fill="black"/>
<path d="M688.087 66.5617C682.729 61.2663 680.049 54.8313 680.049 47.2568C680.049 39.6823 682.729 33.2809 688.087 28.0525C693.514 22.757 700.161 20.1093 708.029 20.1093C717.458 20.1093 724.648 23.4608 729.599 30.1639C731.838 33.0463 733.466 36.3978 734.483 40.2186H719.73C719.12 38.7439 718.306 37.4033 717.288 36.1967C714.711 33.5155 711.624 32.1749 708.029 32.1749C704.434 32.1749 701.314 33.5825 698.669 36.3978C696.091 39.2131 694.802 42.8328 694.802 47.2568C694.802 51.6809 696.091 55.3005 698.669 58.1158C701.314 60.9311 704.434 62.3388 708.029 62.3388C711.624 62.3388 714.711 60.9982 717.288 58.3169C718.306 57.1104 719.12 55.7698 719.73 54.2951H734.483C733.533 58.1829 731.973 61.5344 729.803 64.3497C724.851 71.0528 717.593 74.4044 708.029 74.4044C700.161 74.4044 693.514 71.7902 688.087 66.5617Z" fill="black"/>
<path d="M746.587 66.5617C741.228 61.2663 738.549 54.8313 738.549 47.2568C738.549 39.6823 741.228 33.2809 746.587 28.0525C752.013 22.757 758.661 20.1093 766.529 20.1093C774.533 20.1093 781.112 22.7235 786.267 27.9519C791.423 33.1803 794 39.6153 794 47.2568V50.2732H753.302C753.845 53.6248 755.371 56.4736 757.881 58.8197C760.39 61.1658 763.273 62.3388 766.529 62.3388C770.124 62.3388 773.21 61.3333 775.788 59.3224C776.805 58.451 777.619 57.4455 778.23 56.306H793.491C792.338 59.7246 790.642 62.741 788.404 65.3552C782.978 71.388 775.686 74.4044 766.529 74.4044C758.661 74.4044 752.013 71.7902 746.587 66.5617ZM753.811 41.7268H778.738C778.196 39.0455 776.805 36.8 774.567 34.9902C772.396 33.1133 769.717 32.1749 766.529 32.1749C763.341 32.1749 760.628 33.0798 758.389 34.8896C756.151 36.6995 754.625 38.9785 753.811 41.7268Z" fill="black"/>
</svg>
