<svg width="90" height="33" viewBox="0 0 90 33" fill="none" xmlns="http://www.w3.org/2000/svg">
<path fill-rule="evenodd" clip-rule="evenodd" d="M19.2618 8.54774L19.294 8.511L17.3729 7.46576L16.6391 7.04572L18.1017 3.38739L14.6515 4.28638L14.6536 4.31757L14.6074 4.30232L6.57763 17.1599L3.77173 12.3953L4.52089 11.1089L9.60719 8.19701L9.6016 8.17552L11.2089 7.2703L13.49 3.68752L13.0274 1.5L11.1712 4.30232L8.44846 3.20579L7.76778 3.44908L8.44846 4.24133L9.12915 5.64214V6.57786L8.73779 6.88076L3.36079 9.95825L0 15.7306V22.395L3.36079 28.1674L9.18227 31.5H15.9039L21.7253 28.1674L25.0861 22.395V15.7306L21.7253 9.95825L19.2618 8.54774ZM14.8374 6.80036L14.915 7.85322L15.4859 8.17344L15.4797 8.19632L20.5659 11.1082L21.241 12.2671H17.0905L17.0856 12.2581L17.0709 12.2671H11.4234L14.8374 6.80036ZM10.48 13.7753H16.2093L19.1556 18.8726L16.3378 23.6745H10.4136L7.4449 18.6341L10.48 13.7753ZM2.57389 23.6745L1.58361 21.9744V16.1513L2.89536 13.8987L8.65253 23.6745H2.57389ZM9.60649 29.9287L4.52019 27.0168L3.45235 25.1828H15.4531L12.6682 29.9287H9.60649ZM20.5659 27.0175L15.4797 29.9294H14.4279L20.0292 20.3836L22.2215 24.175L20.5659 27.0175ZM23.5025 16.1513V21.9744L23.1006 22.664L17.9627 13.7753H22.1195L23.5025 16.1513Z" fill="#808080"/>
<path fill-rule="evenodd" clip-rule="evenodd" d="M59.1288 13.0648L56.673 26.1878H58.6039L61.0598 13.0648H59.1288Z" fill="#808080"/>
<path fill-rule="evenodd" clip-rule="evenodd" d="M90 16.3454H87.937L83.8857 20.9741H83.85L85.3372 13.0648H83.2365L80.7807 26.1878H82.8814L83.7425 21.5772H83.7781L86.2877 26.1878H88.733L85.614 21.1696L90 16.3454Z" fill="#808080"/>
<path fill-rule="evenodd" clip-rule="evenodd" d="M38.4154 16.2484L41.3624 11.7244L39.6419 11.5448L36.5676 16.2484H36.5571L33.2795 21.2403L35.8282 26.2322H41.6741L44.9518 21.2403L42.403 16.2484H38.4154ZM40.8873 24.6872H36.8415L35.1175 21.311L37.4091 17.7934H41.3904L43.1501 21.2403L40.8873 24.6872Z" fill="#808080"/>
<path fill-rule="evenodd" clip-rule="evenodd" d="M77.6603 24.5251H73.7257L72.0338 21.2119L72.0597 21.1724L72.0394 21.1329L74.215 17.8197H78.1495L78.6638 18.8268L80.5508 18.7949L79.2991 16.1805H73.4532L71.235 19.5588L69.5102 16.1805H63.6657L60.3881 21.1724L62.9368 26.1643H68.7827L71.0009 22.786L72.7257 26.1643H78.5717L80.641 23.0127L78.5108 23.0626L77.6603 24.5251ZM70.1909 21.2001L67.9735 24.577H63.9774L62.2387 21.1724L64.4743 17.7678H68.4703L70.1944 21.1447L70.1762 21.1724L70.1909 21.2001Z" fill="#808080"/>
<path fill-rule="evenodd" clip-rule="evenodd" d="M54.2913 18.4429H53.2577L53.2549 18.4471L48.2791 18.4596L48.9569 14.7867L49.2707 12.9763L47.4593 12.9665L45.0147 26.2691L54.0083 26.2504L56.4172 22.5615L54.7134 19.2442L54.2913 18.4429ZM53.2703 24.5203L47.1895 24.5355L47.9275 20.0781L53.4129 20.0642L54.5002 22.5657L53.2703 24.5203Z" fill="#808080"/>
</svg>
