<svg width="90" height="33" viewBox="0 0 90 33" fill="none" xmlns="http://www.w3.org/2000/svg">
<path d="M15.7148 7.99951C15.9789 7.99633 16.2389 8.06285 16.4688 8.19189C16.6986 8.32094 16.8903 8.50769 17.0234 8.73388C17.3115 9.21274 17.3178 9.81392 17.041 10.2983L10.2422 22.2417L10.7012 21.436H15.4805L13.6162 18.1587L13.9238 17.6196L15.3584 15.0991L19.4014 22.2026C19.6714 22.6768 19.6714 23.2608 19.4014 23.7329C19.272 23.9645 19.0823 24.1578 18.8525 24.2925C18.6228 24.4271 18.3606 24.4978 18.0938 24.4985H10.5752C9.8789 24.4983 9.43747 23.759 9.73633 23.1382C9.43684 23.7596 9.87815 24.5003 10.5742 24.5005H7.10645C6.83134 24.5004 6.59541 24.3849 6.42676 24.2065C6.40641 24.1843 6.38589 24.1614 6.36621 24.1382C6.29157 24.0408 6.23523 23.9303 6.2002 23.813C6.19379 23.7905 6.18896 23.7677 6.18457 23.7456C6.18088 23.729 6.17685 23.7124 6.17383 23.6958C6.17283 23.6893 6.17283 23.6856 6.1709 23.6792C6.16988 23.6725 6.16958 23.6648 6.16992 23.6577C6.16693 23.6432 6.16607 23.6302 6.16406 23.6147C6.1486 23.4217 6.1919 23.228 6.28906 23.0601L14.4248 8.76513C14.5524 8.53588 14.7393 8.34399 14.9658 8.20947C15.1924 8.07503 15.4508 8.00269 15.7148 7.99951Z" fill="#808080"/>
<path d="M9.80273 6.86669C10.3431 6.86671 10.8413 7.15804 11.1084 7.63232L12.1943 9.54052C12.1265 9.4272 12.029 9.3334 11.9131 9.26904C11.797 9.20468 11.6652 9.17128 11.5322 9.17334C11.3994 9.17546 11.2692 9.21291 11.1553 9.28076C11.0779 9.32689 11.0109 9.38706 10.9551 9.45654C11.0106 9.38777 11.0776 9.32849 11.1543 9.28271C11.2682 9.21476 11.3983 9.1774 11.5312 9.17529C11.6643 9.17323 11.796 9.20653 11.9121 9.27099C12.028 9.33539 12.1246 9.42911 12.1924 9.54248L13.0869 11.1138L13.0879 11.1128L11.3457 14.1743L9.80176 11.4634L10.8828 9.56298C10.8921 9.54619 10.9025 9.53012 10.9131 9.51416C10.9031 9.52931 10.8927 9.54416 10.8838 9.56005L9.80273 11.4614L9.50195 11.9878L2.81836 23.7329C2.68589 23.9641 2.49565 24.1578 2.26562 24.2944C2.03978 24.4259 1.78047 24.4985 1.50977 24.4985C1.24272 24.4976 0.980959 24.4261 0.750977 24.2915C0.521 24.1569 0.331073 23.9643 0.201172 23.7329C0.0692795 23.4991 0 23.2352 0 22.9673C5.99602e-05 22.6995 0.0694145 22.4363 0.201172 22.2026L8.49414 7.63232C8.62405 7.40093 8.81398 7.20834 9.04395 7.07373C9.27392 6.93912 9.5357 6.86763 9.80273 6.86669Z" fill="#808080"/>
<path fill-rule="evenodd" clip-rule="evenodd" d="M63.6758 24.231H62.5879V21.727C61.6957 23.3881 60.0212 24.4673 57.9111 24.4673C54.8009 24.4672 52.2783 22.0296 52.2783 18.8364C52.2785 15.6434 54.801 13.2056 57.9111 13.2056C60.0212 13.2056 61.6957 14.2847 62.5879 15.9458V9.12841H63.6758V24.231ZM57.9766 14.2417C55.3879 14.2417 53.3654 16.2688 53.3652 18.8364C53.3652 21.4041 55.3883 23.4321 57.9766 23.4321C60.5653 23.4321 62.5879 21.4041 62.5879 18.8364C62.5878 16.2688 60.5652 14.2417 57.9766 14.2417Z" fill="#808080"/>
<path fill-rule="evenodd" clip-rule="evenodd" d="M72.3682 13.2056C75.6741 13.2056 77.7401 15.924 77.7402 18.8794C77.7402 19.0522 77.7188 19.2247 77.7188 19.397H67.8652C68.1262 21.8352 69.997 23.4321 72.4766 23.4321C74.2603 23.4321 75.6086 22.612 76.2393 21.4683L77.1973 22.0298C76.3052 23.4961 74.6083 24.4672 72.4551 24.4673C69.1057 24.4673 66.7344 22.0944 66.7344 18.8364C66.7345 15.6651 69.0403 13.2056 72.3682 13.2056ZM72.3682 14.2417C69.8886 14.2417 68.0825 15.9452 67.8652 18.3403H76.6094C76.3697 15.7081 74.4995 14.2417 72.3682 14.2417Z" fill="#808080"/>
<path fill-rule="evenodd" clip-rule="evenodd" d="M43.0674 24.231H39.2607L38.499 21.8569H32.8438L32.082 24.231H28.2764L33.4521 9.12841H37.8896L43.0674 24.231ZM33.8877 18.6206H37.4551L35.6709 13.0767L33.8877 18.6206Z" fill="#808080"/>
<path d="M48.8252 24.231H45.5625V13.9819H48.8252V24.231Z" fill="#808080"/>
<path d="M85.7803 13.2056C88.3684 13.2056 89.9998 14.9096 90 17.52V24.231H88.8906V17.52C88.8904 15.5356 87.7379 14.2418 85.6934 14.2417C83.5619 14.2417 81.8867 15.6221 81.8867 18.5347V24.231H80.7988V13.4429H81.8867V15.4927C82.7131 13.8959 84.1056 13.2056 85.7803 13.2056Z" fill="#808080"/>
<path d="M47.1934 9.1499C48.2587 9.14994 49.1512 10.0341 49.1514 11.0913C49.1514 12.1481 48.2593 13.0336 47.1934 13.0337C46.1274 13.0337 45.2354 12.1481 45.2354 11.0913C45.2355 10.0341 46.1275 9.1499 47.1934 9.1499Z" fill="#808080"/>
<path d="M16.3926 5.7915C16.5268 4.95345 17.3052 4.38426 18.1309 4.52002C18.9577 4.65653 19.5188 5.44634 19.3848 6.28466C19.2507 7.12253 18.4714 7.69166 17.6455 7.55615C16.8189 7.4194 16.2585 6.62972 16.3926 5.7915Z" fill="#808080"/>
</svg>
