<svg width="102" height="33" viewBox="0 0 102 33" fill="none" xmlns="http://www.w3.org/2000/svg">
<path d="M68.333 20.7776C68.333 22.6976 69.0865 23.4038 71.1303 23.4038C73.1738 23.4037 73.9268 22.6975 73.9268 20.7776V11.9411H76.465V20.8365C76.465 24.089 74.873 25.5 71.087 25.5C67.3219 25.5 65.7081 24.089 65.7081 20.8365V11.9411H68.333V20.7776Z" fill="#808080"/>
<path fill-rule="evenodd" clip-rule="evenodd" d="M14.6297 25.2645L0 25.2653V16.3822H4.87625V11.9411H14.6297V25.2645ZM4.87625 20.8233H9.75342V16.3822H4.87625V20.8233Z" fill="#808080"/>
<path fill-rule="evenodd" clip-rule="evenodd" d="M30.1494 11.9411C33.4622 11.9412 34.9684 13.0189 34.9684 15.4093C34.9684 16.8787 34.3871 17.7995 33.0104 18.2499V18.2895C34.7314 18.7599 35.4416 19.7986 35.4416 21.5423C35.4414 24.109 33.9354 25.2652 30.6013 25.2653H24.384V11.9411H30.1494ZM27.008 23.1876H30.1706C32.1066 23.1876 32.8167 22.6785 32.8167 21.3656C32.8167 20.0138 32.0636 19.5243 29.9123 19.5243H27.008V23.1876ZM27.008 17.4466H29.8266C31.698 17.4466 32.3647 16.9962 32.3647 15.723C32.3647 14.4689 31.6981 14.018 29.9123 14.018H27.008V17.4466Z" fill="#808080"/>
<path d="M40.4322 25.2653H37.8073V11.9411H40.4322V25.2653Z" fill="#808080"/>
<path d="M64.1383 14.0382H57.1251V17.4861H63.0629V19.5823H57.1251V25.2653H54.5002V11.9411H64.1383V14.0382Z" fill="#808080"/>
<path fill-rule="evenodd" clip-rule="evenodd" d="M84.6182 11.9411C88.0814 11.9412 89.4796 13.1361 89.4797 16.0359C89.4797 18.2501 88.641 19.4655 86.6832 19.9163L90.0395 25.2653H87.0272L83.8434 20.1114H81.4334V25.2653H78.8095V11.9411H84.6182ZM81.4334 18.0346H84.3599C86.2099 18.0346 86.8548 17.4661 86.8548 16.0359C86.8547 14.5861 86.2099 14.0373 84.3599 14.0373H81.4334V18.0346Z" fill="#808080"/>
<path d="M95.8473 17.2312L99.1814 11.9411H102L97.0518 19.6025V25.2653H94.4269V19.6412L89.4787 11.9411H92.491L95.8473 17.2312Z" fill="#808080"/>
<path d="M52.887 14.0769H48.7782V25.2645H46.1542V14.0769H42.0453V11.9411H52.887V14.0769Z" fill="#808080"/>
<path d="M4.87625 11.9411H0V7.5H4.87625V11.9411Z" fill="#808080"/>
</svg>
