<svg width="112" height="33" viewBox="0 0 112 33" fill="none" xmlns="http://www.w3.org/2000/svg">
<path fill-rule="evenodd" clip-rule="evenodd" d="M10.4611 6.51715C10.3681 6.49432 10.2559 6.49432 10.1629 6.51715L4.06907 8.33744L4.0659 8.33848C3.78048 8.43183 3.64072 8.71331 3.71016 8.98584L3.71175 8.99209L3.714 8.99815C3.80717 9.24956 4.09054 9.41803 4.38125 9.32397L10.3209 7.55258L16.3879 9.37742C16.6814 9.47244 16.9649 9.30017 17.0565 9.03064C17.1541 8.74335 16.9794 8.46435 16.7035 8.37409L10.4673 6.51865L10.4611 6.51715ZM1.22802 9.64191C1.19989 9.43012 1.31646 9.22258 1.49654 9.11657L1.50276 9.11291L1.50938 9.10996C1.56951 9.08314 1.6323 9.06753 1.69505 9.06256C1.74687 9.05539 1.80091 9.0558 1.85585 9.06478C2.07735 9.10101 2.24304 9.26431 2.28469 9.46705L5.77078 16.1416H15.0094C15.0282 16.1416 15.0468 16.1426 15.0651 16.1445L18.3557 9.47779C18.3813 9.34075 18.4648 9.22123 18.5885 9.14977C18.7387 9.04811 18.9406 9.03236 19.1146 9.10996C19.2886 9.18757 19.3877 9.34253 19.4061 9.50965L19.5137 10.1258C19.5383 10.2337 19.6433 10.9521 19.6433 12.0403C19.6433 13.1183 19.5335 14.537 19.1308 16.1353C18.7464 17.6442 18.0503 19.4601 16.7858 21.2402C15.5213 23.0203 13.6895 24.7811 11.0545 26.1638L11.0537 26.1642L10.5661 26.43L10.5654 26.4304C10.3994 26.5232 10.2245 26.5232 10.0585 26.4304L10.0578 26.43L9.57027 26.1642L9.56944 26.1638C6.9344 24.7811 5.10262 23.0203 3.83814 21.2402C2.57404 19.4606 1.87757 17.6449 1.5291 16.1161C1.12671 14.5183 1.01694 13.0822 1.01694 12.0225C1.01694 10.9342 1.12195 10.2158 1.14658 10.108L1.22802 9.64191ZM6.31055 17.1751H14.5048L10.3234 24.8581L6.31055 17.1751ZM2.08647 11.3486C2.07725 11.5501 2.07122 11.7759 2.07122 12.0225C2.07122 13.014 2.16147 14.3763 2.53991 15.8615C2.90039 17.294 3.54913 18.9736 4.71984 20.6348C5.71834 22.0364 7.09728 23.439 9.02575 24.6338L2.08647 11.3486ZM11.6438 24.6139C13.5483 23.4269 14.93 22.0428 15.9221 20.635C17.0928 18.9739 17.7416 17.2768 18.1022 15.8615C18.4806 14.3763 18.5709 13.014 18.5709 12.0225C18.5709 11.8024 18.5661 11.5989 18.5585 11.4145L16.009 16.5797V16.6001L11.6438 24.6139Z" fill="#808080"/>
<path fill-rule="evenodd" clip-rule="evenodd" d="M10.2159 6.87838L4.24169 8.66296L4.24093 8.66321C4.06178 8.72179 3.96956 8.8963 4.01392 9.07651C4.07623 9.23998 4.25614 9.33805 4.43153 9.2813L4.43363 9.28062L10.3213 7.52473L16.3338 9.33316L16.3357 9.33378C16.5107 9.39044 16.6919 9.29294 16.754 9.11009C16.8124 8.93803 16.7134 8.76047 16.5286 8.69889L10.4143 6.87973L10.4128 6.87936C10.353 6.86468 10.2765 6.86435 10.2159 6.87838ZM10.5045 6.52234L10.5151 6.52493L16.6435 8.34829L16.6459 8.34909C17.0015 8.46538 17.2443 8.83484 17.1114 9.22609C16.994 9.5718 16.6196 9.81227 16.2193 9.68386L10.3208 7.90973L4.54763 9.63148C4.15419 9.75742 3.78012 9.52656 3.65868 9.19888L3.65316 9.18397L3.64924 9.16859C3.55911 8.81487 3.74124 8.43847 4.12141 8.31413L4.12687 8.31234L10.1155 6.52347L10.1201 6.52234C10.2415 6.49255 10.3831 6.49255 10.5045 6.52234ZM1.83316 9.01643C1.90133 9.00756 1.97183 9.00846 2.04285 9.02008C2.32849 9.06679 2.54656 9.27297 2.61131 9.53358L5.96997 15.9641H14.8611L18.0282 9.54761C18.0679 9.37485 18.1766 9.22351 18.3349 9.12996C18.5388 8.99496 18.8048 8.97761 19.0311 9.07851C19.266 9.18326 19.3994 9.39242 19.4256 9.61254L19.5296 10.2081C19.5594 10.3456 19.6603 11.0608 19.6603 12.1224C19.6603 13.1925 19.5512 14.6003 19.1518 16.186C18.7701 17.6838 18.0786 19.4884 16.8217 21.2579C15.5646 23.0276 13.7447 24.7762 11.1307 26.1479L11.1294 26.1486L10.6555 26.4069L10.6548 26.4073C10.4339 26.5307 10.1909 26.5309 9.97007 26.4074L9.96924 26.407L9.49513 26.1486L9.49436 26.1481C6.8803 24.7764 5.05998 23.0276 3.8029 21.2579C2.54691 19.4898 1.85448 17.6856 1.5077 16.1652C1.10885 14.5806 1 13.1566 1 12.1049C1 11.0433 1.10081 10.3282 1.13065 10.1906L1.20551 9.76217C1.1815 9.48586 1.33562 9.22801 1.56192 9.09479L1.57724 9.08576L1.59351 9.07851C1.67081 9.04404 1.75182 9.0235 1.83316 9.01643ZM1.9807 9.38313C1.94581 9.37742 1.91214 9.37726 1.88031 9.38166L1.87476 9.38242L1.86918 9.38286C1.83031 9.38595 1.79114 9.39544 1.75316 9.41193C1.63585 9.48259 1.56535 9.61714 1.58225 9.74443L1.5859 9.77185L1.5004 10.2612L1.49936 10.2657C1.47932 10.3535 1.37663 11.0439 1.37663 12.1049C1.37663 13.1332 1.48319 14.5278 1.8739 16.0792L1.8744 16.0811L1.87486 16.0831C2.21233 17.5638 2.88714 19.3233 4.11228 21.048C5.33758 22.7729 7.11371 24.4811 9.67252 25.8238L9.67597 25.8256L10.1563 26.0876L10.157 26.0879C10.262 26.1466 10.3626 26.1466 10.4676 26.0879L10.4701 26.0865L10.9513 25.8242L10.9521 25.8238C13.5109 24.4811 15.287 22.7729 16.5123 21.048C17.7378 19.3228 18.413 17.5621 18.7862 16.0975C19.177 14.5458 19.2836 13.1683 19.2836 12.1224C19.2836 11.0614 19.1809 10.371 19.1609 10.2832L19.1599 10.2787L19.0524 9.66364L19.0518 9.65795C19.0402 9.55219 18.9794 9.46005 18.8747 9.41339C18.7615 9.36287 18.6341 9.3752 18.5437 9.43636L18.5381 9.44012L18.5323 9.44349C18.4589 9.48587 18.4088 9.55686 18.3932 9.64013L18.3886 9.66459L15.0898 16.348L14.9577 16.334C14.9464 16.3328 14.935 16.3322 14.9233 16.3322H5.73936L2.25321 9.65757L2.2481 9.6327C2.22244 9.50779 2.12027 9.40596 1.9807 9.38313ZM2.08188 10.7394L9.53062 24.9999L8.94895 24.6395C7.0332 23.4526 5.66184 22.0583 4.66853 20.6639L4.66798 20.6631C3.50355 19.0108 2.85863 17.3407 2.50043 15.9174C2.12434 14.4411 2.03487 13.0884 2.03487 12.1049C2.03487 11.8599 2.04087 11.6355 2.05004 11.4352L2.08188 10.7394ZM18.565 10.7646L18.5952 11.5006C18.6028 11.684 18.6076 11.8863 18.6076 12.1049C18.6076 13.0885 18.518 14.4414 18.1419 15.9177C17.7837 17.3234 17.1389 19.0108 15.9743 20.6633C14.9865 22.065 13.612 23.4411 11.721 24.6198L11.1167 24.9965L15.7162 16.5524V16.5362L18.565 10.7646ZM2.41168 12.1803C2.41623 13.1361 2.5087 14.4265 2.86598 15.8288C3.21548 17.2176 3.84422 18.8451 4.9779 20.4539C5.83878 21.6623 6.99195 22.8721 8.55439 23.9405L2.41168 12.1803ZM16.0928 16.6203V16.6443L12.1392 23.9026C13.6705 22.8473 14.8152 21.6591 15.6641 20.4545C16.7977 18.846 17.4266 17.2016 17.7764 15.8288C18.1202 14.4798 18.2188 13.2343 18.2298 12.2907L16.0928 16.6203ZM6.07695 16.9786H14.7415L10.3201 25.1025L6.07695 16.9786ZM6.69204 17.3467L10.327 24.3061L14.1145 17.3467H6.69204Z" fill="#808080"/>
<path d="M37.8437 12.6365H29.4254C29.2772 12.6365 29.1538 12.685 29.0304 12.8061C28.9316 12.903 28.8576 13.0483 28.8576 13.1936V19.8064C28.8576 19.9518 28.9069 20.0729 29.0304 20.194C29.1291 20.2909 29.2772 20.3636 29.4254 20.3636H37.8437V21.4778H29.4254C28.9563 21.4778 28.5613 21.3083 28.2403 20.9934C27.9194 20.6785 27.7466 20.2909 27.7466 19.8307V13.1695C27.7466 12.7092 27.9194 12.3216 28.2403 12.0068C28.5613 11.6919 28.9563 11.5223 29.4254 11.5223H37.8437V12.6365Z" fill="#808080"/>
<path d="M37.5861 21.2259V20.6154H29.4254C29.1966 20.6154 28.9857 20.5069 28.8478 20.3717C28.6794 20.2064 28.5999 20.0226 28.5999 19.8064V13.1936C28.5999 12.9701 28.71 12.7635 28.8478 12.6283C29.0163 12.463 29.2042 12.3846 29.4254 12.3846H37.5861V11.7741H29.4254C29.0275 11.7741 28.6974 11.9152 28.423 12.1845C28.1485 12.4537 28.0044 12.778 28.0044 13.1694V19.8306C28.0044 20.222 28.1485 20.5463 28.423 20.8156C28.6974 21.0849 29.0275 21.2259 29.4254 21.2259H37.5861ZM28.0578 11.829C28.4253 11.4684 28.8853 11.2704 29.4254 11.2704H38.1015V12.8883H29.4254C29.3976 12.8883 29.3614 12.8901 29.3207 12.9071C29.2819 12.9233 29.2476 12.9498 29.213 12.9838C29.181 13.0152 29.1574 13.0515 29.1416 13.0858C29.1264 13.1188 29.1153 13.1571 29.1153 13.1936V19.8064C29.1153 19.8346 29.1173 19.8703 29.1347 19.9103C29.1513 19.9484 29.1783 19.9821 29.213 20.0163C29.2451 20.0477 29.2819 20.0708 29.3167 20.0861C29.35 20.1008 29.3886 20.1117 29.4254 20.1117H38.1015V21.7296H29.4254C28.8853 21.7296 28.4253 21.5316 28.0578 21.1711C27.6904 20.8106 27.489 20.3597 27.489 19.8306V13.1694C27.489 12.6403 27.6904 12.1895 28.0578 11.829Z" fill="#808080"/>
<path d="M53.6436 11.5223V12.6365H45.5462V15.9308H52.0637V17.0693H45.5462V20.3636H53.6436V21.4778H44.4106V11.5465H53.6436V11.5223Z" fill="#808080"/>
<path d="M45.8039 12.8883V15.6789H52.3213V17.321H45.8039V20.1116H53.9013V21.7296H44.1529V11.2946H53.9013V12.8883H45.8039ZM53.386 11.7983H44.6683V21.2259H53.386V20.6153H45.2885V16.8173H51.8059V16.1826H45.2885V12.3846H53.386V11.7983Z" fill="#808080"/>
<path d="M70.3324 13.1695V16.0762C70.3324 16.5364 70.1597 16.924 69.8387 17.2389C69.5177 17.5538 69.1225 17.7233 68.6538 17.7233H67.0985L70.2831 21.4294H68.7772L65.5926 17.7475H61.8892C61.8152 17.7475 61.6176 17.7233 61.3461 17.6991V21.4536H60.2105V11.5223H68.6538C69.1225 11.5223 69.5177 11.6919 69.8387 12.0068C70.1597 12.3216 70.3324 12.7092 70.3324 13.1695ZM61.8892 16.6091H68.6288C68.7772 16.6091 68.9006 16.5606 68.9991 16.4638C69.0982 16.3668 69.1474 16.2457 69.1474 16.1004V13.1936C69.1474 13.0483 69.0982 12.9272 68.9991 12.8061C68.9006 12.7092 68.7772 12.6365 68.6288 12.6365H61.8892C61.7411 12.6365 61.6176 12.685 61.4942 12.8061C61.3955 12.903 61.3214 13.0483 61.3214 13.1936V16.1004C61.3214 16.2457 61.3708 16.3668 61.4942 16.4638C61.593 16.5606 61.7411 16.6091 61.8892 16.6091Z" fill="#808080"/>
<path d="M70.8357 21.6812H68.6576L65.5043 18.0361L65.473 17.9993H61.8892C61.8481 17.9993 61.7876 17.9945 61.72 17.9881L61.6038 17.9772V21.7054H59.9528V11.2704H68.6538C69.1935 11.2704 69.6539 11.4684 70.021 11.829C70.3887 12.1895 70.5901 12.6403 70.5901 13.1694V16.0761C70.5901 16.6051 70.3887 17.056 70.021 17.4165C69.6539 17.7771 69.1935 17.9751 68.6538 17.9751H67.6511L70.8357 21.6812ZM60.4681 21.2017H61.0883V17.4231L61.3695 17.4482C61.4747 17.4576 61.5698 17.4671 61.6494 17.475L61.7174 17.4818C61.7636 17.4863 61.8016 17.4898 61.8323 17.4923C61.8475 17.4935 61.8599 17.4944 61.87 17.495L61.8825 17.4955L61.8863 17.4956L61.8876 17.4956H61.8883H65.7122L68.8648 21.1408L68.8968 21.1775H69.73L66.5454 17.4714H68.6538C69.0515 17.4714 69.3815 17.3303 69.6558 17.0611C69.9302 16.7918 70.0747 16.4675 70.0747 16.0761V13.1694C70.0747 12.778 69.9302 12.4537 69.6558 12.1845C69.3815 11.9152 69.0515 11.7741 68.6538 11.7741H60.4681V21.2017ZM61.3244 16.6537L61.3195 16.6493C61.1378 16.5005 61.0637 16.3076 61.0637 16.1003V13.1936C61.0637 12.9701 61.1738 12.7635 61.3116 12.6283C61.4801 12.463 61.668 12.3846 61.8892 12.3846H68.6288C68.8699 12.3846 69.0547 12.5038 69.182 12.6283L69.1916 12.6382L69.2005 12.6491C69.3297 12.8073 69.4052 12.9823 69.4052 13.1936V16.1003C69.4052 16.3077 69.3316 16.4941 69.182 16.6414C69.0317 16.7887 68.8411 16.8609 68.6288 16.8609H61.8892C61.6949 16.8609 61.4812 16.7998 61.3244 16.6537ZM61.6556 16.2673L61.6667 16.2761L61.6767 16.286C61.7159 16.3243 61.7917 16.3571 61.8892 16.3571H68.6288C68.6672 16.3571 68.703 16.3522 68.7369 16.3389C68.7714 16.3253 68.7964 16.3056 68.8168 16.286C68.8367 16.2662 68.8571 16.2412 68.8705 16.2071C68.8846 16.1739 68.8897 16.1383 68.8897 16.1003V13.1936C68.8897 13.122 68.8705 13.0586 68.8124 12.9819L68.8066 12.974L68.7989 12.9673C68.7343 12.9093 68.6781 12.8883 68.6288 12.8883H61.8892C61.8614 12.8883 61.8252 12.8901 61.7844 12.9071C61.7457 12.9233 61.7114 12.9498 61.6767 12.9838C61.6447 13.0152 61.6211 13.0515 61.6054 13.0858C61.5902 13.1188 61.5791 13.1571 61.5791 13.1936V16.1003C61.5791 16.145 61.5866 16.1752 61.5967 16.1971C61.6063 16.2181 61.6228 16.2416 61.6556 16.2673Z" fill="#808080"/>
<path d="M76.3806 11.5223H86.5022V12.6365H82.0093V21.4536H80.8736V12.6365H76.3806V11.5223Z" fill="#808080"/>
<path d="M82.267 12.8883V21.7054H80.6158V12.8883H76.1229V11.2704H86.7599V12.8883H82.267ZM76.6383 12.3846H81.1313V21.2017H81.7515V12.3846H86.2445V11.7741H76.6383V12.3846Z" fill="#808080"/>
<path d="M92.6246 21.4536V11.5223H93.7603V21.4536H92.6246Z" fill="#808080"/>
<path d="M92.8823 21.2017H93.5026V11.7741H92.8823V21.2017ZM92.3669 21.7054V11.2704H94.018V21.7054H92.3669Z" fill="#808080"/>
<path d="M108.968 11.5223H110.424L106.203 16.488L110.449 21.4536H108.968L105.191 17.0451H101.932V21.4536H100.772V11.5223H101.932V15.9308H105.191L108.968 11.5223Z" fill="#808080"/>
<path d="M108.848 11.2704H110.974L106.595 16.421L106.538 16.4875L106.595 16.5538L111 21.7054H108.848L105.102 17.334L105.07 17.2969H102.19V21.7054H100.514V11.2704H102.19V15.679H105.07L105.102 15.6418L108.848 11.2704ZM101.029 21.2017H101.674V16.7931H105.311L109.057 21.1646L109.088 21.2017H109.898L105.868 16.4884L109.875 11.7741H109.088L109.057 11.8112L105.311 16.1826H101.674V11.7741H101.029V21.2017Z" fill="#808080"/>
<path d="M10.5045 6.52234L10.5151 6.52493L16.6435 8.34829L16.6459 8.34909C17.0015 8.46538 17.2443 8.83484 17.1114 9.22609C16.994 9.5718 16.6196 9.81227 16.2193 9.68386L10.3208 7.90973L4.54763 9.63148C4.15419 9.75742 3.78012 9.52656 3.65868 9.19888L3.65316 9.18397L3.64924 9.16859C3.55911 8.81487 3.74124 8.43847 4.12141 8.31413L4.12687 8.31234L10.1155 6.52347L10.1201 6.52234C10.2415 6.49255 10.3831 6.49255 10.5045 6.52234ZM10.5045 6.52234L10.4587 6.70085M1.59351 9.07851L1.57724 9.08576L1.56192 9.09479C1.33562 9.22801 1.1815 9.48586 1.20551 9.76217L1.13065 10.1906C1.10081 10.3282 1 11.0433 1 12.1049C1 13.1566 1.10885 14.5806 1.5077 16.1652C1.85448 17.6856 2.54691 19.4898 3.8029 21.2579C5.05998 23.0276 6.8803 24.7764 9.49436 26.1481L9.49513 26.1486L9.96924 26.407L9.97007 26.4074C10.1909 26.5309 10.4339 26.5307 10.6548 26.4073L10.6555 26.4069L11.1294 26.1486L11.1307 26.1479C13.7447 24.7762 15.5646 23.0276 16.8217 21.2579C18.0787 19.4884 18.7701 17.6838 19.1518 16.186C19.5512 14.6003 19.6603 13.1925 19.6603 12.1224C19.6603 11.0608 19.5594 10.3456 19.5296 10.2081L19.4256 9.61254C19.3994 9.39242 19.266 9.18326 19.0311 9.07851C18.8048 8.97761 18.5388 8.99496 18.3349 9.12996C18.1766 9.22351 18.0679 9.37485 18.0282 9.54761L14.8611 15.9641H5.96997L2.61131 9.53358C2.54656 9.27297 2.32849 9.06679 2.04285 9.02008C1.97183 9.00846 1.90133 9.00756 1.83316 9.01643C1.75182 9.0235 1.67081 9.04404 1.59351 9.07851ZM1.59351 9.07851L1.67169 9.24594M1.67242 9.24751L1.69755 9.30134M61.87 17.495C61.8599 17.4944 61.8475 17.4935 61.8323 17.4923C61.8016 17.4898 61.7636 17.4863 61.7174 17.4818L61.6494 17.475C61.5698 17.4671 61.4747 17.4576 61.3695 17.4482L61.0883 17.4231V21.2017H60.4681V11.7741H68.6538C69.0515 11.7741 69.3815 11.9152 69.6558 12.1845C69.9302 12.4537 70.0747 12.778 70.0747 13.1694V16.0761C70.0747 16.4675 69.9302 16.7918 69.6558 17.0611C69.3815 17.3303 69.0515 17.4714 68.6538 17.4714H66.5454L69.73 21.1775H68.8968L68.8648 21.1408L65.7122 17.4956H61.8883M61.87 17.495L61.8759 17.3933M61.87 17.495L61.8825 17.4955L61.8863 17.4956L61.8876 17.4956H61.8883M61.8883 17.4956L61.8892 17.3919M69.182 12.6283C69.0547 12.5038 68.8699 12.3846 68.6288 12.3846H61.8892C61.668 12.3846 61.4801 12.463 61.3116 12.6283C61.1738 12.7635 61.0637 12.9701 61.0637 13.1936V16.1003C61.0637 16.3076 61.1378 16.5005 61.3195 16.6493L61.3244 16.6537C61.4812 16.7998 61.6949 16.8609 61.8892 16.8609H68.6288C68.8411 16.8609 69.0317 16.7887 69.182 16.6414C69.3316 16.4941 69.4051 16.3077 69.4051 16.1003V13.1936C69.4051 12.9823 69.3297 12.8073 69.2005 12.6491M69.182 12.6283L69.2542 12.5576M69.182 12.6283L69.1916 12.6382L69.2005 12.6491M69.2005 12.6491L69.2836 12.5845M61.6556 16.2673L61.7211 16.1875M61.6556 16.2673L61.6667 16.2761L61.6767 16.286C61.7159 16.3243 61.7917 16.3571 61.8892 16.3571H68.6288C68.6672 16.3571 68.703 16.3522 68.7369 16.3389C68.7714 16.3253 68.7964 16.3056 68.8168 16.286C68.8367 16.2662 68.8571 16.2412 68.8705 16.2071C68.8846 16.1739 68.8897 16.1383 68.8897 16.1003V13.1936C68.8897 13.122 68.8705 13.0586 68.8124 12.9819L68.8066 12.974L68.7989 12.9673C68.7343 12.9093 68.6781 12.8883 68.6288 12.8883H61.8892C61.8614 12.8883 61.8252 12.8901 61.7844 12.9071C61.7457 12.9233 61.7114 12.9498 61.6767 12.9838C61.6447 13.0152 61.6211 13.0515 61.6054 13.0858C61.5902 13.1188 61.5791 13.1571 61.5791 13.1936V16.1003C61.5791 16.145 61.5866 16.1752 61.5967 16.1971M61.6556 16.2673C61.6228 16.2416 61.6063 16.2181 61.5967 16.1971M61.5967 16.1971L61.6863 16.1578M10.4611 6.51715C10.3681 6.49432 10.2559 6.49432 10.1629 6.51715L4.06907 8.33744L4.0659 8.33848C3.78048 8.43183 3.64072 8.71331 3.71016 8.98584L3.71175 8.99209L3.714 8.99815C3.80717 9.24956 4.09054 9.41803 4.38125 9.32397L10.3209 7.55258L16.3879 9.37742C16.6814 9.47244 16.9649 9.30017 17.0565 9.03064C17.1541 8.74335 16.9794 8.46435 16.7035 8.37409L10.4673 6.51865L10.4611 6.51715ZM1.22802 9.64191C1.19989 9.43012 1.31646 9.22258 1.49654 9.11657L1.50276 9.11291L1.50938 9.10996C1.56951 9.08314 1.6323 9.06753 1.69505 9.06256C1.74687 9.05539 1.80091 9.0558 1.85585 9.06478C2.07735 9.10101 2.24304 9.26431 2.28469 9.46705L5.77078 16.1416H15.0094C15.0282 16.1416 15.0468 16.1426 15.0651 16.1445L18.3557 9.47779C18.3813 9.34075 18.4648 9.22123 18.5885 9.14977C18.7387 9.04811 18.9406 9.03236 19.1146 9.10996C19.2886 9.18757 19.3877 9.34253 19.4061 9.50965L19.5137 10.1258C19.5383 10.2337 19.6433 10.9521 19.6433 12.0403C19.6433 13.1183 19.5335 14.537 19.1308 16.1353C18.7464 17.6442 18.0503 19.4601 16.7858 21.2402C15.5213 23.0203 13.6895 24.7811 11.0545 26.1638L11.0537 26.1642L10.5661 26.43L10.5654 26.4304C10.3994 26.5232 10.2245 26.5232 10.0585 26.4304L10.0578 26.43L9.57027 26.1642L9.56944 26.1638C6.9344 24.7811 5.10262 23.0203 3.83814 21.2402C2.57404 19.4606 1.87757 17.6449 1.5291 16.1161C1.12671 14.5183 1.01694 13.0822 1.01694 12.0225C1.01694 10.9342 1.12195 10.2158 1.14658 10.108L1.22802 9.64191ZM6.31055 17.1751H14.5048L10.3234 24.8581L6.31055 17.1751ZM2.08647 11.3486C2.07725 11.5501 2.07122 11.7759 2.07122 12.0225C2.07122 13.014 2.16147 14.3763 2.53991 15.8615C2.90039 17.294 3.54913 18.9736 4.71984 20.6348C5.71834 22.0364 7.09728 23.439 9.02575 24.6338L2.08647 11.3486ZM11.6438 24.6139C13.5483 23.4269 14.93 22.0428 15.9221 20.635C17.0928 18.9739 17.7416 17.2768 18.1022 15.8615C18.4806 14.3763 18.5709 13.014 18.5709 12.0225C18.5709 11.8024 18.5661 11.5989 18.5585 11.4145L16.009 16.5797V16.6001L11.6438 24.6139ZM10.2159 6.87838L4.24169 8.66296L4.24093 8.66321C4.06178 8.72179 3.96956 8.8963 4.01392 9.07651C4.07623 9.23998 4.25614 9.33805 4.43153 9.2813L4.43363 9.28062L10.3213 7.52473L16.3338 9.33316L16.3357 9.33378C16.5107 9.39044 16.6919 9.29294 16.754 9.11009C16.8124 8.93803 16.7134 8.76047 16.5286 8.69889L10.4143 6.87973L10.4128 6.87936C10.353 6.86468 10.2765 6.86435 10.2159 6.87838ZM1.9807 9.38313C1.94581 9.37742 1.91214 9.37726 1.88031 9.38166L1.87476 9.38242L1.86918 9.38286C1.83031 9.38595 1.79114 9.39544 1.75316 9.41193C1.63585 9.48259 1.56535 9.61714 1.58225 9.74443L1.5859 9.77185L1.5004 10.2612L1.49936 10.2657C1.47932 10.3535 1.37663 11.0439 1.37663 12.1049C1.37663 13.1332 1.48319 14.5278 1.8739 16.0792L1.8744 16.0811L1.87486 16.0831C2.21233 17.5638 2.88714 19.3233 4.11228 21.048C5.33758 22.7729 7.11371 24.4811 9.67252 25.8238L9.67597 25.8256L10.1563 26.0876L10.157 26.0879C10.262 26.1466 10.3626 26.1466 10.4676 26.0879L10.4701 26.0865L10.9513 25.8242L10.9521 25.8238C13.5109 24.4811 15.287 22.7729 16.5123 21.048C17.7378 19.3228 18.413 17.5621 18.7862 16.0975C19.177 14.5458 19.2836 13.1683 19.2836 12.1224C19.2836 11.0614 19.1809 10.371 19.1609 10.2832L19.1599 10.2787L19.0524 9.66364L19.0518 9.65795C19.0402 9.55219 18.9794 9.46005 18.8747 9.41339C18.7615 9.36287 18.6341 9.3752 18.5437 9.43636L18.5381 9.44012L18.5323 9.44349C18.4589 9.48587 18.4088 9.55686 18.3932 9.64013L18.3886 9.66459L15.0898 16.348L14.9577 16.334C14.9464 16.3328 14.935 16.3322 14.9233 16.3322H5.73936L2.25321 9.65757L2.2481 9.6327C2.22244 9.50779 2.12027 9.40596 1.9807 9.38313ZM2.08188 10.7394L9.53062 24.9999L8.94895 24.6395C7.0332 23.4526 5.66184 22.0583 4.66853 20.6639L4.66798 20.6631C3.50355 19.0108 2.85863 17.3407 2.50043 15.9174C2.12434 14.4411 2.03487 13.0884 2.03487 12.1049C2.03487 11.8599 2.04087 11.6355 2.05004 11.4352L2.08188 10.7394ZM18.565 10.7646L18.5952 11.5006C18.6028 11.684 18.6076 11.8863 18.6076 12.1049C18.6076 13.0885 18.518 14.4414 18.1419 15.9177C17.7837 17.3234 17.1389 19.0108 15.9743 20.6633C14.9865 22.065 13.612 23.4411 11.721 24.6198L11.1167 24.9965L15.7162 16.5524V16.5362L18.565 10.7646ZM2.41168 12.1803C2.41623 13.1361 2.5087 14.4265 2.86598 15.8288C3.21548 17.2176 3.84422 18.8451 4.9779 20.4539C5.83878 21.6623 6.99195 22.8721 8.55439 23.9405L2.41168 12.1803ZM16.0928 16.6203V16.6443L12.1392 23.9026C13.6705 22.8473 14.8152 21.6591 15.6641 20.4545C16.7977 18.846 17.4266 17.2016 17.7764 15.8288C18.1202 14.4798 18.2188 13.2343 18.2298 12.2907L16.0928 16.6203ZM6.07695 16.9786H14.7415L10.3201 25.1025L6.07695 16.9786ZM6.69204 17.3467L10.327 24.3061L14.1145 17.3467H6.69204ZM37.8437 12.6365H29.4254C29.2772 12.6365 29.1538 12.685 29.0304 12.8061C28.9316 12.903 28.8576 13.0483 28.8576 13.1936V19.8064C28.8576 19.9518 28.9069 20.0729 29.0304 20.194C29.1291 20.2909 29.2772 20.3636 29.4254 20.3636H37.8437V21.4778H29.4254C28.9563 21.4778 28.5613 21.3083 28.2403 20.9934C27.9194 20.6785 27.7466 20.2909 27.7466 19.8307V13.1695C27.7466 12.7092 27.9194 12.3216 28.2403 12.0068C28.5613 11.6919 28.9563 11.5223 29.4254 11.5223H37.8437V12.6365ZM37.5861 21.2259H29.4254C29.0275 21.2259 28.6974 21.0849 28.423 20.8156C28.1485 20.5463 28.0044 20.222 28.0044 19.8306V13.1694C28.0044 12.778 28.1485 12.4537 28.423 12.1845C28.6974 11.9152 29.0275 11.7741 29.4254 11.7741H37.5861V12.3846H29.4254C29.2042 12.3846 29.0163 12.463 28.8478 12.6283C28.71 12.7635 28.5999 12.9701 28.5999 13.1936V19.8064C28.5999 20.0226 28.6794 20.2064 28.8478 20.3717C28.9857 20.5069 29.1966 20.6154 29.4254 20.6154H37.5861V21.2259ZM28.0578 11.829C28.4253 11.4684 28.8853 11.2704 29.4254 11.2704H38.1015V12.8883H29.4254C29.3976 12.8883 29.3614 12.8901 29.3207 12.9071C29.2819 12.9233 29.2476 12.9498 29.213 12.9838C29.181 13.0152 29.1574 13.0515 29.1416 13.0858C29.1264 13.1188 29.1153 13.1571 29.1153 13.1936V19.8064C29.1153 19.8346 29.1173 19.8703 29.1347 19.9103C29.1513 19.9484 29.1783 19.9821 29.213 20.0163C29.2451 20.0477 29.2819 20.0708 29.3167 20.0861C29.35 20.1008 29.3886 20.1117 29.4254 20.1117H38.1015V21.7296H29.4254C28.8853 21.7296 28.4253 21.5316 28.0578 21.1711C27.6904 20.8106 27.489 20.3597 27.489 19.8306V13.1694C27.489 12.6403 27.6904 12.1895 28.0578 11.829ZM53.6436 11.5223V12.6365H45.5462V15.9308H52.0637V17.0693H45.5462V20.3636H53.6436V21.4778H44.4106V11.5465H53.6436V11.5223ZM45.8039 12.8883H53.9013V11.2946H44.1529V21.7296H53.9013V20.1116H45.8039V17.321H52.3213V15.6789H45.8039V12.8883ZM53.386 11.7983V12.3846H45.2885V16.1826H51.8059V16.8173H45.2885V20.6153H53.386V21.2259H44.6683V11.7983H53.386ZM70.3324 13.1695V16.0762C70.3324 16.5364 70.1597 16.924 69.8387 17.2389C69.5177 17.5538 69.1225 17.7233 68.6538 17.7233H67.0986L70.2832 21.4294H68.7772L65.5926 17.7475H61.8892C61.8152 17.7475 61.6176 17.7233 61.3461 17.6991V21.4536H60.2105V11.5223H68.6538C69.1225 11.5223 69.5177 11.6919 69.8387 12.0068C70.1597 12.3216 70.3324 12.7092 70.3324 13.1695ZM61.8892 16.6091H68.6288C68.7772 16.6091 68.9006 16.5606 68.9991 16.4638C69.0982 16.3668 69.1474 16.2457 69.1474 16.1004V13.1936C69.1474 13.0483 69.0982 12.9272 68.9991 12.8061C68.9006 12.7092 68.7772 12.6365 68.6288 12.6365H61.8892C61.7411 12.6365 61.6177 12.685 61.4942 12.8061C61.3955 12.903 61.3214 13.0483 61.3214 13.1936V16.1004C61.3214 16.2457 61.3708 16.3668 61.4942 16.4638C61.593 16.5606 61.7411 16.6091 61.8892 16.6091ZM70.8357 21.6812H68.6576L65.5043 18.0361L65.473 17.9993H61.8892C61.8481 17.9993 61.7876 17.9945 61.72 17.9881L61.6038 17.9772V21.7054H59.9528V11.2704H68.6538C69.1935 11.2704 69.6539 11.4684 70.021 11.829C70.3887 12.1895 70.5901 12.6403 70.5901 13.1694V16.0761C70.5901 16.6051 70.3887 17.056 70.021 17.4165C69.6539 17.7771 69.1935 17.9751 68.6538 17.9751H67.6511L70.8357 21.6812ZM76.3806 11.5223H86.5022V12.6365H82.0093V21.4536H80.8736V12.6365H76.3806V11.5223ZM82.267 12.8883H86.7599V11.2704H76.1229V12.8883H80.6158V21.7054H82.267V12.8883ZM76.6383 12.3846V11.7741H86.2445V12.3846H81.7515V21.2017H81.1313V12.3846H76.6383ZM92.6246 21.4536V11.5223H93.7603V21.4536H92.6246ZM92.8823 21.2017V11.7741H93.5026V21.2017H92.8823ZM92.3669 21.7054V11.2704H94.018V21.7054H92.3669ZM108.968 11.5223H110.424L106.203 16.488L110.449 21.4536H108.968L105.191 17.0451H101.932V21.4536H100.772V11.5223H101.932V15.9308H105.191L108.968 11.5223ZM108.848 11.2704H110.974L106.595 16.421L106.538 16.4875L106.595 16.5538L111 21.7054H108.848L105.102 17.334L105.07 17.2969H102.19V21.7054H100.514V11.2704H102.19V15.679H105.07L105.102 15.6418L108.848 11.2704ZM101.029 21.2017V11.7741H101.674V16.1826H105.311L109.057 11.8112L109.088 11.7741H109.875L105.868 16.4884L109.898 21.2017H109.088L109.057 21.1646L105.311 16.7931H101.674V21.2017H101.029Z" stroke="#808080" stroke-width="0.312331" stroke-miterlimit="10"/>
</svg>
