<svg width="86" height="33" viewBox="0 0 86 33" fill="none" xmlns="http://www.w3.org/2000/svg">
<path d="M13.8254 22.5175C12.3381 23.7499 10.4181 24.5 8.22769 24.5C3.49539 24.5 -0.182302 20.9637 0.00699138 16.4093C-0.182302 11.855 3.49539 8.34553 8.22769 8.50627C10.4992 8.4259 12.4192 9.12244 13.9065 10.3548L12.6085 12.0426C11.635 10.7299 10.1207 9.95294 8.22769 9.95294C4.90157 9.95294 2.4678 12.6052 2.4678 16.4093C2.4678 20.2136 4.90157 22.8926 8.22769 22.8926C10.0666 22.8926 11.5268 22.1693 12.5273 20.9101L13.8254 22.5175ZM85.8377 21.2584H86V24.2053H74.7507V24.0445C75.3456 23.2944 75.5079 22.4371 75.5079 20.6958V12.1497C75.5079 10.4084 75.3456 9.49751 74.7507 8.80096V8.64022H85.7025V11.2924H85.5945C85.1347 10.5423 84.2423 10.2476 82.1599 10.2476H77.7255V13.65H81.1058C82.9172 13.65 83.6201 13.3553 84.2423 12.8999H84.3774V16.0075H84.2423C83.7824 15.3913 82.9172 15.2574 81.1058 15.2574H77.7255V22.5979H82.4573C84.3774 22.5979 85.4322 22.3032 85.8377 21.2584ZM59.4857 17.9096C59.4857 22.0085 61.7031 24.5 65.7054 24.5C69.7076 24.5 71.925 22.0085 71.925 17.9096V12.1497C71.925 10.4084 72.0602 9.49751 72.6822 8.80096V8.64022H69.5453V8.80096C70.0051 9.49751 70.1402 10.4084 70.1402 12.1497V17.9096C70.1402 20.9637 68.6799 22.5979 65.8676 22.5979C63.0553 22.5979 61.7031 20.8566 61.7031 17.9096V12.1497C61.7031 10.4084 61.8654 9.49751 62.4333 8.80096V8.64022H58.7556V8.80096C59.3505 9.49751 59.4857 10.4084 59.4857 12.1497V17.9096ZM48.5201 24.2053V24.0445C49.115 23.2944 49.4125 22.4371 49.4125 20.6958V10.2476H47.6007C45.6807 10.2476 44.6801 10.5423 44.0582 11.3996H43.923V8.64022H56.9301V11.3996H56.8219C56.227 10.5423 55.3347 10.2476 53.2524 10.2476H51.4947V20.6958C51.4947 22.4371 51.7922 23.2944 52.36 24.0445V24.2053H48.5201ZM37.8115 11.3996H37.9738L41.4081 19.9456H34.5935L37.8115 11.3996ZM44.0582 20.6958L39.1636 8.64022H37.2436L32.5113 20.6958C32.0516 21.7138 31.7 22.4371 31.5108 22.8926C31.2944 23.4016 30.997 23.7499 30.6995 24.0445V24.2053H33.9716V24.0445C33.6741 23.7499 33.6471 23.4552 33.6741 23.0533C33.7011 22.5979 33.8364 22.1424 33.9716 21.3923H41.8678C42.0571 22.1424 42.1923 22.5979 42.3005 23.1873C42.3545 23.4552 42.3005 23.9106 42.003 24.0445V24.2053H45.843V24.0445C45.5455 23.7499 45.3292 23.4552 45.0858 23.0533C44.8153 22.5711 44.599 22.0621 44.3015 21.312L44.0582 20.6958ZM22.7221 22.8926C25.9672 22.8926 28.0224 20.2403 28.0224 16.4093C28.0224 12.5784 25.9672 9.95294 22.7221 9.95294C19.4771 9.95294 17.3949 12.6052 17.3949 16.4093C17.3949 20.2136 19.6124 22.8926 22.7221 22.8926ZM22.7221 24.5C18.2873 24.5 14.853 20.9637 15.0152 16.4093C14.853 11.855 18.2873 8.34553 22.7221 8.50627C27.3193 8.34553 30.5643 11.855 30.5643 16.4093C30.5643 20.9637 27.157 24.5 22.7221 24.5Z" fill="#808080"/>
</svg>
