<svg width="90" height="33" viewBox="0 0 90 33" fill="none" xmlns="http://www.w3.org/2000/svg">
<path fill-rule="evenodd" clip-rule="evenodd" d="M19.2887 16.5C19.2887 22.5748 14.262 27.5 8.06169 27.5C5.55703 27.5 3.24338 26.696 1.37609 25.3382C1.69577 25.5139 2.02516 25.6723 2.36432 25.8156C3.64881 26.358 5.03271 26.6387 6.4322 26.6387C9.03819 26.6387 11.5468 25.6723 13.4569 23.9384C15.3671 22.2043 16.5405 19.8267 16.7393 17.2811C16.7667 17.0405 16.7821 16.7998 16.7861 16.5592C16.7861 16.2517 16.7608 15.8965 16.7276 15.5719C16.7257 15.5413 16.7237 15.5088 16.7218 15.4783C16.7218 15.442 16.7198 15.4057 16.7159 15.3713L16.7062 15.3809C16.6594 14.9588 16.6107 14.6342 16.6107 14.6342H8.46516L7.83172 15.7953L6.37762 18.488H12.533C12.305 19.1546 11.9639 19.7809 11.5253 20.3385C10.9269 21.1062 10.157 21.7269 9.2721 22.1548C8.38914 22.5824 7.41651 22.806 6.43025 22.804C5.67592 22.804 4.92746 22.6703 4.21991 22.4144C2.9822 21.9714 1.91407 21.1674 1.15975 20.1094C0.405423 19.0495 0 17.791 0 16.5C0 15.6731 0.165679 14.8519 0.489237 14.088C0.812794 13.3242 1.28643 12.629 1.88289 12.0427C2.47932 11.4583 3.18882 10.9924 3.97042 10.6773C4.75203 10.3622 5.58822 10.1979 6.4322 10.1979C7.79466 10.196 9.12399 10.62 10.2233 11.4087L11.0673 9.85989L12.073 7.99792C10.3948 6.92656 8.43401 6.35746 6.43025 6.35938C4.65847 6.35938 2.93347 6.80625 1.40729 7.63507C3.27263 6.29445 5.57262 5.5 8.06169 5.5C14.262 5.5 19.2887 10.4252 19.2887 16.5Z" fill="#808080"/>
<path d="M49.7795 18.9998C49.3835 19.4644 48.8867 19.8375 48.3235 20.0855C47.8217 20.3021 47.2757 20.4105 46.7271 20.4081C46.0261 20.4201 45.3324 20.254 44.7151 19.9242C44.693 19.9122 44.6733 19.8978 44.6512 19.8833C44.1002 19.5727 43.6451 19.1202 43.3353 18.5738C42.9982 17.9695 42.8285 17.293 42.8409 16.6046C42.8285 15.9184 42.9982 15.2396 43.3353 14.6354C43.6451 14.0913 44.0977 13.6387 44.6512 13.3257C44.6733 13.3137 44.693 13.2969 44.7151 13.2848C45.3324 12.955 46.0236 12.7889 46.7271 12.801C47.278 12.7962 47.8217 12.9045 48.3259 13.1187L49.4697 11.0148C49.4697 11.0148 49.4524 11.0051 49.4425 11.0003C48.5399 10.632 47.5683 10.4466 46.5893 10.4587C45.5071 10.4466 44.4396 10.6801 43.4631 11.1375C43.3819 11.176 43.2959 11.2049 43.2147 11.2483C42.2382 11.7514 41.4217 12.5097 40.8559 13.4389C40.2779 14.397 39.9803 15.4923 39.9975 16.6046C39.9803 17.7167 40.2779 18.812 40.8559 19.7701C41.4217 20.697 42.2382 21.4554 43.2147 21.9585C43.2959 22.0017 43.3819 22.0307 43.4631 22.0692C44.4322 22.5241 45.4948 22.7577 46.5697 22.7479C47.5511 22.7624 48.5252 22.5772 49.4303 22.204C49.4425 22.1991 49.4524 22.1919 49.4647 22.1871C50.2862 21.838 51.0118 21.3036 51.58 20.6248L49.7771 18.9951L49.7795 18.9998Z" fill="#808080"/>
<path d="M55.6852 21.9513C54.7013 21.4457 53.8798 20.6849 53.3091 19.7533C52.7311 18.8025 52.4335 17.712 52.4507 16.6046C52.4335 15.4972 52.7311 14.4067 53.3091 13.4558C53.8798 12.5242 54.7013 11.7635 55.6852 11.258C56.7355 10.7163 57.9062 10.4443 59.0943 10.4587C60.2774 10.4395 61.4482 10.7139 62.4935 11.2555C63.4749 11.7635 64.2965 12.5242 64.8695 13.4534C65.4525 14.4043 65.7525 15.4948 65.7378 16.6022C65.7525 17.7095 65.4525 18.8001 64.8695 19.751C64.2965 20.6802 63.4749 21.4409 62.4935 21.9488C61.4482 22.4905 60.2774 22.765 59.0943 22.748C57.9087 22.765 56.7355 22.4905 55.6852 21.9488V21.9513ZM61.0349 19.9219C61.6081 19.6041 62.0803 19.1371 62.3976 18.5713C62.7345 17.9671 62.9043 17.2907 62.892 16.6022C62.9043 15.9162 62.7345 15.2373 62.3976 14.633C62.0803 14.0673 61.6081 13.6003 61.0349 13.2825C60.4421 12.9575 59.7732 12.789 59.0918 12.7986C58.413 12.789 57.7415 12.9551 57.1487 13.2825C56.5755 13.6003 56.1033 14.0673 55.786 14.633C55.4491 15.2373 55.2793 15.9137 55.2916 16.6022C55.2793 17.2883 55.4491 17.9671 55.786 18.5713C56.1033 19.1371 56.5755 19.6041 57.1487 19.9219C57.7415 20.2494 58.4104 20.4154 59.0918 20.4058C59.7706 20.4154 60.4421 20.2494 61.0349 19.9219Z" fill="#808080"/>
<path d="M75.5885 22.5459L73.2473 19.2358H70.6621V22.5459H67.8531V10.6633H73.1067C74.0688 10.6416 75.0231 10.8198 75.9085 11.1905C76.654 11.5034 77.2912 12.0234 77.7384 12.6855C78.1787 13.3715 78.4023 14.1683 78.3805 14.9772C78.4023 15.7861 78.1766 16.5804 77.7314 17.2593C77.2764 17.9166 76.6343 18.4269 75.8839 18.7278L78.607 22.5482H75.5885V22.5459ZM74.8775 13.4389C74.3198 13.0465 73.6383 12.8564 72.9541 12.9045H70.6642V17.0451H72.9541C73.6405 17.0908 74.3247 16.9006 74.8775 16.501C75.099 16.3133 75.2742 16.0773 75.3895 15.8126C75.5027 15.5477 75.5541 15.2613 75.5393 14.9748C75.5569 14.6859 75.5077 14.3971 75.3923 14.1322C75.2791 13.865 75.1019 13.6291 74.8803 13.4389H74.8775Z" fill="#808080"/>
<path d="M90 20.3407V22.5482H80.5986V10.6633H89.7735V12.8708H83.3906V15.4514H89.0281V17.5915H83.3906V20.3407H90Z" fill="#808080"/>
<path d="M34.5828 18.9973C34.1868 19.462 33.69 19.8351 33.1268 20.0831C32.6249 20.2998 32.0789 20.408 31.5303 20.4057C30.8294 20.4177 30.1358 20.2516 29.5184 19.9218C29.4963 19.9098 29.4766 19.8953 29.4544 19.8809C28.9035 19.5704 28.4484 19.1178 28.1386 18.5713C27.8015 17.9671 27.6318 17.2906 27.6441 16.6022C27.6318 15.916 27.8015 15.2371 28.1386 14.633C28.4484 14.0889 28.901 13.6363 29.4544 13.3233C29.4766 13.3113 29.4963 13.2945 29.5184 13.2824C30.1358 12.9526 30.8269 12.7865 31.5303 12.7986C32.0814 12.7938 32.6249 12.902 33.1292 13.1163L34.273 11.0123C34.273 11.0123 34.2557 11.0027 34.2458 10.9979C33.3432 10.6296 32.3716 10.4442 31.3926 10.4586C30.3104 10.4466 29.2429 10.6801 28.2665 11.1375C28.1852 11.176 28.0992 11.2049 28.0181 11.2482C27.0416 11.7514 26.2249 12.5097 25.6592 13.4389C25.0812 14.3946 24.7836 15.4923 24.8008 16.6045C24.7836 17.7167 25.0812 18.8121 25.6592 19.7702C26.2249 20.6969 27.0416 21.4552 28.0181 21.9583C28.0992 22.0017 28.1852 22.0305 28.2665 22.0691C29.2356 22.5241 30.2981 22.7576 31.373 22.748C32.3544 22.7624 33.3284 22.577 34.2336 22.204C34.2458 22.1991 34.2557 22.1919 34.268 22.1871C35.0895 21.838 35.8151 21.3036 36.3833 20.6247L34.5804 18.9949L34.5828 18.9973Z" fill="#808080"/>
<path d="M37.9526 16.2627L35.4978 16.2724C35.5323 16.8766 35.4266 17.4808 35.1879 18.0394C34.9689 18.5329 34.6468 18.9758 34.2434 19.3392C34.0442 19.527 33.8301 19.698 33.5965 19.8399C33.9039 20.6031 34.1745 21.3133 34.3221 22.1269C34.8658 21.8405 35.3846 21.6142 35.8373 21.1953C36.5654 20.5502 37.072 19.7293 37.4753 18.853C37.4803 18.841 37.4827 18.8289 37.4877 18.8193C37.8468 18.0153 38.0067 17.1414 37.9501 16.2652L37.9526 16.2627Z" fill="#808080"/>
<path d="M37.9649 15.9714L37.9526 16.2627L36.7498 18.3787H30.394L31.6804 15.9714H37.9649Z" fill="#808080"/>
</svg>
