<svg width="44" height="44" viewBox="0 0 44 44" fill="none" xmlns="http://www.w3.org/2000/svg">
<path d="M22.0779 0.000895182C22.2017 6.07859 22.4682 12.1564 22.8218 18.234C23.2874 26.2385 26.7009 34.2436 29.0827 42.2481C29.1354 42.4251 29.185 42.6029 29.2367 42.7799C26.9701 43.5691 24.5355 44 22 44C19.4649 44 17.0305 43.5698 14.7642 42.7808C14.816 42.6034 14.8663 42.4255 14.9191 42.2481C17.3009 34.2436 20.7144 26.2385 21.18 18.234C21.5336 12.1564 21.7992 6.07859 21.923 0.000895182C21.9487 0.000807303 21.9743 0 22 0C22.026 0 22.0519 0.000805247 22.0779 0.000895182Z" fill="#2A2A2A"/>
<path d="M20.7262 21.2364C19.4639 28.1647 15.6505 35.0935 12.8718 42.0216C12.0526 41.6475 11.2603 41.2248 10.4987 40.7568C14.3095 34.2502 19.1923 27.7431 20.7262 21.2364Z" fill="#2A2A2A"/>
<path d="M23.2747 21.2364C24.8085 27.7426 29.6898 34.2498 33.5004 40.7559C32.739 41.2237 31.9472 41.6467 31.1282 42.0208C28.3495 35.093 24.5369 28.1642 23.2747 21.2364Z" fill="#2A2A2A"/>
<path d="M20.6062 0.0447591C20.5973 6.14511 20.5901 12.2455 20.5641 18.3459C20.5354 25.059 13.5075 31.7743 7.43628 38.4875C2.87637 34.4566 0 28.5647 0 22C0 10.3179 9.10536 0.763813 20.6062 0.0447591Z" fill="#2A2A2A"/>
<path d="M23.3938 0.0447591C34.8946 0.763813 44 10.3179 44 22C44 28.5649 41.123 34.4565 36.5628 38.4875C30.4919 31.7747 23.4655 25.0585 23.4368 18.3459C23.4108 12.2455 23.4027 6.14511 23.3938 0.0447591Z" fill="#2A2A2A"/>
</svg>
