<svg width="114" height="33" viewBox="0 0 114 33" fill="none" xmlns="http://www.w3.org/2000/svg">
<path d="M106.233 8.74219C109.109 10.8346 111.649 13.3429 113.762 16.1846L114 16.5049L113.762 16.8193C111.648 19.6657 109.109 22.1747 106.233 24.2627L105.91 24.5L105.592 24.2627C105.421 24.1393 105.26 24.0198 105.103 23.8965L105.049 23.8604L105.099 23.8193C105.404 23.5818 105.708 23.3394 106 23.0928C108.513 21.215 110.752 18.9948 112.649 16.5049C110.752 14.0149 108.513 11.7984 106 9.91602C105.704 9.66937 105.399 9.4224 105.099 9.18945L105.049 9.14844L105.103 9.10742C105.264 8.98407 105.426 8.86097 105.592 8.74219L105.91 8.50488L106.233 8.74219ZM101.657 8.7373L102.137 9.10352L102.505 9.38672C102.796 9.61502 103.057 9.81568 103.299 10.0166L103.406 10.1133L103.649 10.3135C103.901 10.5236 104.152 10.7436 104.398 10.9629L104.641 11.1816L104.734 11.2686C106.367 12.767 107.853 14.412 109.172 16.1846L109.414 16.5049L109.172 16.8193C107.853 18.592 106.368 20.2378 104.734 21.7363L104.641 21.8184L104.564 21.8867L104.394 22.0371C104.147 22.2609 103.896 22.4803 103.645 22.6904L103.402 22.8965L103.295 22.9834L103.308 22.9736V22.9834C103.056 23.1843 102.796 23.3902 102.514 23.6094L102.303 23.7734L102.146 23.8926C101.984 24.0158 101.823 24.1392 101.657 24.2578L101.338 24.4951L101.016 24.2578C98.1396 22.1653 95.5996 19.6572 93.4863 16.8154L93.249 16.5L93.4863 16.1807C95.6041 13.3389 98.1396 10.8253 101.016 8.7373L101.338 8.5L101.657 8.7373ZM103.945 8.74219L104.435 9.10742L104.802 9.39062C105.102 9.62363 105.359 9.82959 105.597 10.0215L105.708 10.1133L105.946 10.3135C108.01 12.0542 109.867 14.0284 111.474 16.1895L111.712 16.5088L111.474 16.8242C109.863 18.9853 108.006 20.9549 105.938 22.7002L105.708 22.8877V22.8779L105.592 22.9785C105.35 23.1749 105.089 23.3807 104.798 23.6045L104.435 23.8877L103.945 24.2529L103.622 24.4912L103.299 24.2529L102.81 23.8877L102.761 23.8516L102.81 23.8105C103.079 23.6049 103.34 23.3941 103.591 23.1885L103.771 23.043L103.878 22.96L103.954 22.9014C104.268 22.6684 104.515 22.4715 104.748 22.2842L104.847 22.2021L105.099 21.9961C107.059 20.3651 108.827 18.5239 110.37 16.5C108.827 14.4807 107.059 12.6349 105.099 11.0039L104.919 10.8574L104.838 10.7939L104.744 10.7158C104.506 10.5331 104.254 10.3362 103.949 10.0986L103.873 10.04L103.766 9.95703L103.586 9.81152C103.335 9.6105 103.07 9.39961 102.806 9.18945L102.756 9.14844L102.806 9.10742L103.295 8.74219L103.622 8.50488L103.945 8.74219ZM40.5967 8.87012C40.6235 8.87925 40.6505 8.89326 40.6729 8.91602C40.6952 8.93429 40.7132 8.96195 40.7266 8.98926C40.7355 9.01641 40.7441 9.04357 40.7441 9.0752V23.7324C40.7441 23.7644 40.74 23.7919 40.7266 23.8193C40.7131 23.8467 40.6992 23.8697 40.6768 23.8926C40.6544 23.9153 40.6274 23.9333 40.6006 23.9424C40.5692 23.956 40.5421 23.9609 40.5107 23.9609H39.0615C39.0347 23.9609 39.0034 23.9515 38.9766 23.9424C38.9498 23.9288 38.9276 23.9152 38.9053 23.8926C38.8829 23.8698 38.8689 23.8467 38.8555 23.8193C38.842 23.7919 38.8379 23.7598 38.8379 23.7324V22.8779C38.5777 23.1292 38.2897 23.3485 37.9756 23.5312C37.2623 23.9423 36.4505 24.1576 35.625 24.1484C34.7905 24.1576 33.9646 23.9421 33.2422 23.5264C32.5021 23.0923 31.9053 22.4526 31.5195 21.6943C31.0666 20.7854 30.8423 19.7806 30.8691 18.7666C30.8422 17.7706 31.0619 16.7786 31.5195 15.8877C31.9054 15.1476 32.4935 14.5261 33.2158 14.0967C33.9381 13.6673 34.768 13.4479 35.6113 13.457C36.4099 13.4525 37.1907 13.6492 37.8906 14.0283C38.2316 14.2156 38.5416 14.4398 38.8242 14.7002V9.08008C38.8243 9.02074 38.8468 8.961 38.8916 8.91992C38.9364 8.87903 38.9946 8.85649 39.0527 8.85645H40.5068C40.5382 8.85647 40.5698 8.861 40.5967 8.87012ZM59.3379 13.8916C60.8723 13.3388 62.5503 13.3203 64.0938 13.8457C64.7397 14.0696 65.3051 14.4666 65.7402 14.9873C66.162 15.5264 66.3818 16.1985 66.3594 16.8838V21.9326C66.3594 22.1518 66.3727 22.3619 66.3906 22.5674C66.4041 22.7455 66.4356 22.9192 66.4805 23.0928L66.4717 23.084C66.5479 23.2712 66.6424 23.4492 66.75 23.6182C66.7723 23.65 66.7812 23.6911 66.7812 23.7275C66.7812 23.7641 66.7679 23.8059 66.75 23.8379C66.7276 23.8698 66.6999 23.9017 66.6641 23.9199C66.6283 23.9381 66.5881 23.9473 66.5479 23.9473H65.1299C65.0896 23.9472 65.0534 23.9382 65.0176 23.9199C64.9862 23.9016 64.9599 23.8737 64.9375 23.8418C64.8209 23.6409 64.7176 23.4356 64.6279 23.2256C64.592 23.1251 64.5648 23.0152 64.5469 22.9102C64.4034 23.0517 64.2508 23.1795 64.085 23.2891C63.6497 23.5815 63.1648 23.7969 62.6533 23.9248C62.0478 24.0801 61.4242 24.153 60.8008 24.1484C60.0874 24.1621 59.3779 24.0387 58.7139 23.7783C58.153 23.5544 57.664 23.1793 57.3096 22.6904C56.9642 22.1925 56.7848 21.5988 56.8027 20.9912C56.7803 20.3699 56.9727 19.7617 57.3496 19.2637C57.7489 18.7795 58.2741 18.4052 58.8662 18.1904C59.5796 17.9209 60.3291 17.7521 61.0918 17.6836C61.9847 17.6105 62.8735 17.4871 63.7529 17.3135C64.2149 17.2038 64.4482 17.0434 64.4482 16.8379V16.8105C64.4617 16.5685 64.4076 16.3312 64.291 16.1211C64.1788 15.9109 64.0038 15.737 63.793 15.6182C63.3353 15.3395 62.6981 15.2021 61.7783 15.2021C60.8588 15.2022 60.1367 15.3624 59.6387 15.6729C59.4099 15.819 59.2164 16.0246 59.0908 16.2666C58.9652 16.5087 58.9071 16.7786 58.916 17.0527C58.916 17.1121 58.8889 17.1669 58.8486 17.208C58.8083 17.2491 58.7497 17.2725 58.6914 17.2725H57.2695C57.2382 17.2725 57.2066 17.2675 57.1797 17.2539C57.1483 17.2448 57.1259 17.226 57.1035 17.2031C57.0812 17.1849 57.0671 17.1582 57.0537 17.1309C57.0403 17.1035 57.04 17.0758 57.04 17.0439C57.04 16.3678 57.2511 15.7003 57.6504 15.1475C58.0811 14.5809 58.6649 14.1475 59.3379 13.8916ZM80.4297 13.8779C81.9642 13.3205 83.6474 13.3066 85.1953 13.832C85.8411 14.0604 86.4106 14.4622 86.8457 14.9873C87.2675 15.5264 87.4873 16.1985 87.4648 16.8838V21.9414C87.4648 22.1606 87.4743 22.3707 87.4922 22.5762C87.5101 22.7542 87.5411 22.9281 87.5859 23.1016C87.6577 23.2841 87.7475 23.4581 87.8506 23.627L87.8447 23.6211C87.8642 23.6553 87.873 23.6891 87.873 23.7275C87.873 23.7641 87.8597 23.8059 87.8418 23.8379C87.8239 23.8742 87.7974 23.9017 87.7617 23.9199C87.7304 23.9427 87.6897 23.9521 87.6494 23.9521H86.2314C86.1911 23.9521 86.155 23.943 86.1191 23.9248C86.0833 23.9066 86.0566 23.8786 86.0342 23.8467C85.922 23.6457 85.8183 23.4397 85.7285 23.2295C85.6928 23.1292 85.6664 23.0198 85.6484 22.915C85.5094 23.0567 85.3515 23.1843 85.1855 23.2939C84.7505 23.5816 84.2708 23.7969 83.7686 23.9248C83.1628 24.0801 82.5387 24.153 81.915 24.1484C81.2017 24.1621 80.497 24.0387 79.833 23.7783C79.2677 23.5544 78.7792 23.1793 78.4248 22.6904C78.0838 22.1924 77.9039 21.5943 77.9219 20.9912C77.9039 20.3699 78.0964 19.7617 78.4688 19.2637C78.868 18.7795 79.3933 18.4097 79.9854 18.1904C80.6942 17.9255 81.4348 17.7521 82.1885 17.6836C83.0857 17.6105 83.9742 17.487 84.8535 17.3135C85.3157 17.2038 85.5498 17.0435 85.5498 16.8379V16.8105C85.5632 16.5686 85.5091 16.3311 85.3926 16.1211C85.2759 15.9109 85.1005 15.737 84.8896 15.6182C84.4365 15.3395 83.7902 15.2021 82.875 15.2021C81.9598 15.2022 81.2417 15.3622 80.7393 15.6729C80.5106 15.819 80.318 16.0247 80.1924 16.2666C80.0668 16.5087 80.0041 16.7786 80.0176 17.0527C80.0176 17.112 79.9904 17.1669 79.9502 17.208C79.9098 17.2491 79.8512 17.2724 79.793 17.2725H78.3662C78.3348 17.2725 78.3033 17.2676 78.2764 17.2539C78.245 17.2448 78.2226 17.226 78.2002 17.2031C78.1779 17.1849 78.1594 17.1581 78.1504 17.1309C78.137 17.1035 78.1377 17.0758 78.1377 17.0439C78.1332 16.3586 78.3438 15.6912 78.7432 15.1338C79.1738 14.5675 79.7569 14.1292 80.4297 13.8779ZM17.4355 13.4482C18.2161 13.4391 18.9967 13.5671 19.7324 13.832C20.3784 14.0604 20.9486 14.4621 21.3838 14.9873C21.8055 15.5264 22.0254 16.1985 22.0029 16.8838V21.9326C22.0029 22.1518 22.0123 22.3619 22.0303 22.5674C22.0482 22.7455 22.0792 22.9192 22.124 23.0928V23.0654C22.1958 23.2527 22.2816 23.4306 22.3848 23.5996C22.4027 23.6361 22.4111 23.6774 22.4111 23.7139C22.4111 23.7504 22.3978 23.7922 22.3799 23.8242C22.3575 23.8606 22.3307 23.888 22.2949 23.9062C22.2635 23.9291 22.223 23.9385 22.1826 23.9385H20.7646C20.7243 23.9385 20.6882 23.9284 20.6523 23.9102C20.6167 23.8919 20.5897 23.8649 20.5674 23.833C20.4552 23.632 20.3524 23.426 20.2627 23.2158C20.2269 23.1155 20.1996 23.0108 20.1816 22.9014C20.0426 23.0429 19.8856 23.1707 19.7197 23.2803C19.2891 23.5681 18.8087 23.7822 18.3018 23.9102C17.696 24.0655 17.0719 24.1393 16.4482 24.1348C15.7349 24.1484 15.0302 24.025 14.3662 23.7646C13.801 23.5408 13.3124 23.1655 12.958 22.6768C12.6171 22.1788 12.4416 21.5805 12.4551 20.9775C12.4282 20.3607 12.6165 19.748 12.9844 19.25C13.3881 18.7658 13.918 18.3964 14.5146 18.1816C15.228 17.9121 15.9775 17.7381 16.7402 17.665C17.6376 17.5919 18.5259 17.4685 19.4053 17.2949C19.8674 17.1853 20.1006 17.0249 20.1006 16.8193V16.792C20.114 16.55 20.0599 16.3126 19.9434 16.1025C19.8312 15.8924 19.6561 15.7184 19.4453 15.5996C18.9922 15.3211 18.3502 15.1846 17.4307 15.1846C16.5113 15.1846 15.7934 15.3438 15.291 15.6543C15.0577 15.805 14.8688 16.0108 14.7432 16.2529C14.6175 16.4951 14.5549 16.765 14.5684 17.0391C14.5684 17.0985 14.5414 17.1532 14.501 17.1943C14.4606 17.2354 14.402 17.2588 14.3438 17.2588H12.917C12.8543 17.2587 12.7957 17.2305 12.751 17.1895C12.7064 17.1438 12.6846 17.0846 12.6846 17.0254C12.6846 16.3492 12.8946 15.6817 13.2939 15.1289C13.7246 14.5625 14.3082 14.1243 14.9766 13.873C15.7617 13.5761 16.5965 13.4345 17.4355 13.4482ZM70.4961 8.87012C70.523 8.88382 70.5459 8.8971 70.5684 8.91992C70.5907 8.94269 70.6038 8.96588 70.6172 8.99316C70.6306 9.02052 70.6357 9.0527 70.6357 9.08008V17.3135C72.067 16.185 73.4311 14.9781 74.7188 13.6943C74.7366 13.6718 74.7589 13.6581 74.79 13.6445C74.8214 13.6308 74.8485 13.626 74.8799 13.626H76.5625C76.6072 13.626 76.6517 13.6403 76.6875 13.6631C76.7234 13.6905 76.7555 13.7226 76.7734 13.7637C76.7913 13.8047 76.8 13.8506 76.791 13.8916C76.782 13.9326 76.7637 13.974 76.7324 14.0059C75.5439 15.2481 74.2838 16.4221 72.9697 17.5273L77.0742 23.5996C77.0966 23.6315 77.1142 23.6728 77.1143 23.7139C77.1143 23.755 77.1049 23.7965 77.0869 23.833C77.0645 23.8695 77.0378 23.8971 77.002 23.9199C76.9662 23.9426 76.926 23.9521 76.8857 23.9521H75.3555C75.3197 23.9521 75.2838 23.9429 75.248 23.9248C75.2167 23.9111 75.1894 23.8834 75.167 23.8516L71.6855 18.5693L71.542 18.6836C71.246 18.9165 70.9407 19.1496 70.6357 19.3779V23.7412C70.6357 23.7731 70.6306 23.8008 70.6172 23.8281C70.6038 23.8554 70.5907 23.8786 70.5684 23.9014C70.5504 23.9242 70.523 23.943 70.4961 23.9521C70.4693 23.9657 70.4424 23.9697 70.4111 23.9697H69.043C69.0161 23.9697 68.9839 23.9613 68.957 23.9521C68.9301 23.9385 68.9081 23.9242 68.8857 23.9014C68.8633 23.8785 68.8449 23.8555 68.8359 23.8281C68.8226 23.8008 68.8184 23.7685 68.8184 23.7412V9.08008C68.8184 9.04817 68.8225 9.02053 68.8359 8.99316C68.8449 8.96584 68.8634 8.94271 68.8857 8.91992C68.9036 8.89732 68.9303 8.87923 68.957 8.87012C68.9839 8.85641 69.0116 8.85156 69.043 8.85156H70.4111C70.438 8.8516 70.4692 8.86101 70.4961 8.87012ZM56.5332 9.68359C56.5691 9.68359 56.6053 9.69266 56.6367 9.71094C56.668 9.72919 56.6954 9.75226 56.7178 9.78418C56.74 9.81602 56.7533 9.84838 56.7578 9.88477C56.7622 9.92113 56.7575 9.95742 56.7441 9.98926C56.5512 10.501 55.8786 12.2603 55.2998 13.6172C54.6538 15.1293 52.8365 18.6331 52.6523 18.9854V23.7412C52.6523 23.8006 52.6298 23.8602 52.585 23.9014C52.5402 23.9424 52.482 23.9657 52.4238 23.9658H50.9697C50.907 23.9658 50.8534 23.9424 50.8086 23.9014C50.7637 23.8602 50.7412 23.8006 50.7412 23.7412V18.9941C50.5521 18.641 48.7039 15.0424 48.0938 13.6172C47.542 12.3337 46.8738 10.5251 46.6807 9.99902C46.6672 9.96706 46.6625 9.93009 46.667 9.89355C46.6715 9.85707 46.6847 9.82037 46.707 9.79297C46.725 9.76099 46.7567 9.738 46.7881 9.71973C46.8239 9.70152 46.8597 9.69243 46.8955 9.69238H48.5244C48.5738 9.69238 48.6188 9.70599 48.6592 9.7334C48.6951 9.76081 48.7268 9.80198 48.7402 9.84766C48.8703 10.2543 49.5344 12.3336 50.0234 13.5215C50.4587 14.5951 51.3777 16.2717 51.6963 16.8428C52.3424 15.7737 52.917 14.6634 53.415 13.5166C53.9355 12.21 54.5235 10.2365 54.6357 9.85254C54.6492 9.80698 54.6756 9.76569 54.7158 9.73828C54.7562 9.7063 54.8061 9.69238 54.8555 9.69238H56.5332V9.68359ZM29.0518 13.4619C29.3971 13.4528 29.7471 13.4888 30.0879 13.5664C30.3077 13.6212 30.5192 13.6902 30.7256 13.7725H30.7344C30.8555 13.8364 30.9499 13.9646 30.8916 14.0469C30.833 14.1296 30.1108 15.2549 30.0977 15.2754C30.0662 15.3302 30.0206 15.3811 29.9668 15.4131C29.9356 15.4267 29.9039 15.4355 29.8682 15.4355C29.8324 15.4355 29.8009 15.4268 29.7695 15.4131C29.6574 15.3537 29.5319 15.308 29.4062 15.2852C29.2673 15.2623 29.1239 15.2568 28.9805 15.2568H28.6934C28.3299 15.2842 27.9797 15.3856 27.6611 15.5547C27.3426 15.7237 27.0728 15.9697 26.8799 16.2666C26.687 16.5636 26.548 16.8979 26.4717 17.2451C26.391 17.5968 26.3506 17.9534 26.3506 18.3096V23.7324C26.3506 23.7644 26.3465 23.7919 26.333 23.8193C26.3196 23.8467 26.3056 23.8697 26.2832 23.8926C26.2608 23.9153 26.2338 23.9333 26.207 23.9424C26.1757 23.9561 26.1486 23.9609 26.1172 23.9609H24.6729C24.6101 23.9609 24.5566 23.9376 24.5117 23.8965C24.4669 23.8554 24.4444 23.7966 24.4443 23.7373V13.8408C24.4444 13.7815 24.4714 13.7218 24.5117 13.6807C24.5565 13.6353 24.6147 13.6123 24.6729 13.6123H26.1172C26.18 13.6123 26.2344 13.6356 26.2793 13.6768C26.3239 13.7178 26.3466 13.7768 26.3467 13.8359V14.6406C26.396 14.5768 26.4492 14.5124 26.5029 14.4531C26.7991 14.1379 27.1587 13.8907 27.5625 13.7217C28.0335 13.5345 28.5404 13.4482 29.0518 13.4619ZM1.58789 9.69238C1.67312 9.69238 1.75906 9.72872 1.81738 9.78809C1.87571 9.84748 1.91113 9.93046 1.91113 10.0127V15.8691C4.02889 16.0108 6.15177 16.0108 8.26953 15.8691V10.0078C8.26953 9.92566 8.3006 9.84356 8.36328 9.78418C8.426 9.72487 8.50669 9.69248 8.5918 9.69238H9.85254L9.85742 9.69727C9.94252 9.69727 10.0232 9.7289 10.0859 9.78809C10.1443 9.84748 10.1807 9.92589 10.1807 10.0127V23.6406C10.1807 23.7229 10.1488 23.8058 10.0859 23.8652C10.0232 23.9244 9.94252 23.9561 9.85742 23.9561H8.59668C8.55181 23.9561 8.51108 23.9473 8.4707 23.9336C8.43501 23.9154 8.39943 23.8925 8.36816 23.8652C8.33679 23.8379 8.31384 23.8012 8.2959 23.7646C8.27795 23.7235 8.26953 23.6817 8.26953 23.6406V17.583C6.15177 17.7201 4.02889 17.7201 1.91113 17.583V23.6406C1.91113 23.7228 1.87564 23.801 1.81738 23.8604C1.75905 23.9197 1.67802 23.9521 1.59277 23.9521H0.327148C0.242028 23.9521 0.156873 23.9197 0.0986328 23.8604C0.0359041 23.801 6.45116e-05 23.7189 0 23.6367V10.0078C0 9.92576 0.0312148 9.84354 0.09375 9.78418C0.156565 9.72479 0.237993 9.69238 0.323242 9.69238H1.58789ZM101.289 9.87109L101.23 9.91602C98.7134 11.7938 96.4745 14.0149 94.5811 16.5049C96.4789 18.9948 98.718 21.2105 101.23 23.0928L101.289 23.1387L101.325 23.166L101.388 23.1152L101.469 23.0518L101.571 22.9736L101.647 22.9102C101.962 22.6771 102.214 22.4803 102.442 22.293L102.491 22.252L102.567 22.1924L102.832 21.9639C103.079 21.7583 103.317 21.5442 103.582 21.3203L103.824 21.1104L103.811 21.1055L103.909 21.0186C105.426 19.6388 106.812 18.1265 108.051 16.5C106.812 14.8735 105.426 13.3654 103.909 11.9902L103.815 11.9082L103.586 11.6797C103.339 11.4605 103.088 11.2455 102.842 11.04L102.442 10.7109C102.205 10.5282 101.953 10.3323 101.647 10.0947L101.571 10.0352L101.469 9.95703C101.442 9.9342 101.41 9.91151 101.379 9.88867L101.325 9.84277L101.289 9.87109ZM101.36 10.3096C101.607 10.4969 101.868 10.6977 102.155 10.9307L102.204 10.9668L102.155 11.0078C100.195 12.6383 98.4269 14.4788 96.8838 16.502C98.4269 18.5253 100.195 20.3703 102.155 22.001L102.204 22.042L102.155 22.083C101.859 22.316 101.603 22.5174 101.36 22.7002L101.329 22.7227L101.298 22.7002C99.2295 20.9595 97.3725 18.9852 95.7617 16.8242L95.5234 16.5088L95.7617 16.1895C97.3724 14.0285 99.2295 12.0542 101.298 10.3135L101.329 10.2861L101.36 10.3096ZM85.5449 18.8301C85.2129 18.9215 84.8762 18.9901 84.5352 19.0449C83.934 19.1409 83.2788 19.2232 82.6104 19.2871C81.8746 19.3237 81.1521 19.4876 80.4746 19.7754C80.2637 19.8759 80.0844 20.0363 79.9678 20.2373C79.8769 20.3882 79.8238 20.5545 79.8105 20.7266V21.0664C79.8208 21.232 79.8625 21.3931 79.9365 21.5439C80.0352 21.7449 80.1784 21.919 80.3623 22.0469C80.7392 22.3119 81.3452 22.4443 82.1572 22.4443C82.7495 22.4489 83.3421 22.3524 83.8984 22.1514C84.3739 21.9823 84.7909 21.69 85.1094 21.3018C85.4145 20.9043 85.5717 20.4199 85.5537 19.9219V18.8252L85.5449 18.8301ZM20.0967 18.8301C19.7602 18.9215 19.4187 18.9901 19.0732 19.0449C18.472 19.1409 17.8169 19.2231 17.1484 19.2871C16.4126 19.3237 15.6853 19.4876 15.0078 19.7754C14.797 19.8759 14.6176 20.0363 14.501 20.2373C14.38 20.4382 14.3259 20.6666 14.3438 20.8994C14.3303 21.1186 14.3756 21.3381 14.4697 21.5391C14.5639 21.7401 14.7076 21.9141 14.8916 22.042C15.2729 22.3069 15.8785 22.4394 16.6904 22.4395C17.2871 22.4486 17.8797 22.3484 18.4404 22.1475C18.916 21.9784 19.3338 21.6852 19.6523 21.2969C19.9573 20.8995 20.1146 20.4148 20.0967 19.917V18.8301ZM64.457 18.832C64.1235 18.9222 63.7857 18.9906 63.4434 19.0449C62.8422 19.1409 62.187 19.2232 61.5186 19.2871C60.7829 19.3237 60.0602 19.4877 59.3828 19.7754C59.1719 19.8759 58.9917 20.0363 58.875 20.2373C58.7842 20.3881 58.732 20.5546 58.7188 20.7266V21.0645C58.7301 21.2278 58.7733 21.3885 58.8438 21.5391C58.938 21.74 59.0862 21.9141 59.2656 22.042C59.647 22.307 60.2488 22.4395 61.0654 22.4395C61.6575 22.444 62.2455 22.3484 62.8018 22.1475C63.2728 21.9784 63.6942 21.6852 64.0127 21.2969C64.3177 20.8994 64.475 20.4149 64.457 19.917V18.832ZM35.6523 15.207C35.3081 15.2169 34.9694 15.2899 34.6514 15.4219C34.2881 15.568 33.9562 15.7918 33.6826 16.0703C33.1128 16.646 32.8252 17.5647 32.8252 18.7754C32.8252 19.9861 33.1122 20.8957 33.6865 21.4805C34.162 21.9418 34.7723 22.2432 35.4316 22.3301C36.0867 22.4215 36.7601 22.2931 37.3389 21.9688C37.7829 21.7175 38.1552 21.3567 38.4199 20.9229C38.6891 20.4798 38.8331 19.968 38.8242 19.4473V18.0215C38.8287 17.5144 38.6853 17.0209 38.4072 16.6006C38.1157 16.1621 37.716 15.8014 37.2451 15.5547C36.8099 15.3262 36.3246 15.207 35.8311 15.207H35.6523ZM102.572 11.2686C102.846 11.4924 103.093 11.7027 103.321 11.9082L103.362 11.9453L103.321 11.9814C101.805 13.3658 100.419 14.8784 99.1758 16.5049C100.419 18.1313 101.805 19.6437 103.321 21.0234L103.362 21.0645L103.321 21.1006C103.088 21.3016 102.837 21.5118 102.572 21.7402L102.536 21.7676L102.505 21.7402C100.872 20.2463 99.3865 18.5969 98.0674 16.8242L97.8301 16.5088L98.0674 16.1895C99.3865 14.4168 100.872 12.772 102.505 11.2734L102.536 11.2412L102.572 11.2686Z" fill="#808080"/>
</svg>
