<svg width="132" height="33" viewBox="0 0 132 33" fill="none" xmlns="http://www.w3.org/2000/svg">
<path d="M107.07 31.3036C107.427 31.3037 107.712 31.5752 107.712 31.9139C107.712 32.2524 107.427 32.5234 107.07 32.5234C106.713 32.5234 106.428 32.2525 106.428 31.9139C106.428 31.5752 106.713 31.3036 107.07 31.3036Z" fill="#808080"/>
<path d="M111.304 28.5264C111.804 28.5264 112.208 28.9103 112.208 29.3845C112.208 29.8586 111.804 30.2427 111.304 30.2427C110.805 30.2427 110.401 29.8587 110.4 29.3845C110.4 28.9103 110.805 28.5264 111.304 28.5264Z" fill="#808080"/>
<path d="M115.443 25.7032C116.038 25.7032 116.514 26.155 116.514 26.7196C116.514 27.2841 116.038 27.736 115.443 27.736C114.849 27.736 114.373 27.2841 114.373 26.7196C114.373 26.155 114.849 25.7032 115.443 25.7032Z" fill="#808080"/>
<path d="M107.07 25.9518C107.498 25.9519 107.855 26.2905 107.855 26.697C107.855 27.1034 107.498 27.442 107.07 27.4421C106.642 27.4421 106.285 27.1034 106.285 26.697C106.285 26.2905 106.642 25.9518 107.07 25.9518Z" fill="#808080"/>
<path d="M111.162 23.0834C111.875 23.0834 112.446 23.6258 112.446 24.3032C112.446 24.9807 111.875 25.5223 111.162 25.5223C110.448 25.5223 109.877 24.9807 109.877 24.3032C109.877 23.6258 110.448 23.0834 111.162 23.0834Z" fill="#808080"/>
<path d="M119.558 23.2868C120.153 23.2868 120.629 23.7387 120.629 24.3032C120.629 24.8678 120.153 25.3197 119.558 25.3197C118.964 25.3195 118.489 24.8677 118.489 24.3032C118.489 23.7387 118.964 23.287 119.558 23.2868Z" fill="#808080"/>
<path d="M115.3 19.8993C116.323 19.8993 117.132 20.6898 117.132 21.6383C117.132 22.6093 116.323 23.3772 115.3 23.3772C114.278 23.3771 113.469 22.6093 113.469 21.6383C113.469 20.6673 114.278 19.8994 115.3 19.8993Z" fill="#808080"/>
<path d="M123.698 20.6218C124.293 20.622 124.768 21.0739 124.768 21.6383C124.768 22.2027 124.293 22.6545 123.698 22.6547C123.104 22.6547 122.628 22.2028 122.628 21.6383C122.628 21.0737 123.104 20.6218 123.698 20.6218Z" fill="#808080"/>
<path d="M80.4991 13.2824C80.2613 13.5985 79.9995 13.915 79.7141 14.2536C79.4287 14.5698 79.0955 14.8862 78.7387 15.2249H73.8378C73.719 15.225 73.6242 15.2929 73.5529 15.4283C73.4816 15.5636 73.434 15.6763 73.4339 15.7666V15.8344C73.4339 15.8344 73.4577 15.8571 73.4815 15.9022C73.529 15.9248 73.553 15.97 73.5767 15.97C73.6242 16.0151 73.6714 16.038 73.7426 16.083C73.8114 16.1048 73.8584 16.1267 73.8616 16.1282H76.6926C77.0257 16.1282 77.2873 16.1962 77.5252 16.3543C77.763 16.4898 77.9293 16.6928 78.072 16.896C78.2147 17.1218 78.3102 17.3476 78.3816 17.6186C78.4529 17.8895 78.4768 18.1153 78.4768 18.3185V18.409C78.4768 18.6573 78.4291 18.9058 78.3101 19.1993C78.1912 19.4702 78.025 19.7413 77.8347 19.9671C77.6444 20.1929 77.4059 20.396 77.168 20.554C76.9064 20.7121 76.6447 20.7801 76.3831 20.7801H68.7949C68.8425 20.6897 68.938 20.5319 69.1044 20.3288C69.2471 20.1256 69.4134 19.9223 69.6036 19.6966C69.7701 19.4934 69.9371 19.2896 70.0798 19.1315C70.2218 18.9743 70.3166 18.8845 70.3409 18.8836H75.4085C75.5509 18.8836 75.6457 18.8381 75.6696 18.748C75.6934 18.6577 75.7172 18.5671 75.7172 18.4768V18.2959C75.7172 18.2283 75.6933 18.1383 75.6696 18.0707C75.6458 17.9803 75.5743 17.9576 75.5029 17.9576H72.5299C72.2207 17.9576 71.959 17.8896 71.7211 17.7542C71.4834 17.6188 71.2693 17.4382 71.1029 17.2351C70.9364 17.0318 70.7933 16.7828 70.6981 16.5343C70.603 16.286 70.5552 16.0375 70.5552 15.7892C70.5553 15.5634 70.6269 15.3149 70.7695 15.0214C70.9122 14.7279 71.0785 14.4568 71.3164 14.2084C71.5304 13.9601 71.7921 13.7343 72.0537 13.5537C72.339 13.3731 72.6009 13.2825 72.8862 13.2824H80.4991Z" fill="#808080"/>
<path d="M4.04372 17.6412L5.56678 16.1509H7.82633L8.94462 13.2598H11.7748L8.89699 20.7575H6.06598L7.08902 18.0707H3.87786L2.85482 20.7575H0L2.87863 13.2598H5.73263L4.04372 17.6412Z" fill="#808080"/>
<path d="M16.39 15.0214L18.5075 13.2598H21.6948L17.0082 17.1899L15.6289 20.7575H12.774L14.1542 17.1899L12.4653 13.2598H15.6527L16.39 15.0214Z" fill="#808080"/>
<path fill-rule="evenodd" clip-rule="evenodd" d="M29.2116 13.2598C29.497 13.2598 29.7111 13.3279 29.9013 13.4859C30.0916 13.6213 30.2348 13.8019 30.3537 14.0276C30.4727 14.2308 30.5672 14.4573 30.6148 14.7057C30.6624 14.9541 30.6863 15.1573 30.6863 15.3379C30.6862 15.7443 30.5916 16.106 30.3775 16.4221C30.1636 16.7381 29.9254 17.0312 29.6164 17.2795C29.3072 17.5279 28.974 17.7091 28.5934 17.8446C28.2366 17.9801 27.8796 18.0481 27.5465 18.0481H23.4076L22.3607 20.7575H19.5059L22.3845 13.2598H29.2116ZM23.6695 17.3473L25.0965 16.1509H27.4751C27.4751 16.1509 27.499 16.1282 27.5465 16.083C27.5703 16.0379 27.618 15.9926 27.6656 15.9248C27.7131 15.8571 27.7371 15.8117 27.7846 15.7666C27.8084 15.7215 27.8323 15.6761 27.8561 15.6536L27.8799 15.5865C27.8799 15.5865 27.8563 15.5638 27.8561 15.5413V15.5187C27.8323 15.4736 27.7845 15.4056 27.6894 15.3379C27.618 15.2475 27.5703 15.2249 27.5465 15.2249H24.502L23.6695 17.3473Z" fill="#808080"/>
<path fill-rule="evenodd" clip-rule="evenodd" d="M48.3612 13.2598C48.718 13.2598 49.0035 13.3278 49.2176 13.4633C49.4315 13.5987 49.5978 13.7794 49.7168 14.005C49.8357 14.2308 49.9073 14.4573 49.9311 14.7057C49.9548 14.9541 49.9787 15.2025 49.9787 15.4057C49.9787 15.8799 49.8593 16.286 49.5977 16.6022C49.3599 16.9182 49.0511 17.1667 48.6707 17.3473C48.2901 17.528 47.8854 17.6639 47.4334 17.7542C46.9814 17.8445 46.5529 17.8899 46.1722 17.9124L49.0985 20.7575H45.9112L42.842 18.0707L42.6754 18.1829L41.7008 20.7575H38.8459L41.7246 13.2598H48.3612ZM42.9849 17.3925L44.2937 16.1282H46.6723C46.815 16.1282 46.9342 16.0603 46.9818 15.9474C47.053 15.8122 47.0762 15.6993 47.0762 15.6091V15.4283H47.1C47.1 15.3605 47.0762 15.2926 47.0524 15.2475C47.0286 15.2024 46.9576 15.1797 46.839 15.1796H43.8413L42.9849 17.3925Z" fill="#808080"/>
<path fill-rule="evenodd" clip-rule="evenodd" d="M90.3707 13.2372C90.9414 13.2372 91.441 13.2826 91.8929 13.3955C92.3449 13.4858 92.7258 13.6443 93.035 13.8475C93.3442 14.0508 93.6058 14.3218 93.7723 14.6605C93.9388 14.9992 94.0342 15.3829 94.0342 15.857C94.0342 15.9925 94.0342 16.1284 94.0104 16.2639C94.0104 16.3993 93.9866 16.5346 93.9628 16.6926C93.8201 17.2345 93.6299 17.7314 93.3207 18.2281C93.0353 18.7249 92.6545 19.1545 92.2263 19.5158C91.7981 19.8771 91.2987 20.1934 90.7516 20.4192C90.2046 20.645 89.6335 20.7574 89.0389 20.7575H87.3024C86.7552 20.7575 86.2551 20.7122 85.7793 20.6218C85.3038 20.5315 84.9233 20.3963 84.5666 20.1931C84.2336 19.9899 83.972 19.7188 83.7817 19.3576C83.5914 19.0189 83.496 18.5673 83.4959 18.0481C83.4959 17.9352 83.496 17.8219 83.5198 17.6864C83.5198 17.5735 83.5436 17.4376 83.5674 17.3021C83.6388 16.7829 83.805 16.3085 84.1142 15.8118C84.3996 15.3376 84.7567 14.8862 85.1849 14.5023C85.613 14.1184 86.0893 13.8247 86.5889 13.5763C87.1121 13.3506 87.6355 13.2372 88.1587 13.2372H90.3707ZM88.4436 15.1344C88.2772 15.1345 88.1108 15.1798 87.9206 15.2475C87.7303 15.3152 87.5641 15.4284 87.3738 15.5639C87.1835 15.6994 87.0165 15.8346 86.8738 16.0152C86.7312 16.1732 86.5889 16.3313 86.5174 16.5117C86.4699 16.6246 86.4221 16.7379 86.3746 16.8282C86.327 16.9185 86.3031 17.0091 86.3031 17.0995C86.3268 17.1445 86.327 17.1674 86.327 17.2351V17.3247C86.327 17.5054 86.3508 17.664 86.4222 17.8446C86.4935 18.0251 86.5883 18.2057 86.7071 18.3411C86.826 18.4992 86.9692 18.6125 87.1357 18.7028C87.3021 18.793 87.4685 18.8384 87.6349 18.8384H88.8722C88.9673 18.8384 89.0862 18.7931 89.2762 18.7254C89.4665 18.6351 89.6574 18.5445 89.8477 18.409C90.0616 18.2735 90.2519 18.1382 90.4183 17.9576C90.6086 17.7996 90.7279 17.641 90.8231 17.4604C90.918 17.3252 90.9651 17.2348 90.9889 17.1447L91.0366 17.009L91.0604 16.896V16.8734C91.0604 16.8057 91.0842 16.7151 91.0842 16.6474V16.3995C91.0842 16.2414 91.0603 16.1055 91.0366 15.9474C91.0128 15.7895 90.9419 15.6541 90.8469 15.5413C90.7517 15.4284 90.6325 15.3378 90.4897 15.2475C90.347 15.1797 90.1331 15.1345 89.8953 15.1344H88.4436Z" fill="#808080"/>
<path d="M119.558 17.2795C120.558 17.2795 121.39 18.0476 121.39 19.0185C121.39 19.9896 120.581 20.7575 119.558 20.7575C118.536 20.7573 117.727 19.9895 117.727 19.0185C117.727 18.0476 118.536 17.2796 119.558 17.2795Z" fill="#808080"/>
<path d="M60.6122 13.2598C60.5409 13.3953 60.4216 13.5539 60.2551 13.7797C60.0886 13.9829 59.9223 14.2087 59.732 14.4119C59.5417 14.6151 59.3747 14.7955 59.1844 14.9536C59.018 15.1116 58.8757 15.1795 58.8042 15.1796H54.2129L53.3565 17.3925L54.7597 16.083H58.186L56.0685 17.9802H53.1422L52.0962 20.7349H49.2652L52.1438 13.2598H60.6122Z" fill="#808080"/>
<path d="M63.348 15.4961C63.1577 16.0379 63.0145 16.4216 62.9194 16.6926C62.8242 16.9636 62.7765 17.1221 62.7527 17.1899C62.7291 17.2573 62.7289 17.3023 62.7289 17.3473C62.6813 17.5506 62.6575 17.7091 62.6575 17.7994C62.6575 18.1381 62.7529 18.3865 62.9432 18.5672C63.1334 18.7478 63.3475 18.8384 63.5853 18.8384H64.3226C64.5605 18.8384 64.7752 18.7931 64.9893 18.7028C65.2033 18.6125 65.3696 18.4992 65.5361 18.3411C65.7025 18.2057 65.845 18.0478 65.9639 17.8898C66.0828 17.7318 66.1782 17.5733 66.2496 17.4604L67.8671 13.2598H70.6981L69.3663 16.7378C69.1285 17.3927 68.8661 17.9573 68.6044 18.4542C68.3428 18.9509 68.0572 19.3579 67.7242 19.6966C67.3913 20.0352 67.011 20.2838 66.583 20.4644C66.1549 20.645 65.6552 20.7348 65.0607 20.7349H63.3242C62.6107 20.7349 62.0395 20.6896 61.5638 20.6218C61.0881 20.5315 60.731 20.419 60.4455 20.2383C60.1602 20.0578 59.97 19.8544 59.8511 19.5836C59.7322 19.3126 59.6844 18.9963 59.6844 18.6124C59.6844 18.4995 59.6844 18.4088 59.7082 18.2959C59.7083 18.1831 59.7321 18.0704 59.7558 17.935C59.8034 17.6868 59.8743 17.4382 59.9693 17.2125C60.0169 17.0093 60.1123 16.7155 60.1836 16.3995L61.3495 13.2598H64.1567C63.7999 14.2309 63.5383 14.9767 63.348 15.4961Z" fill="#808080"/>
<path d="M81.3554 20.7349H78.5006L81.3793 13.2598H84.2333L81.3554 20.7349Z" fill="#808080"/>
<path d="M100.528 17.4604L102.146 13.2598H104.976L102.099 20.7349H98.5065L97.674 16.5343L96.0565 20.7349H93.2017L96.0803 13.2598H99.6716L100.528 17.4604Z" fill="#808080"/>
<path d="M40.892 13.2598C40.8207 13.3953 40.7014 13.5539 40.5349 13.7797C40.3684 13.9829 40.2021 14.2087 40.0118 14.4119C39.8216 14.6151 39.6545 14.7955 39.4642 14.9536C39.2979 15.1115 39.1555 15.1795 39.084 15.1796H34.4927L33.6363 17.3925L35.0395 16.083H38.465L36.3483 17.9802H33.3982L33.0657 18.8384H38.7745C38.7743 18.8611 38.7503 18.9058 38.7031 18.9507C38.6555 19.0184 38.6316 19.0863 38.584 19.1315C38.5482 19.1825 38.5261 19.2336 38.497 19.2749L38.4116 19.3747C38.3998 19.3915 38.3935 19.4028 38.3935 19.4028C38.2985 19.5156 38.1797 19.651 38.0372 19.8089C37.8945 19.9669 37.7275 20.1029 37.5848 20.2383C37.4422 20.3737 37.2997 20.4864 37.1808 20.5766C37.0619 20.667 37.0141 20.7123 36.9903 20.7123H29.4974L32.3752 13.2372H40.892V13.2598Z" fill="#808080"/>
<path d="M111.162 17.1899C112.042 17.1899 112.731 17.8672 112.731 18.6802C112.731 19.4931 112.042 20.1705 111.162 20.1705C110.305 20.1705 109.592 19.4931 109.592 18.6802C109.592 17.8672 110.281 17.1899 111.162 17.1899Z" fill="#808080"/>
<path d="M127.932 18.1829C128.432 18.1831 128.836 18.5445 128.813 19.0185C128.813 19.47 128.408 19.8539 127.932 19.8541C127.457 19.8541 127.052 19.4927 127.052 19.0185C127.052 18.567 127.433 18.1829 127.932 18.1829Z" fill="#808080"/>
<path d="M115.3 14.2536C116.585 14.2536 117.608 15.2252 117.608 16.4447C117.608 17.6414 116.585 18.635 115.3 18.635C114.016 18.6349 112.994 17.6639 112.993 16.4447C112.993 15.2479 114.016 14.2537 115.3 14.2536Z" fill="#808080"/>
<path d="M123.698 14.7057C124.721 14.7059 125.529 15.4738 125.529 16.4447C125.529 17.4155 124.721 18.1827 123.698 18.1829C122.676 18.1829 121.867 17.4156 121.867 16.4447C121.867 15.4736 122.675 14.7057 123.698 14.7057Z" fill="#808080"/>
<path d="M131.382 15.744C131.715 15.7441 132 16.0156 132 16.3317C132 16.6476 131.738 16.9185 131.382 16.9186C131.049 16.9186 130.763 16.6477 130.763 16.3317C130.763 16.0155 131.025 15.744 131.382 15.744Z" fill="#808080"/>
<path d="M119.558 12.086C120.558 12.086 121.39 12.8539 121.39 13.8249C121.39 14.7959 120.581 15.5639 119.558 15.5639C118.536 15.5638 117.727 14.7958 117.727 13.8249C117.727 12.854 118.536 12.0861 119.558 12.086Z" fill="#808080"/>
<path d="M111.162 12.4016C111.875 12.4016 112.446 12.944 112.446 13.6215C112.446 14.299 111.875 14.8406 111.162 14.8406C110.472 14.8406 109.877 14.299 109.877 13.6215C109.877 12.944 110.448 12.4017 111.162 12.4016Z" fill="#808080"/>
<path d="M127.932 12.9894C128.432 12.9895 128.836 13.3734 128.813 13.8249C128.813 14.2764 128.408 14.6604 127.932 14.6605C127.457 14.6605 127.052 14.2991 127.052 13.8249C127.052 13.3733 127.433 12.9894 127.932 12.9894Z" fill="#808080"/>
<path d="M115.3 9.4888C116.323 9.4888 117.132 10.2567 117.132 11.2278C117.132 12.1988 116.323 12.9668 115.3 12.9668C114.278 12.9667 113.469 12.1987 113.469 11.2278C113.469 10.2568 114.278 9.4889 115.3 9.4888Z" fill="#808080"/>
<path d="M123.698 10.2114C124.293 10.2116 124.768 10.6633 124.768 11.2278C124.768 11.7922 124.293 12.244 123.698 12.2442C123.127 12.2442 122.651 11.7923 122.628 11.2278C122.628 10.6632 123.104 10.2114 123.698 10.2114Z" fill="#808080"/>
<path d="M111.162 7.45597C111.875 7.45597 112.446 7.99834 112.446 8.67582C112.446 9.35331 111.875 9.89568 111.162 9.89568C110.472 9.89566 109.877 9.35329 109.877 8.67582C109.877 7.99835 110.448 7.45599 111.162 7.45597Z" fill="#808080"/>
<path d="M119.487 7.6142C120.082 7.6142 120.558 8.06606 120.558 8.63061C120.558 9.19518 120.082 9.64703 119.487 9.64703C118.916 9.64686 118.441 9.19508 118.417 8.63061C118.417 8.06616 118.893 7.61436 119.487 7.6142Z" fill="#808080"/>
<path d="M115.3 4.99521C115.895 4.99521 116.371 5.44637 116.371 6.01084C116.371 6.57542 115.895 7.02726 115.3 7.02726C114.706 7.02716 114.23 6.57535 114.23 6.01084C114.23 5.44643 114.706 4.99531 115.3 4.99521Z" fill="#808080"/>
<path d="M107.07 5.26568C107.498 5.26577 107.855 5.60449 107.855 6.01084C107.855 6.41728 107.498 6.75592 107.07 6.75601C106.642 6.75601 106.285 6.41734 106.285 6.01084C106.285 5.60444 106.642 5.26568 107.07 5.26568Z" fill="#808080"/>
<path d="M111.162 2.46586C111.661 2.46586 112.066 2.8498 112.066 3.32404C112.065 3.79812 111.661 4.18145 111.162 4.18145C110.686 4.18143 110.258 3.7981 110.258 3.32404C110.258 2.84981 110.662 2.46588 111.162 2.46586Z" fill="#808080"/>
<path d="M107.07 0.523438C107.332 0.523522 107.522 0.726497 107.522 0.952141C107.522 1.2005 107.308 1.38154 107.07 1.38162C106.809 1.38162 106.618 1.20055 106.618 0.952141C106.618 0.703907 106.809 0.523438 107.07 0.523438Z" fill="#808080"/>
</svg>
