<svg width="31" height="33" viewBox="0 0 31 33" fill="none" xmlns="http://www.w3.org/2000/svg">
<path d="M3.45163 20.0847V15.0508L11.0945 7.5H16.8746L3.45163 20.0847ZM0 25.2203V7.5H4.30084V25.2203H0ZM11.8341 25.2203L6.08144 16.7034L9.28652 13.9322L16.9294 25.2203H11.8341Z" fill="#808080"/>
<path d="M23.7954 25.5C22.5353 25.5 21.3848 25.2542 20.3438 24.7627C19.3211 24.2542 18.481 23.5847 17.8236 22.7542C17.1844 21.9237 16.7917 21 16.6456 19.9831L20.6999 19.3475C20.7182 19.6864 20.8277 20.0508 21.0286 20.4407C21.2478 20.8305 21.5765 21.161 22.0148 21.4322C22.4714 21.7034 23.0466 21.839 23.7406 21.839C24.4711 21.839 25.0373 21.6949 25.439 21.4068C25.8591 21.1017 26.1604 20.7288 26.343 20.2881C26.5257 19.8305 26.617 19.3814 26.617 18.9407C26.617 18.5169 26.5257 18.1186 26.343 17.7458C26.1787 17.3559 25.8865 17.0424 25.4664 16.8051C25.0464 16.5508 24.4711 16.4237 23.7406 16.4237C23.0101 16.4237 22.4257 16.5678 21.9874 16.8559C21.5491 17.1441 21.2204 17.4576 21.0012 17.7966L17.1935 16.9322L19.1111 7.5H30.1782V11.0593H20.6451L22.8366 9.45763L21.7135 14.7712L20.3438 14.4153C21.056 13.7034 21.7591 13.2627 22.4531 13.0932C23.1654 12.9237 23.7863 12.839 24.3159 12.839C25.6491 12.839 26.8179 13.1271 27.8223 13.7034C28.8268 14.2627 29.6029 15.0085 30.1508 15.9407C30.7169 16.8729 31 17.8729 31 18.9407C31 19.7881 30.8265 20.6017 30.4795 21.3814C30.1325 22.161 29.6394 22.8644 29.0002 23.4915C28.3611 24.1017 27.594 24.5932 26.6992 24.9661C25.8226 25.322 24.8546 25.5 23.7954 25.5Z" fill="#808080"/>
</svg>
