<svg width="100" height="33" viewBox="0 0 100 33" fill="none" xmlns="http://www.w3.org/2000/svg">
<path d="M20.0644 22.0596H14.7953V15.1622H14.6697L11.7687 22.0583H8.02042L5.08015 15.1154H4.94697V22.0583H0V10.9428H7.78576L9.83939 16.2201H9.96496L11.9881 10.9428H20.0644V22.0596Z" fill="#808080"/>
<path d="M32.9809 20.7667H26.8264L26.1516 22.0596H20.3814L26.5347 10.9428H33.3006L39.4158 22.0596H33.6608L32.9784 20.7667H32.9809ZM29.8364 14.8128C29.3976 15.7305 28.8953 16.7441 28.3308 17.8549H31.4677L29.962 14.8128H29.8364Z" fill="#808080"/>
<path d="M56.2773 10.9428V22.0596H50.2864L44.8219 16.4095H44.6888V22.0596H39.7253V10.9428H45.7784L51.1807 16.5092H51.3063V10.9428H56.2773Z" fill="#808080"/>
<path d="M73.1126 14.7894H67.7103V22.0583H62.4411V14.7894H57.0388V10.9428H73.1126V14.7907V14.7894Z" fill="#808080"/>
<path d="M73.8744 22.0596V10.9428H79.136V22.0596H73.8744Z" fill="#808080"/>
<path d="M88.2791 13.269C87.4686 13.269 86.894 13.3355 86.554 13.4671C86.2141 13.5987 86.0441 13.7919 86.0441 14.0453C86.0441 14.2581 86.1545 14.4155 86.3739 14.5164C86.5933 14.6173 86.9802 14.6862 87.5345 14.7218L92.4663 15.0798C93.2451 15.1352 93.9174 15.2385 94.4818 15.3873C95.0463 15.5374 95.5334 15.7465 95.9444 16.0147C96.3541 16.2829 96.6623 16.6249 96.8653 17.037C97.0682 17.4491 97.171 17.9436 97.171 18.5156C97.171 18.9867 97.1139 19.4062 96.9985 19.774C96.883 20.1418 96.7156 20.4641 96.4961 20.7434C96.2767 21.0226 95.9837 21.2625 95.6184 21.4655C95.2531 21.6684 94.8459 21.8357 94.3994 21.9674C93.9529 22.099 93.4163 22.2048 92.7923 22.2835C92.1682 22.3622 91.5124 22.4176 90.8287 22.4508C90.1437 22.484 89.3548 22.5 88.4605 22.5C87.2377 22.5 86.19 22.4631 85.3198 22.3893C84.4497 22.3155 83.6569 22.1888 82.9402 22.0092C82.2235 21.8296 81.6477 21.5848 81.2113 21.276C80.775 20.9672 80.435 20.5748 80.1915 20.1012C79.9479 19.6276 79.8135 19.0605 79.7881 18.4012H85.9274C86.053 18.8883 86.3232 19.2315 86.7392 19.432C87.1553 19.6325 87.7654 19.7322 88.5696 19.7322C90.1793 19.7322 90.9847 19.4357 90.9847 18.8428C90.9847 18.5943 90.8706 18.4184 90.6435 18.3138C90.4165 18.2093 90.0334 18.133 89.4943 18.0813L84.7896 17.6779C84.1833 17.6274 83.6493 17.5548 83.1863 17.4614C82.7233 17.3679 82.2882 17.2362 81.881 17.0665C81.4739 16.8967 81.1403 16.6888 80.8815 16.4428C80.6227 16.1968 80.4198 15.8917 80.2739 15.5263C80.128 15.161 80.0545 14.7403 80.0545 14.2642C80.0545 13.6811 80.1737 13.1731 80.4109 12.7401C80.6481 12.3071 80.9881 11.9479 81.4307 11.6637C81.8722 11.3795 82.4404 11.1507 83.1355 10.9761C83.8307 10.8014 84.5993 10.6784 85.4403 10.607C86.2813 10.5357 87.2593 10.5 88.373 10.5C89.4867 10.5 90.4494 10.5357 91.2777 10.607C92.106 10.6784 92.8684 10.8014 93.5635 10.9761C94.2586 11.1507 94.8269 11.3832 95.2683 11.6723C95.7097 11.9614 96.056 12.3255 96.3072 12.7635C96.5583 13.2014 96.6966 13.7205 96.7232 14.3183H90.6778C90.4951 13.6184 89.6947 13.269 88.2779 13.269H88.2791Z" fill="#808080"/>
<path d="M98.8647 12.8902C98.7062 12.8902 98.559 12.8607 98.4208 12.8028C98.2825 12.745 98.162 12.6651 98.0593 12.5654C97.9565 12.4658 97.8741 12.3489 97.8145 12.2148C97.7548 12.0808 97.7244 11.9368 97.7244 11.7843C97.7244 11.6318 97.7548 11.4903 97.8145 11.3562C97.8741 11.2221 97.9565 11.1065 98.0593 11.0068C98.162 10.9084 98.2825 10.8297 98.4208 10.7707C98.559 10.7116 98.7062 10.6833 98.8647 10.6833C99.0233 10.6833 99.1679 10.7128 99.3062 10.7707C99.4444 10.8285 99.5649 10.9072 99.6677 11.0068C99.7704 11.1053 99.8516 11.2221 99.9112 11.3562C99.9696 11.4903 100 11.633 100 11.7843C100 11.9356 99.9708 12.0808 99.9112 12.2148C99.8516 12.3489 99.7717 12.4658 99.6677 12.5654C99.5649 12.6651 99.4444 12.745 99.3062 12.8028C99.1679 12.8607 99.0207 12.8902 98.8647 12.8902ZM98.8647 12.745C99.003 12.745 99.1298 12.7204 99.2478 12.6712C99.3645 12.622 99.4647 12.5544 99.5497 12.467C99.6334 12.3809 99.6994 12.2788 99.7476 12.1632C99.7958 12.0463 99.8199 11.9208 99.8199 11.7843C99.8199 11.6477 99.7958 11.5247 99.7476 11.4091C99.6994 11.2922 99.6334 11.1914 99.5497 11.1065C99.466 11.0216 99.3645 10.9539 99.2478 10.9047C99.1311 10.8555 99.003 10.8309 98.8647 10.8309C98.7265 10.8309 98.5984 10.8555 98.4804 10.9047C98.3624 10.9539 98.2609 11.0216 98.176 11.1065C98.091 11.1914 98.0237 11.2922 97.9768 11.4091C97.9286 11.526 97.9045 11.6502 97.9045 11.7843C97.9045 11.9184 97.9286 12.0463 97.9768 12.1632C98.025 12.28 98.091 12.3809 98.176 12.467C98.2609 12.5531 98.3624 12.6208 98.4804 12.6712C98.5984 12.7204 98.7265 12.745 98.8647 12.745ZM99.4406 11.986C99.4343 12.0525 99.4165 12.1115 99.3848 12.1644C99.3544 12.2173 99.3138 12.2628 99.2668 12.2997C99.2186 12.3366 99.1654 12.3649 99.1045 12.3846C99.0449 12.4043 98.9814 12.4141 98.9155 12.4141C98.8191 12.4141 98.7328 12.3981 98.6554 12.3649C98.5781 12.3317 98.5121 12.2874 98.4576 12.2308C98.403 12.1742 98.3599 12.1078 98.3294 12.0303C98.299 11.9528 98.285 11.8679 98.285 11.7769C98.285 11.6859 98.299 11.6022 98.3269 11.5247C98.3548 11.4485 98.3954 11.382 98.45 11.3255C98.5045 11.2689 98.5692 11.2246 98.6466 11.1926C98.7239 11.1606 98.8102 11.1446 98.9066 11.1446C99.0449 11.1446 99.1628 11.1803 99.2605 11.2529C99.3582 11.3255 99.419 11.4276 99.4406 11.5616H99.2782C99.2618 11.4743 99.2199 11.4042 99.1489 11.3525C99.0791 11.2996 98.9992 11.2738 98.9091 11.2738C98.833 11.2738 98.7671 11.2873 98.7113 11.3131C98.6554 11.339 98.6085 11.3747 98.5717 11.4214C98.5349 11.4681 98.507 11.5198 98.488 11.5813C98.469 11.6428 98.4601 11.7068 98.4601 11.7744C98.4601 11.8421 98.4702 11.9048 98.4905 11.9663C98.5108 12.0279 98.54 12.0832 98.5793 12.1312C98.6186 12.1792 98.6656 12.2161 98.7214 12.2444C98.7772 12.2727 98.8419 12.2862 98.9167 12.2862C98.9611 12.2862 99.003 12.2788 99.0449 12.2653C99.0854 12.2517 99.1235 12.2321 99.1565 12.2062C99.1895 12.1804 99.2174 12.1484 99.2389 12.1115C99.2605 12.0746 99.2744 12.0328 99.2808 11.986H99.4431H99.4406Z" fill="#808080"/>
</svg>
