<svg width="158" height="33" viewBox="0 0 158 33" fill="none" xmlns="http://www.w3.org/2000/svg">
<path d="M0 25.5V11.7296H2.78047V13.0083H2.87976C3.09161 12.7329 3.3498 12.4706 3.65433 12.2214C4.3693 11.6968 5.17034 11.4345 6.05744 11.4345C7.38147 11.4345 8.48703 11.9263 9.37411 12.9099C10.2745 13.8804 10.7246 15.1591 10.7246 16.746C10.7246 18.3328 10.2745 19.6181 9.37411 20.6016C8.48703 21.5721 7.38147 22.0574 6.05744 22.0574C5.17034 22.0574 4.3693 21.7951 3.65433 21.2705C3.3498 21.0213 3.09161 20.7591 2.87976 20.4837H2.78047V25.5H0ZM3.49544 14.5821C3.01879 15.0935 2.78047 15.8148 2.78047 16.746C2.78047 17.6771 3.01879 18.405 3.49544 18.9295C3.97209 19.441 4.59439 19.6968 5.36232 19.6968C6.09054 19.6968 6.68635 19.4345 7.14977 18.9099C7.61317 18.3853 7.84485 17.664 7.84485 16.746C7.84485 15.8279 7.61317 15.1067 7.14977 14.5821C6.68635 14.0575 6.09054 13.7952 5.36232 13.7952C4.59439 13.7952 3.97209 14.0575 3.49544 14.5821Z" fill="#808080"/>
<path d="M12.2143 21.7621V11.7294H14.9947V13.2048H15.0941C15.2132 12.89 15.392 12.6146 15.6303 12.3786C16.1731 11.8146 16.855 11.5327 17.6759 11.5327H20.4564V14.1884H17.378C16.6233 14.1884 16.0341 14.3917 15.6105 14.7982C15.2 15.1916 14.9947 15.7425 14.9947 16.4507V21.7621H12.2143Z" fill="#808080"/>
<path d="M22.4478 20.523C21.3886 19.4869 20.859 18.2279 20.859 16.746C20.859 15.264 21.3886 14.0116 22.4478 12.9886C23.5071 11.9526 24.8311 11.4345 26.42 11.4345C27.9955 11.4345 29.313 11.9526 30.3722 12.9886C31.4447 14.0116 31.9809 15.264 31.9809 16.746C31.9809 18.2279 31.4447 19.4869 30.3722 20.523C29.313 21.546 27.9955 22.0574 26.42 22.0574C24.8311 22.0574 23.5071 21.546 22.4478 20.523ZM24.5133 14.6214C23.9969 15.1722 23.7387 15.8804 23.7387 16.746C23.7387 17.6116 23.9969 18.3197 24.5133 18.8705C25.0297 19.4214 25.6652 19.6968 26.42 19.6968C27.1746 19.6968 27.8102 19.4214 28.3265 18.8705C28.8429 18.3197 29.1011 17.6116 29.1011 16.746C29.1011 15.8804 28.8429 15.1722 28.3265 14.6214C27.8102 14.0706 27.1746 13.7952 26.42 13.7952C25.6652 13.7952 25.0297 14.0706 24.5133 14.6214Z" fill="#808080"/>
<path d="M34.2122 20.6016C33.3251 19.6179 32.8815 18.3327 32.8815 16.7458C32.8815 15.1589 33.3251 13.8803 34.2122 12.9098C35.1125 11.9262 36.2248 11.4344 37.5488 11.4344C38.4359 11.4344 39.2369 11.6967 39.9519 12.2213C40.2564 12.4704 40.5146 12.7327 40.7264 13.0081H40.8258V7.5H43.6062V21.7622H40.8258V20.4835H40.7264C40.5146 20.7589 40.2564 21.0212 39.9519 21.2704C39.2369 21.795 38.4359 22.0572 37.5488 22.0572C36.2248 22.0572 35.1125 21.572 34.2122 20.6016ZM36.4564 14.5819C35.993 15.1065 35.7613 15.8278 35.7613 16.7458C35.7613 17.6638 35.993 18.3852 36.4564 18.9097C36.9198 19.4344 37.5157 19.6966 38.2439 19.6966C39.0118 19.6966 39.6341 19.4409 40.1107 18.9294C40.5874 18.4048 40.8258 17.677 40.8258 16.7458C40.8258 15.8147 40.5874 15.0934 40.1107 14.5819C39.6341 14.0573 39.0118 13.795 38.2439 13.795C37.5157 13.795 36.9198 14.0573 36.4564 14.5819Z" fill="#808080"/>
<path d="M45.5921 17.8273V11.729H48.3726V17.4338C48.3726 18.1683 48.5513 18.7322 48.9088 19.1257C49.2796 19.506 49.7959 19.6961 50.4579 19.6961C51.12 19.6961 51.6826 19.447 52.1461 18.9486C52.6095 18.4502 52.8412 17.8141 52.8412 17.0404V11.729H55.6216V21.7617H52.8412V20.3847H52.7419C52.583 20.6862 52.338 20.9682 52.0071 21.2305C51.292 21.7814 50.4778 22.0568 49.5642 22.0568C48.3064 22.0568 47.3266 21.6961 46.6249 20.9748C45.9364 20.2535 45.5921 19.2043 45.5921 17.8273Z" fill="#808080"/>
<path d="M58.5854 20.523C57.5394 19.4869 57.0164 18.2279 57.0164 16.746C57.0164 15.264 57.5394 14.0116 58.5854 12.9886C59.6446 11.9526 60.9421 11.4345 62.4781 11.4345C64.3185 11.4345 65.7219 12.0903 66.6885 13.4017C67.1254 13.9657 67.4431 14.6214 67.6418 15.3689H64.762C64.6428 15.0804 64.4839 14.8181 64.2853 14.5821C63.7822 14.0575 63.1798 13.7952 62.4781 13.7952C61.7763 13.7952 61.1673 14.0706 60.6509 14.6214C60.1477 15.1722 59.8962 15.8804 59.8962 16.746C59.8962 17.6116 60.1477 18.3197 60.6509 18.8705C61.1673 19.4214 61.7763 19.6968 62.4781 19.6968C63.1798 19.6968 63.7822 19.4345 64.2853 18.9099C64.4839 18.6739 64.6428 18.4115 64.762 18.123H67.6418C67.4564 18.8836 67.1518 19.5394 66.7282 20.0902C65.7617 21.4017 64.3449 22.0574 62.4781 22.0574C60.9421 22.0574 59.6446 21.546 58.5854 20.523Z" fill="#808080"/>
<path d="M68.2371 14.0901V11.7295H69.528V7.5H72.3085V11.7295H84.8202V14.0901H72.3085V19.4016H84.8202V21.7622H69.528V14.0901H68.2371Z" fill="#808080"/>
<path d="M85.5061 18.5164H88.3858C88.4785 18.7525 88.6243 18.9689 88.8226 19.1656C89.2465 19.5853 89.8291 19.7951 90.5705 19.7951C91.6962 19.7951 92.2583 19.4673 92.2583 18.8116C92.2583 18.7066 92.2325 18.6148 92.1793 18.5361C92.1262 18.4443 92.0335 18.3656 91.9013 18.3001C91.7684 18.2214 91.643 18.1558 91.5238 18.1033C91.4045 18.0509 91.226 17.9984 90.9875 17.946C90.7626 17.8804 90.5773 17.8345 90.4314 17.8083C90.2993 17.782 90.0805 17.7361 89.7759 17.6705C89.485 17.605 89.273 17.5591 89.1409 17.5328C87.0489 17.0869 86.0029 16.0706 86.0029 14.4837C86.0029 13.6444 86.3797 12.9296 87.1347 12.3394C87.9027 11.7362 88.9487 11.4345 90.2727 11.4345C92.0464 11.4345 93.3772 11.9788 94.2645 13.0673C94.6488 13.5394 94.9063 14.0771 95.0393 14.6804H92.2583C92.1656 14.4837 92.0464 14.3198 91.9013 14.1886C91.4904 13.8607 90.948 13.6968 90.2727 13.6968C89.7956 13.6968 89.4447 13.7755 89.2199 13.9329C88.995 14.0771 88.8826 14.2607 88.8826 14.4837C88.8826 14.5624 88.8955 14.6411 88.9221 14.7198C88.9616 14.7853 89.0216 14.8509 89.1006 14.9165C89.1804 14.9689 89.2594 15.0214 89.3391 15.0739C89.4189 15.1132 89.5313 15.1591 89.6764 15.2116C89.8222 15.2509 89.9483 15.2903 90.0539 15.3296C90.1732 15.3689 90.3259 15.4083 90.5112 15.4476C90.6966 15.487 90.8553 15.5198 90.9875 15.546C91.1197 15.5722 91.2921 15.6116 91.504 15.664C91.716 15.7034 91.8876 15.7361 92.0206 15.7624C94.0989 16.2214 95.138 17.2378 95.138 18.8116C95.138 19.6902 94.7278 20.4509 93.9067 21.0935C93.0863 21.7361 91.9742 22.0574 90.5705 22.0574C88.6904 22.0574 87.3003 21.4672 86.3994 20.2869C85.9892 19.7492 85.6915 19.159 85.5061 18.5164Z" fill="#808080"/>
<path d="M97.5073 20.523C96.4613 19.4869 95.9387 18.2279 95.9387 16.746C95.9387 15.264 96.4613 14.0116 97.5073 12.9886C98.5669 11.9526 99.8643 11.4345 101.4 11.4345C103.241 11.4345 104.644 12.0903 105.611 13.4017C106.048 13.9657 106.365 14.6214 106.564 15.3689H103.684C103.565 15.0804 103.406 14.8181 103.207 14.5821C102.705 14.0575 102.102 13.7952 101.4 13.7952C100.698 13.7952 100.089 14.0706 99.5727 14.6214C99.0698 15.1722 98.8184 15.8804 98.8184 16.746C98.8184 17.6116 99.0698 18.3197 99.5727 18.8705C100.089 19.4214 100.698 19.6968 101.4 19.6968C102.102 19.6968 102.705 19.4345 103.207 18.9099C103.406 18.6739 103.565 18.4115 103.684 18.123H106.564C106.379 18.8836 106.074 19.5394 105.65 20.0902C104.684 21.4017 103.267 22.0574 101.4 22.0574C99.8643 22.0574 98.5669 21.546 97.5073 20.523Z" fill="#808080"/>
<path d="M108.211 10.018C107.906 9.71637 107.754 9.36883 107.754 8.9754C107.754 8.58196 107.906 8.24098 108.211 7.95245C108.529 7.65082 108.906 7.5 109.344 7.5C109.78 7.5 110.151 7.65082 110.456 7.95245C110.773 8.24098 110.932 8.58196 110.932 8.9754C110.932 9.36883 110.773 9.71637 110.456 10.018C110.151 10.3065 109.78 10.4508 109.344 10.4508C108.906 10.4508 108.529 10.3065 108.211 10.018ZM107.953 21.7622V11.7295H110.734V21.7622H107.953Z" fill="#808080"/>
<path d="M113.692 20.523C112.646 19.4869 112.124 18.2279 112.124 16.746C112.124 15.264 112.646 14.0116 113.692 12.9886C114.752 11.9526 116.049 11.4345 117.585 11.4345C119.148 11.4345 120.432 11.946 121.438 12.9689C122.445 13.9919 122.948 15.2509 122.948 16.746V17.3361H115.003C115.109 17.9919 115.408 18.5492 115.898 19.0083C116.388 19.4673 116.95 19.6968 117.585 19.6968C118.287 19.6968 118.89 19.5 119.393 19.1066C119.592 18.9361 119.75 18.7394 119.87 18.5164H122.848C122.623 19.1853 122.292 19.7754 121.855 20.2869C120.796 21.4672 119.373 22.0574 117.585 22.0574C116.049 22.0574 114.752 21.546 113.692 20.523ZM115.103 15.664H119.968C119.863 15.1394 119.592 14.7001 119.154 14.346C118.731 13.9788 118.208 13.7952 117.585 13.7952C116.963 13.7952 116.434 13.9722 115.996 14.3263C115.56 14.6804 115.262 15.1263 115.103 15.664Z" fill="#808080"/>
<path d="M124.43 21.7623V11.7296H127.211V13.1067H127.309C127.482 12.805 127.726 12.5296 128.045 12.2804C128.772 11.7165 129.587 11.4345 130.487 11.4345C131.745 11.4345 132.718 11.7952 133.407 12.5165C134.109 13.2378 134.46 14.287 134.46 15.664V21.7623H131.679V16.0574C131.679 15.323 131.493 14.7657 131.123 14.3853C130.766 13.9919 130.255 13.7952 129.593 13.7952C128.931 13.7952 128.369 14.0444 127.906 14.5427C127.442 15.041 127.211 15.6771 127.211 16.4509V21.7623H124.43Z" fill="#808080"/>
<path d="M137.326 20.523C136.28 19.4869 135.757 18.2279 135.757 16.746C135.757 15.264 136.28 14.0116 137.326 12.9886C138.385 11.9526 139.683 11.4345 141.219 11.4345C143.059 11.4345 144.463 12.0903 145.429 13.4017C145.866 13.9657 146.184 14.6214 146.382 15.3689H143.503C143.383 15.0804 143.225 14.8181 143.026 14.5821C142.523 14.0575 141.92 13.7952 141.219 13.7952C140.517 13.7952 139.908 14.0706 139.392 14.6214C138.889 15.1722 138.637 15.8804 138.637 16.746C138.637 17.6116 138.889 18.3197 139.392 18.8705C139.908 19.4214 140.517 19.6968 141.219 19.6968C141.92 19.6968 142.523 19.4345 143.026 18.9099C143.225 18.6739 143.383 18.4115 143.503 18.123H146.382C146.197 18.8836 145.892 19.5394 145.469 20.0902C144.502 21.4017 143.086 22.0574 141.219 22.0574C139.683 22.0574 138.385 21.546 137.326 20.523Z" fill="#808080"/>
<path d="M148.745 20.523C147.699 19.4869 147.176 18.2279 147.176 16.746C147.176 15.264 147.699 14.0116 148.745 12.9886C149.805 11.9526 151.102 11.4345 152.638 11.4345C154.2 11.4345 155.484 11.946 156.491 12.9689C157.497 13.9919 158 15.2509 158 16.746V17.3361H150.056C150.162 17.9919 150.46 18.5492 150.95 19.0083C151.44 19.4673 152.002 19.6968 152.638 19.6968C153.34 19.6968 153.942 19.5 154.445 19.1066C154.644 18.9361 154.803 18.7394 154.922 18.5164H157.9C157.676 19.1853 157.344 19.7754 156.908 20.2869C155.849 21.4672 154.425 22.0574 152.638 22.0574C151.102 22.0574 149.805 21.546 148.745 20.523ZM150.155 15.664H155.021C154.915 15.1394 154.644 14.7001 154.206 14.346C153.783 13.9788 153.26 13.7952 152.638 13.7952C152.016 13.7952 151.486 13.9722 151.049 14.3263C150.612 14.6804 150.314 15.1263 150.155 15.664Z" fill="#808080"/>
</svg>
