<svg width="107" height="33" viewBox="0 0 107 33" fill="none" xmlns="http://www.w3.org/2000/svg">
<path d="M20.8027 24.1234C21.8141 24.1244 22.4883 24.8252 22.4936 25.7719C22.4997 26.8199 21.8332 27.4856 20.8059 27.4998C19.8664 27.513 19.1581 26.9103 19.1104 25.8018C19.1258 24.8145 19.8234 24.1225 20.8027 24.1234Z" fill="#666666"/>
<path fill-rule="evenodd" clip-rule="evenodd" d="M10.7343 12.7332C11.3828 12.6362 11.9998 12.7354 12.5867 12.9721C13.1735 13.2089 13.6584 13.6103 14.0336 14.1297C14.3404 14.5543 14.5608 15.024 14.6389 15.5386C14.7173 16.0566 14.6959 16.5816 14.5562 17.0939C14.5201 17.2248 14.4282 17.2452 14.3063 17.2417C13.8274 17.2285 13.3929 17.362 12.9948 17.6324C12.732 17.811 12.5862 18.0682 12.4539 18.3407C12.3005 18.6569 12.2432 19.0013 12.1968 19.342C12.177 19.4852 12.0993 19.5212 12.0067 19.5556C11.5227 19.735 11.0264 19.7611 10.5234 19.65C9.75088 19.4794 9.08515 19.1205 8.55515 18.5243C8.15929 18.0785 7.91397 17.5554 7.78126 16.98C7.7213 16.7202 7.65092 16.4585 7.68884 16.1825C7.7268 15.1137 8.12066 14.1978 8.94372 13.5047C9.45423 13.0747 10.0615 12.8337 10.7343 12.7332ZM12.3608 14.7371C11.9098 14.3752 11.424 14.2002 10.8495 14.3289C9.93512 14.5341 9.29999 15.3548 9.27697 16.2385C9.29152 16.3544 9.28889 16.5044 9.33165 16.6389C9.54553 17.3095 9.97752 17.7671 10.6653 17.9664C11.0625 18.0814 11.0617 18.0845 11.13 17.6916C11.1397 17.6357 11.1654 17.5865 11.1769 17.5289C11.3515 16.639 12.1117 16.1822 12.8477 16.1421C13.07 16.1297 13.0512 15.9888 13.0182 15.8739C12.8943 15.443 12.7338 15.0361 12.3608 14.7371Z" fill="#666666"/>
<path fill-rule="evenodd" clip-rule="evenodd" d="M11.2042 9.07618C12.7739 9.14719 14.1711 9.55513 15.4167 10.4688C16.3615 11.1615 17.0862 12.0285 17.5906 13.0691C17.934 13.7778 18.1625 14.5345 18.2317 15.3309C18.259 15.647 18.3335 15.9614 18.3124 16.2788C18.2542 17.1935 18.1293 18.0943 17.7474 18.9423C17.6541 19.1495 17.5366 19.3463 17.452 19.553C17.317 19.8846 17.0615 19.9178 16.7679 19.9319C16.2625 19.9561 15.7939 20.0897 15.4271 20.4619C15.152 20.7406 15.0493 21.1065 14.9682 21.4743C14.9205 21.6903 14.9031 21.9133 14.8771 22.1338C14.8611 22.2663 14.7598 22.3378 14.6669 22.3942C14.162 22.6998 13.6249 22.9476 13.0527 23.083C12.6021 23.1892 12.1444 23.2863 11.6722 23.2868C11.3706 23.2872 11.0696 23.3035 10.7662 23.2855C10.149 23.2489 9.55281 23.1299 8.96065 22.9509C8.294 22.7489 7.68633 22.4388 7.11932 22.0446C5.98842 21.2579 5.17807 20.2175 4.63884 18.9488C4.37744 18.3341 4.18575 17.6963 4.13767 17.0464C4.08873 16.3854 4.07663 15.7136 4.19169 15.0412C4.33321 14.2166 4.58926 13.4439 4.99747 12.7221C5.37622 12.0523 5.8343 11.4477 6.42028 10.9304C6.97937 10.4374 7.58596 10.0357 8.25705 9.72789C8.80721 9.47527 9.38475 9.31155 9.98382 9.20704C10.4063 9.1334 10.8325 9.13438 11.2042 9.07618ZM11.5453 10.7175C11.1124 10.699 10.6808 10.7104 10.2448 10.7898C9.59978 10.9071 8.99531 11.1181 8.4393 11.448C7.61979 11.9339 6.96029 12.5913 6.46519 13.4122C6.03134 14.1323 5.78507 14.9157 5.71539 15.7443C5.66954 16.2907 5.71112 16.8389 5.83059 17.3856C6.06912 18.4779 6.60707 19.396 7.38879 20.1695C8.02592 20.8002 8.8005 21.2222 9.66034 21.4827C10.2682 21.667 10.8897 21.7103 11.5218 21.6963C12.2904 21.679 12.9979 21.469 13.6521 21.0726C13.7346 21.0227 13.8271 20.9645 13.8201 20.8388C13.8104 20.6652 13.8309 20.4942 13.8604 20.3219C13.9305 19.9104 14.0628 19.5207 14.3935 19.2548C14.7391 18.9771 15.1657 18.8302 15.6022 18.8407C15.9307 18.8487 16.0756 18.6936 16.1951 18.4488C16.5354 17.7504 16.7317 17.0191 16.6833 16.2541C16.7079 15.6611 16.6017 15.1135 16.4346 14.5633C16.1776 13.7166 15.7293 12.9986 15.1257 12.3666C14.6822 11.9028 14.1614 11.5443 13.591 11.2559C12.9476 10.9309 12.2627 10.7484 11.5453 10.7175Z" fill="#666666"/>
<path fill-rule="evenodd" clip-rule="evenodd" d="M8.98863 5.72063C9.96346 5.50545 10.9467 5.47186 11.9312 5.51816C12.8841 5.56313 13.8162 5.76446 14.7196 6.08327C15.2743 6.27863 15.8128 6.51185 16.3305 6.78967C16.9442 7.11907 17.5181 7.50859 18.0547 7.95571C18.6534 8.45491 19.1972 9.00851 19.6695 9.62502C20.1893 10.3037 20.6289 11.0334 20.9693 11.8236C21.2505 12.4771 21.4651 13.1475 21.6345 13.8367C21.7336 14.2411 21.7755 14.6537 21.8447 15.062C21.9095 15.446 21.8825 15.8335 21.8909 16.3797C21.9472 17.154 21.794 18.0701 21.5687 18.9651C21.2799 20.1107 20.7666 21.1668 20.1225 22.1598C19.9452 22.4332 19.7211 22.5333 19.4046 22.5355C18.5002 22.5412 17.8053 23.0526 17.6043 23.9632C17.5483 24.2158 17.5112 24.4675 17.4812 24.7217C17.4627 24.8814 17.3393 24.9619 17.2339 25.0355C16.3737 25.6379 15.4514 26.1148 14.4391 26.4164C13.6837 26.6413 12.9217 26.7972 12.1343 26.8624C11.6511 26.9025 11.1691 26.9059 10.6894 26.8891C10.1527 26.8702 9.61888 26.7985 9.08757 26.6983C8.38656 26.5665 7.70981 26.3599 7.05554 26.0909C6.24733 25.7588 5.48531 25.3356 4.78203 24.809C4.39891 24.5219 4.03189 24.2139 3.69638 23.8793C3.24222 23.4259 2.81275 22.9451 2.44149 22.415C1.85426 21.5768 1.39557 20.6736 1.06359 19.7105C0.862555 19.1276 0.72979 18.5233 0.627504 17.9104C0.50584 17.1797 0.483683 16.447 0.509696 15.7137C0.535726 14.9764 0.640518 14.247 0.83318 13.5301C0.990114 12.9455 1.17973 12.3759 1.42613 11.823C1.75285 11.0905 2.15299 10.4022 2.62699 9.75523C2.94223 9.32486 3.29006 8.91721 3.67099 8.55078C4.21902 8.02342 4.80447 7.53558 5.45829 7.13343C6.00372 6.79784 6.56949 6.50282 7.16033 6.26557C7.75069 6.02834 8.36345 5.85865 8.98863 5.72063ZM11.3207 7.09827C11.0076 7.09254 10.6958 7.10627 10.3828 7.13538C9.911 7.17948 9.44652 7.25082 8.98668 7.36195C8.12522 7.57053 7.30914 7.90459 6.55436 8.35741C5.69103 8.87514 4.93213 9.52879 4.27956 10.3054C3.63721 11.07 3.12324 11.9055 2.74935 12.8315C2.56328 13.2923 2.42115 13.7651 2.30871 14.2488C2.18619 14.7756 2.10867 15.3092 2.09588 15.8478C2.08662 16.2407 2.09168 16.6346 2.12386 17.0301C2.16486 17.5337 2.2538 18.0263 2.37901 18.5087C2.58711 19.3112 2.90841 20.0738 3.33124 20.79C3.95199 21.8416 4.75292 22.7422 5.71929 23.4782C6.54553 24.1075 7.46646 24.5731 8.46728 24.8871C9.35485 25.1653 10.2558 25.2977 11.1795 25.3109C11.6953 25.3153 12.2042 25.261 12.7142 25.182C13.3977 25.0762 14.0573 24.8857 14.6909 24.6247C15.2728 24.3853 15.8088 24.047 16.3162 23.6709C16.3897 23.6166 16.4277 23.5492 16.4242 23.4483C16.4172 23.2389 16.4104 23.0294 16.4633 22.8213C16.5744 22.3817 16.7528 21.9857 17.1571 21.7405C17.5112 21.5257 17.9012 21.4158 18.3157 21.4326C18.5426 21.4422 18.6851 21.3485 18.8032 21.167C19.2679 20.4521 19.6476 19.6954 19.9012 18.8804C20.1582 18.0541 20.2893 17.2056 20.2995 16.3413C20.3022 16.0504 20.2855 15.759 20.267 15.4676C20.2189 14.7181 20.047 14.0007 19.8218 13.2905C19.5934 12.5691 19.2516 11.9026 18.8461 11.2676C18.2755 10.3751 17.5564 9.61278 16.7204 8.97071C15.8659 8.31496 14.9141 7.82693 13.8845 7.50193C13.0512 7.23868 12.1936 7.11415 11.3207 7.09827Z" fill="#666666"/>
<path fill-rule="evenodd" clip-rule="evenodd" d="M37.9831 9.01954C38.9531 9.01954 39.8395 9.19554 40.6413 9.54755C41.456 9.88647 42.1605 10.3757 42.7553 11.0144C43.3632 11.6401 43.8295 12.3832 44.1528 13.2436C44.4891 14.091 44.6565 15.0236 44.6565 16.0405C44.6565 17.0443 44.489 17.9764 44.1528 18.8368C43.8295 19.6843 43.3633 20.4272 42.7553 21.066C42.5658 21.2654 42.3638 21.4492 42.152 21.6207L43.9393 23.9802L42.7365 24.8598L40.8945 22.4157C40.8111 22.4558 40.7271 22.4958 40.6413 22.5329C39.8395 22.8719 38.9531 23.0414 37.9831 23.0414C37.0262 23.0413 36.1403 22.8718 35.3256 22.5329C34.5238 22.1809 33.8188 21.6918 33.2109 21.066C32.616 20.4403 32.1504 19.7038 31.8141 18.8564C31.4908 17.9959 31.3293 17.0573 31.3292 16.0405C31.3292 15.0236 31.4908 14.091 31.8141 13.2436C32.1504 12.3832 32.6161 11.6401 33.2109 11.0144C33.8188 10.3756 34.5238 9.8865 35.3256 9.54755C36.1403 9.19562 37.0262 9.01956 37.9831 9.01954ZM37.9831 10.5059C37.246 10.5059 36.5607 10.643 35.927 10.9167C35.3063 11.1905 34.7694 11.575 34.3168 12.0704C33.8641 12.5658 33.5146 13.1529 33.2688 13.8308C33.0232 14.4956 32.9005 15.2324 32.9005 16.0405C32.9005 16.8357 33.0231 17.5723 33.2688 18.2502C33.5146 18.915 33.8641 19.4951 34.3168 19.9905C34.7694 20.4859 35.3062 20.8704 35.927 21.1442C36.5607 21.4049 37.246 21.5354 37.9831 21.5355C38.6948 21.5355 39.3515 21.4119 39.9546 21.1689L37.7696 18.2698L38.992 17.4481L41.2258 20.3974C41.3745 20.2709 41.517 20.1362 41.6502 19.9905C42.1028 19.4951 42.4517 18.9149 42.6974 18.2502C42.956 17.5723 43.0853 16.8357 43.0853 16.0405C43.0853 15.2323 42.956 14.4957 42.6974 13.8308C42.4517 13.1529 42.1029 12.5658 41.6502 12.0704C41.1974 11.575 40.6541 11.1905 40.0204 10.9167C39.3996 10.6429 38.7203 10.5059 37.9831 10.5059Z" fill="#666666"/>
<path d="M55.681 18.5829C55.6811 19.2738 55.7713 19.8539 55.9525 20.3232C56.1465 20.7795 56.4313 21.1251 56.8064 21.3597C57.1943 21.5942 57.6662 21.7112 58.2221 21.7112C58.6488 21.7112 59.0433 21.6398 59.4054 21.4964C59.7675 21.3399 60.0847 21.1315 60.3563 20.8707C60.6279 20.6099 60.8409 20.3034 60.9961 19.9514C61.1513 19.5994 61.2291 19.2279 61.2291 18.8368V12.6375H62.6845V22.846H61.2486L61.2005 21.0804C61.0555 21.3447 60.8716 21.5947 60.6472 21.8291C60.2851 22.194 59.8517 22.487 59.3474 22.7087C58.8559 22.9302 58.3449 23.0414 57.8146 23.0414C57.0388 23.0413 56.3791 22.8848 55.836 22.5719C55.3057 22.2461 54.898 21.7764 54.6136 21.1637C54.342 20.551 54.2062 19.7883 54.2062 18.8759V12.6375H55.681V18.5829Z" fill="#666666"/>
<path d="M83.9882 20.6162C84.3374 20.6162 84.6025 20.7273 84.7836 20.9489C84.9777 21.1574 85.0752 21.4509 85.0752 21.8291C85.0751 22.1938 84.9715 22.4871 84.7647 22.7087C84.5707 22.9302 84.3115 23.0414 83.9882 23.0414C83.6392 23.0413 83.3679 22.9367 83.174 22.7282C82.9929 22.5197 82.9019 22.2201 82.9019 21.8291C82.9019 21.4771 82.9989 21.19 83.1929 20.9684C83.3997 20.7337 83.6649 20.6162 83.9882 20.6162Z" fill="#666666"/>
<path d="M49.8785 12.6375H52.439V14.0457H49.8785V22.846H48.4232V14.0457H46.134V12.6375H48.4232V9.95836H49.8785V12.6375Z" fill="#666666"/>
<path d="M77.1378 12.4421C77.8491 12.4421 78.4506 12.5987 78.942 12.9116C79.4334 13.2114 79.8021 13.674 80.0478 14.2996C80.3065 14.9254 80.4358 15.721 80.4358 16.6857V22.846H78.942V16.7639C78.942 16.0859 78.8577 15.5319 78.6895 15.1017C78.5213 14.6715 78.2694 14.3519 77.9331 14.1434C77.6098 13.9217 77.1956 13.8107 76.6913 13.8107C76.2517 13.8107 75.8445 13.8893 75.4696 14.0457C75.1075 14.1891 74.7903 14.3976 74.5187 14.6714C74.2601 14.9321 74.0529 15.2322 73.8977 15.5711C73.7556 15.91 73.6842 16.2752 73.6842 16.6662V22.846H72.21V16.7443C72.21 16.0925 72.1197 15.5515 71.9386 15.1212C71.7705 14.691 71.518 14.365 71.1816 14.1434C70.8455 13.9218 70.4318 13.8107 69.9404 13.8107C69.5137 13.8107 69.1193 13.8893 68.7571 14.0457C68.395 14.1891 68.0778 14.3911 67.8062 14.6518C67.5476 14.9126 67.3411 15.2127 67.1859 15.5516C67.0437 15.8906 66.9724 16.2556 66.9724 16.6467V22.846H65.4975V12.6375H66.9529L66.9809 14.3563C67.0474 14.2348 67.1218 14.1181 67.2048 14.0066C67.4506 13.6807 67.7421 13.4001 68.0783 13.1655C68.4144 12.9309 68.7827 12.7548 69.1834 12.6375C69.5844 12.5071 70.0051 12.4421 70.4448 12.4421C70.975 12.4422 71.4474 12.5331 71.8611 12.7156C72.2879 12.8851 72.6434 13.1852 72.9279 13.6153C73.1323 13.9019 73.3017 14.2536 73.4389 14.6694C73.5653 14.4056 73.738 14.1522 73.9563 13.909C74.215 13.6222 74.5058 13.3676 74.8291 13.1459C75.1654 12.9243 75.5275 12.7548 75.9154 12.6375C76.3164 12.5071 76.7239 12.4421 77.1378 12.4421Z" fill="#666666"/>
<path fill-rule="evenodd" clip-rule="evenodd" d="M98.7624 22.846H97.1131L95.7027 19.0712H89.6456L88.228 22.846H86.6763L91.8755 9.15691H93.6016L98.7624 22.846ZM92.5544 11.112C92.4508 11.4379 92.3408 11.7705 92.2244 12.1095C92.108 12.4353 91.9919 12.7615 91.8755 13.0873C91.7591 13.4133 91.6425 13.7393 91.526 14.0652L90.2041 17.5855H95.1475L93.7956 13.9676C93.7051 13.7199 93.6022 13.4328 93.4858 13.1069C93.3823 12.7679 93.2656 12.4224 93.1363 12.0704C93.0199 11.7054 92.9038 11.3533 92.7874 11.0144C92.7549 10.9079 92.7216 10.8058 92.6904 10.7071C92.6458 10.8409 92.6011 10.9761 92.5544 11.112Z" fill="#666666"/>
<path d="M106.5 10.6036H104.308V21.3987H106.5V22.846H100.602V21.3987H102.795V10.6036H100.602V9.15691H106.5V10.6036Z" fill="#666666"/>
</svg>
