<svg width="49" height="33" viewBox="0 0 49 33" fill="none" xmlns="http://www.w3.org/2000/svg">
<path d="M4.5 7.5C5.13333 7.5 5.70843 7.61596 6.2251 7.848C6.75841 8.08004 7.21678 8.3868 7.6001 8.768C8.36672 9.56356 8.75 10.4752 8.75 11.5028V12.7459H6.19995V12.1741C6.19995 11.594 6.05824 11.0967 5.7749 10.6824C5.50823 10.2514 5.04989 10.036 4.3999 10.036C4.04996 10.036 3.76669 10.1023 3.55005 10.2348C3.33338 10.3674 3.15824 10.5331 3.0249 10.732C2.89157 10.9475 2.8 11.1961 2.75 11.4779C2.7 11.7431 2.67505 12.025 2.67505 12.3233C2.67505 12.6713 2.68329 12.9614 2.69995 13.1934C2.73328 13.4254 2.79994 13.6325 2.8999 13.8148C2.9999 13.9971 3.14163 14.1547 3.32495 14.2873C3.52495 14.4199 3.79167 14.5526 4.125 14.6852L6.07495 15.4558C6.64162 15.6712 7.09995 15.9282 7.44995 16.2266C7.79992 16.5083 8.07491 16.8398 8.2749 17.2209C8.45824 17.6187 8.58324 18.0747 8.6499 18.5885C8.71656 19.0857 8.75 19.6574 8.75 20.3038C8.75 21.0496 8.6749 21.7458 8.5249 22.3922C8.37491 23.022 8.13336 23.5607 7.80005 24.0082C7.45006 24.4723 6.99168 24.8369 6.42505 25.1021C5.8584 25.3673 5.16672 25.5 4.3501 25.5C3.73343 25.5 3.15833 25.3922 2.625 25.1767C2.09171 24.9612 1.63331 24.6631 1.25 24.2819C0.866667 23.9007 0.558285 23.4612 0.324951 22.964C0.108312 22.4502 1.27324e-06 21.895 0 21.2984V20.3536H2.55005V21.1492C2.55005 21.6133 2.68329 22.036 2.94995 22.4172C3.23328 22.7818 3.7001 22.964 4.3501 22.964C4.78338 22.964 5.11678 22.9061 5.3501 22.7901C5.60007 22.6575 5.79172 22.4751 5.92505 22.2431C6.05836 22.011 6.13324 21.7375 6.1499 21.4226C6.18323 21.0911 6.19995 20.7265 6.19995 20.3287C6.19995 19.8647 6.18323 19.4835 6.1499 19.1852C6.11657 18.8868 6.04995 18.6463 5.94995 18.464C5.83329 18.2817 5.67505 18.1325 5.4751 18.0165C5.29179 17.9005 5.0417 17.7763 4.7251 17.6438L2.8999 16.8979C1.79998 16.4504 1.05839 15.8619 0.675049 15.1327C0.308382 14.3869 0.125 13.4585 0.125 12.348C0.125006 11.6851 0.216585 11.0552 0.399902 10.4586C0.583236 9.8619 0.858431 9.34812 1.2251 8.91718C1.5751 8.48624 2.01672 8.1465 2.55005 7.89788C3.10005 7.63269 3.75 7.5 4.5 7.5Z" fill="#808080"/>
<path d="M13.2129 22.9212H17.2014V25.5H10.7014V7.5H13.2129V22.9212Z" fill="#808080"/>
<path fill-rule="evenodd" clip-rule="evenodd" d="M25.25 7.5C30.3586 7.5 34.5 11.5294 34.5 16.5C34.5 21.4706 30.3586 25.5 25.25 25.5C20.1414 25.5 16 21.4706 16 16.5C16 11.5294 20.1414 7.5 25.25 7.5ZM25.25 10.1757C21.6601 10.1757 18.75 13.0072 18.75 16.5C18.75 19.9928 21.6601 22.8243 25.25 22.8243C28.8399 22.8243 31.75 19.9928 31.75 16.5C31.75 13.0072 28.8399 10.1757 25.25 10.1757Z" fill="#808080"/>
<path d="M38.968 18.927H39.0178L41.0142 7.5H42.9607L45.032 19.2051H45.082L46.3049 7.5H49L46.3547 25.5H43.959L42.0125 13.8203H41.9626L40.041 25.5H37.6453L35 7.5H37.6951L38.968 18.927Z" fill="#808080"/>
</svg>
