<svg width="91" height="33" viewBox="0 0 91 33" fill="none" xmlns="http://www.w3.org/2000/svg">
<path d="M6.7168 28.876C6.86303 28.3861 7.38884 28.1061 7.88574 28.2461C8.76264 28.4981 9.62494 28.6377 10.458 28.6377H10.5752C11.4083 28.6377 12.2559 28.5117 13.1328 28.2598C13.6297 28.1198 14.1564 28.3998 14.3027 28.8896C14.4489 29.3796 14.1707 29.898 13.6738 30.0381C12.6362 30.3461 11.5983 30.5 10.5752 30.5H10.458C9.43488 30.5 8.38245 30.3461 7.34473 30.0381C6.84781 29.8981 6.57064 29.38 6.7168 28.876ZM10.5166 2.5C14.8723 2.50001 18.6729 5.23037 20.0176 9.31836V9.33203C20.0032 9.33203 20.0029 9.332 20.0029 9.3457C20.8946 11.9217 20.573 15.3663 19.1553 18.5723C17.2113 22.9542 13.6737 25.9921 10.5459 25.9922H10.458C7.33013 25.9921 3.79259 22.9542 1.84863 18.5723C0.416221 15.3663 0.109376 11.9077 1.00098 9.3457C2.33112 5.2578 6.14637 2.5 10.5166 2.5ZM46.0576 11.1533C48.638 11.1533 50.4707 13.0766 50.4707 16.3428C50.4706 19.6087 48.6379 21.5596 46.0576 21.5596C44.7967 21.5455 43.6823 20.98 42.8613 19.9336V24.8828C42.8613 24.9959 42.7735 25.0811 42.6562 25.0811H40.8965C40.7794 25.0809 40.6915 24.9957 40.6914 24.8828V11.5918C40.6914 11.4788 40.7794 11.3937 40.8965 11.3936H42.6562C42.7735 11.3936 42.8613 11.4787 42.8613 11.5918V12.751C43.6091 11.7613 44.7528 11.1533 46.0576 11.1533ZM10.502 9.68164C9.52268 10.7456 8.67535 12.0342 8.03223 13.4902C6.00057 18.0542 6.54103 22.9539 9.21582 24.1719C9.61046 24.3539 10.0489 24.4521 10.502 24.4521C10.9551 24.4521 11.3935 24.3539 11.7881 24.1719C14.463 22.9399 15.0033 18.0542 12.9717 13.4902C12.3286 12.0342 11.4813 10.7316 10.502 9.68164ZM16.5381 7.42773C15.1642 6.78406 13.3662 7.24632 11.6416 8.61816C12.7379 9.80815 13.6881 11.2504 14.4043 12.8604C15.7636 15.9403 16.0708 19.1184 15.4424 21.5684C16.3193 20.5464 17.1088 19.3143 17.7227 17.9424C18.9943 15.0724 19.2864 12.0479 18.5264 9.83594C18.1171 8.65998 17.4297 7.83373 16.5381 7.42773ZM69.0762 11.1533C72.2428 11.1535 74.1777 13.4867 74.1777 16.3428C74.1776 19.1704 72.2426 21.5594 69.0762 21.5596C65.9241 21.5455 63.9738 19.1705 63.9736 16.3428C63.9736 13.4866 65.9093 11.1533 69.0762 11.1533ZM9.34766 8.60449C7.63767 7.2326 5.83968 6.78428 4.45117 7.41406C3.55958 7.82006 2.87214 8.66027 2.46289 9.82227C1.68833 12.0342 1.99502 15.0725 3.2666 17.9424C3.88042 19.3282 4.67002 20.5598 5.54688 21.5537C4.90386 19.1038 5.21108 15.9256 6.58496 12.8457C7.30114 11.2359 8.25152 9.7804 9.34766 8.60449ZM30.9023 11.3936C31.0195 11.3936 31.1074 11.4787 31.1074 11.5918V17.6152C31.1075 19.1562 31.8847 19.6514 33.1309 19.6514C34.2156 19.6513 35.1686 19.0146 35.667 18.3643V11.6055C35.6671 11.4925 35.7549 11.4073 35.8721 11.4072H37.6318C37.7489 11.4073 37.8368 11.4925 37.8369 11.6055V21.1221C37.8367 21.2349 37.7488 21.3192 37.6318 21.3193H35.8721C35.7403 21.3052 35.6524 21.2205 35.6523 21.1074V19.9902C34.9486 20.7679 33.7171 21.5459 32.1484 21.5459C30.008 21.5459 28.9377 20.4148 28.9375 18.4072V11.5918C28.9375 11.4787 29.0254 11.3936 29.1426 11.3936H30.9023ZM90.2949 7.61816C90.4122 7.61821 90.5 7.70332 90.5 7.81641V21.1074C90.5 21.2205 90.4122 21.3056 90.2949 21.3057H88.5352C88.4327 21.3055 88.3301 21.2204 88.3301 21.1074V19.9482C87.5677 20.9379 86.4386 21.5459 85.1338 21.5459C82.5976 21.5458 80.7207 19.6225 80.7207 16.3281C80.7208 13.1327 82.5683 11.1388 85.1338 11.1387C86.3945 11.1387 87.5383 11.6903 88.3301 12.7646V7.81641C88.3301 7.70337 88.418 7.61828 88.5352 7.61816H90.2949ZM54.6885 7.61816C54.8059 7.61816 54.8945 7.70329 54.8945 7.81641V12.7227C55.5543 11.945 56.8298 11.1387 58.3984 11.1387C60.5388 11.1388 61.6094 12.2423 61.6094 14.2783V21.0938C61.6091 21.2066 61.5205 21.291 61.4033 21.291L59.6445 21.3057C59.5271 21.3057 59.4395 21.2205 59.4395 21.1074V15.0693C59.4393 13.5144 58.662 13.0615 57.4453 13.0615C56.3312 13.0615 55.3931 13.7124 54.8945 14.377V21.1074C54.8945 21.2205 54.8059 21.3057 54.6885 21.3057H52.9297C52.8124 21.3057 52.7246 21.2205 52.7246 21.1074V7.81641C52.7246 7.70329 52.8124 7.61816 52.9297 7.61816H54.6885ZM78.3438 7.61816C78.461 7.61816 78.5488 7.70329 78.5488 7.81641V21.1074C78.5488 21.2205 78.461 21.3057 78.3438 21.3057H76.585C76.4823 21.3057 76.3789 21.2205 76.3789 21.1074V7.81641C76.3789 7.70329 76.4677 7.61816 76.585 7.61816H78.3438ZM45.4121 13.0615C44.4007 13.0617 43.3598 13.6419 42.8613 14.377V18.2939C43.3304 19.029 44.4007 19.6512 45.4121 19.6514C47.1127 19.6514 48.2274 18.2656 48.2275 16.3428C48.2275 14.4057 47.1128 13.0615 45.4121 13.0615ZM69.0908 13.0615C67.2581 13.0615 66.2314 14.6036 66.2314 16.3428C66.2316 18.1101 67.2582 19.6514 69.0908 19.6514C70.9377 19.6512 71.9491 18.11 71.9492 16.3428C71.9492 14.5896 70.9379 13.0617 69.0908 13.0615ZM85.7793 13.0479C84.0494 13.0479 82.9639 14.4193 82.9639 16.3281C82.9639 18.2652 84.0493 19.6367 85.7793 19.6367C86.7909 19.6367 87.861 19.0429 88.3301 18.3076V14.377C87.8609 13.6418 86.7909 13.0479 85.7793 13.0479ZM10.502 4.05371C8.68954 4.05371 6.97938 4.6144 5.59082 5.6084C7.16935 5.5524 8.89421 6.22378 10.502 7.55371C12.1097 6.2098 13.8345 5.5384 15.4131 5.6084C14.0099 4.6144 12.3144 4.05372 10.502 4.05371Z" fill="#666666"/>
</svg>
