<svg width="98" height="33" viewBox="0 0 98 33" fill="none" xmlns="http://www.w3.org/2000/svg">
<path fill-rule="evenodd" clip-rule="evenodd" d="M95.3187 22.5279C95.2414 22.4704 95.1544 22.4263 95.0617 22.3976C94.9539 22.3573 94.8396 22.3358 94.7241 22.3341C94.5807 22.3294 94.4404 22.3761 94.33 22.4653C94.2197 22.5545 94.1468 22.68 94.1252 22.818C94.1081 22.897 94.1088 22.9786 94.1274 23.0573C94.144 23.125 94.179 23.1872 94.2287 23.2373C94.3256 23.3178 94.4312 23.3855 94.5445 23.4416L94.7949 23.5751C95.0051 23.6852 95.1423 23.8186 95.2054 23.9711C95.2697 24.1246 95.2784 24.3205 95.2326 24.5576C95.1836 24.8149 95.0388 25.0341 94.8014 25.2131C94.5512 25.396 94.2444 25.4909 93.9314 25.482C93.632 25.482 93.3892 25.41 93.204 25.2671L93.4545 24.8361C93.5416 24.9071 93.6396 24.9611 93.7463 24.996C93.8526 25.0364 93.9654 25.0583 94.0795 25.0606C94.2466 25.0646 94.4099 25.0118 94.5412 24.9113C94.648 24.8304 94.7257 24.7187 94.7628 24.5921C94.8 24.4655 94.7949 24.3307 94.7481 24.2072C94.7078 24.1087 94.576 24.0007 94.3528 23.8832L94.1056 23.7551C93.8955 23.6449 93.7583 23.5158 93.6962 23.3665C93.6316 23.193 93.6199 23.0052 93.6625 22.8254C93.7085 22.5745 93.8467 22.3484 94.0512 22.1891C94.2614 22.0207 94.5205 21.9318 94.7884 21.9349C95.1619 21.9349 95.4101 21.9985 95.5332 22.1213L95.3187 22.5279ZM86.0653 22.4156L85.8824 23.3686H86.9996L86.9234 23.7667H85.8073L85.5699 25.0024H87.103L87.0225 25.4238H85.0276L85.6842 21.9942H87.7041L87.6235 22.4156H86.0653ZM78.9832 23.5242C78.8449 23.681 78.6606 23.7929 78.4551 23.8451L79.1346 25.4227H78.6054L77.9847 23.9509C77.823 23.9485 77.6614 23.9407 77.5002 23.9276L77.2138 25.4238H76.7521L77.4087 21.9942C77.4261 21.9942 77.5459 21.9889 77.7702 21.9773C77.9956 21.9656 78.1579 21.9593 78.2602 21.9593C79.0725 21.9593 79.4166 22.2875 79.2914 22.9429C79.2478 23.1632 79.1389 23.3654 78.9832 23.5242ZM78.6838 22.5184C78.564 22.4336 78.3593 22.3924 78.0664 22.3924C78.0207 22.3924 77.9281 22.4008 77.7898 22.4156L77.5764 23.5295C77.682 23.5454 77.7887 23.5539 77.8954 23.5539C78.172 23.5539 78.3822 23.5084 78.5259 23.4173C78.6696 23.3273 78.7633 23.1653 78.8079 22.9334C78.8438 22.7418 78.8036 22.6031 78.6838 22.5184ZM70.0032 25.1908C69.7528 25.3846 69.4435 25.482 69.0766 25.482C68.6976 25.482 68.4232 25.3867 68.2555 25.1961C68.0879 25.0055 68.0378 24.7324 68.1064 24.3776L68.5615 21.9942H69.0232L68.5746 24.3416C68.5343 24.5513 68.5659 24.7228 68.6715 24.8584C68.776 24.9928 68.9361 25.0606 69.1517 25.0606C69.362 25.0688 69.5676 24.9987 69.7266 24.8647C69.8891 24.7275 69.9954 24.5381 70.0261 24.3311L70.4725 21.9942H70.9342L70.478 24.3798C70.4284 24.6979 70.2592 24.9869 70.0032 25.1908ZM61.413 22.4156L60.8381 25.4227H60.3764L60.9524 22.4156H59.8766L59.9572 21.9942H62.6184L62.5378 22.4156H61.413ZM53.2213 25.4704L51.9539 22.9631L51.4824 25.4238H51.0447L51.7002 21.9942H51.8853L53.1321 24.366L53.5861 21.9942H54.0249L53.3596 25.4704H53.2213ZM43.7829 22.4156L43.6011 23.3686H44.7183L44.642 23.7667H43.5248L43.2875 25.0024H44.8206L44.74 25.4238H42.7463L43.4018 21.9942H45.4217L45.3411 22.4156H43.7829ZM35.1197 25.4704L34.5241 21.9942H35.0359L35.4235 24.5206L36.7444 21.9942H37.2409L35.3528 25.4704H35.1197ZM97.9342 14.7349L97.0565 19.3249H94.6925L95.3992 15.6339C95.543 14.8768 95.2609 14.4046 94.6534 14.4046C94.0316 14.4046 93.5677 14.8768 93.4229 15.6339L92.7162 19.3249H90.3533L91.0589 15.6339C91.2038 14.8768 90.9207 14.4046 90.3141 14.4046C89.7076 14.4046 89.2274 14.8768 89.0837 15.6339L88.377 19.3249H86.0131L87.335 12.4172H89.589L89.393 13.4421C90.4219 12.5421 91.0731 12.2276 91.8974 12.2276C92.8001 12.2276 93.3151 12.6215 93.632 13.5681C94.6305 12.5749 95.2882 12.2276 96.144 12.2276C97.528 12.2276 98.2238 13.2208 97.9342 14.7349ZM81.2633 19.6564C79.0692 19.6564 77.8007 18.0787 78.2232 15.8711C78.6457 13.6634 80.5186 12.0858 82.7116 12.0858C84.9057 12.0858 86.1742 13.6634 85.7517 15.8711C85.3281 18.0798 83.4574 19.6564 81.2633 19.6564ZM82.374 13.8519C81.4408 13.8519 80.732 14.6248 80.4848 15.9187C80.2561 17.1173 80.683 17.8902 81.6009 17.8902C82.5188 17.8902 83.2419 17.1173 83.4803 15.8711C83.7199 14.6259 83.2919 13.8519 82.374 13.8519ZM75.7492 14.1674C74.5515 14.1674 73.6194 14.8927 73.4136 15.9653C73.2328 16.9119 73.8383 17.5747 74.9108 17.5747C75.2451 17.5715 75.5794 17.5239 75.9017 17.4328C76.4646 17.2592 76.7369 17.1332 77.3967 16.6916L76.7358 19.0105C75.7776 19.4668 75.0099 19.6564 74.1704 19.6564C71.9294 19.6564 70.6424 18.0946 71.067 15.8711C71.4993 13.6158 73.4561 12.0858 75.8832 12.0858C76.7695 12.0858 77.4642 12.2742 78.1295 12.6999L77.4849 14.7667C76.8229 14.3252 76.3873 14.1674 75.7492 14.1674ZM68.2174 19.6564C67.502 19.6564 67.0414 19.0571 67.1797 18.3318C67.318 17.6054 68.0095 17.0061 68.7249 17.0061C69.4555 17.0061 69.9313 17.6054 69.792 18.3318C69.6537 19.0571 68.9481 19.6564 68.2174 19.6564ZM66.8727 12.3536C66.5275 12.8576 66.2977 13.0789 65.6379 13.5205C66.5514 14.2775 66.8422 15.0346 66.6288 16.1548C66.2346 18.2058 64.2681 19.704 61.9509 19.704C61.0482 19.704 60.1739 19.4827 59.4465 19.0581C59.0806 18.8516 58.9674 18.7775 58.4752 18.336C58.7616 17.9485 59.0186 17.5398 59.244 17.1131C59.6164 16.3825 59.6817 15.8891 59.6817 15.8891C60.0323 16.2522 60.6203 16.6599 60.8947 16.8484C61.3542 17.1332 61.8801 17.3068 62.332 17.3068C63.2652 17.3068 63.9958 16.7382 64.1526 15.9187C64.2343 15.492 64.1298 15.1458 63.8608 14.9245C63.4797 14.6407 63.0311 14.5465 61.8213 14.5306L62.1774 12.6692C63.0518 12.6533 63.3861 12.6056 63.8739 12.4172C64.4793 12.18 64.8561 11.7544 64.9595 11.2175C65.0826 10.5716 64.7069 10.1767 63.9447 10.1767C63.5875 10.1767 63.226 10.272 62.8514 10.4456C62.4736 10.6341 62.2558 10.7919 61.7517 11.2334L60.6192 9.59224C62.0228 8.34706 63.1313 7.84306 64.4227 7.84306C66.4763 7.84306 67.7688 9.21529 67.4193 11.0449C67.3237 11.5111 67.1382 11.9545 66.8727 12.3536ZM54.5128 19.6553C53.9367 19.6553 53.3455 19.5769 52.5756 19.3715L52.3981 19.3239L50.8106 19.6553L52.9513 8.47306L55.4002 8.03153L54.5302 12.5739C55.2031 12.2276 55.6975 12.0858 56.304 12.0858C58.1551 12.0858 59.2374 13.6634 58.8356 15.7599C58.4044 18.0162 56.5816 19.6564 54.5128 19.6564V19.6553ZM55.3664 13.9768C54.993 13.9768 54.6173 14.0721 54.21 14.2447L53.5404 17.7494C53.7908 17.8447 54.0554 17.8934 54.3222 17.8913C55.3795 17.8913 56.3257 17.0072 56.5501 15.8404C56.7613 14.736 56.2833 13.9789 55.3664 13.9789V13.9768ZM50.4305 16.1538H45.7178C45.6253 17.3682 46.148 17.8892 47.4078 17.8892C48.2016 17.8892 48.7504 17.6996 49.677 17.0845H49.9569L49.3558 19.0084C48.317 19.4816 47.5679 19.6553 46.6499 19.6553C44.348 19.6553 43.1361 18.2682 43.5521 16.0902C43.9963 13.7714 45.9204 12.0847 48.1297 12.0847C50.1213 12.0847 51.0512 13.2356 50.6712 15.2231C50.6102 15.5386 50.5285 15.8488 50.4305 16.1538ZM47.766 13.6624C46.9418 13.6624 46.2939 14.1992 45.9084 15.24H48.8636C48.9943 14.2299 48.6056 13.6624 47.766 13.6624ZM38.051 19.704L36.8641 13.7894L33.4472 19.704H33.2599L30.9003 8.22106H33.089L34.3717 14.3612L38.0194 7.842H38.2209L39.3664 13.8053L42.5209 8.22H44.9164L38.2078 19.7029H38.0521L38.051 19.704ZM3.42889 10.4414L19.2362 10.4584L13.3704 16.5752L19.2896 22.728H3.57154V21.1652H15.4513L11.0957 16.5688L15.4872 12.0053H3.42998V10.4404L3.42889 10.4414ZM5.99321 13.4432L11.9559 13.4421L9.11613 16.5741L11.9559 19.6701L6.01172 19.6945V18.1306H8.20147L6.84145 16.5688L8.16553 15.0071H5.99321V13.4432ZM17.9905 16.5752L26.4751 25.5H0.241732V23.9361H22.6313L15.7148 16.5688L22.897 9.09353H0V7.53282L26.7735 7.5L17.9905 16.5741V16.5752Z" fill="#808080"/>
</svg>
